<?xml version="1.0" standalone="no"?>
<!DOCTYPE svg PUBLIC "-//W3C//DTD SVG 1.1//EN" "http://www.w3.org/Graphics/SVG/1.1/DTD/svg11.dtd" >
<svg xmlns="http://www.w3.org/2000/svg" xmlns:xlink="http://www.w3.org/1999/xlink" version="1.1">
<metadata>
Created by FontForge 20170731 at Sun Oct 13 00:40:18 2002
 By Aleksey,,,
Copyright (c) 1997, 2002 Adobe Systems Incorporated.  All Rights Reserved.
</metadata>
<defs>
<font id="KinesisStd-Semibold" horiz-adv-x="302" >
  <font-face 
    font-family="Kinesis Std Semibold"
    font-weight="600"
    font-stretch="normal"
    units-per-em="1000"
    panose-1="0 0 7 0 0 0 0 0 0 0"
    ascent="734"
    descent="-266"
    x-height="444"
    cap-height="629"
    bbox="-84 -250 1083 888"
    underline-thickness="60"
    underline-position="-225"
    unicode-range="U+0020-FB04"
  />
<missing-glyph horiz-adv-x="500" 
d="M0 0v700h500v-700h-500zM250 395l170 255h-340zM280 350l170 -255v510zM80 50h340l-170 255zM50 605v-510l170 255z" />
    <glyph glyph-name="f_f" unicode="ff" horiz-adv-x="562" 
d="M461 444h121v-52h-121v-271q0 -25 2 -63q1 -7 4.5 -9t19.5 -4l43 -7v-43q-46 3 -115 3q-77 0 -123 -3v43l38 7q22 3 23 11q2 12 2 65v271h-164v-271q0 -25 2 -63q1 -7 4.5 -9t19.5 -4l43 -7v-43q-47 3 -116 3q-77 0 -123 -3v43l38 7q22 3 24 11q2 12 2 65v271h-64v45
l66 7q13 112 83 189q39 42 85 64.5t85 22.5q42 0 96 -26q27 -15 27 -30q34 31 75.5 50.5t74.5 19.5q42 0 90 -21q28 -13 28 -31q0 -30 -36 -72q-70 44 -122 44q-65 0 -88.5 -53t-23.5 -157zM191 444h167q10 92 55 162q-54 39 -107 39q-115 0 -115 -201z" />
    <glyph glyph-name="f_i" unicode="fi" horiz-adv-x="538" 
d="M21 437l65 7q16 125 84 199q37 41 86.5 66t86.5 25q45 0 91 -22q27 -12 27 -31q0 -29 -37 -71q-67 44 -122 44q-111 0 -111 -210h253l23 -22q-5 -51 -5 -124v-177q0 -25 2 -63q1 -7 4.5 -9t19.5 -4l37 -7v-43q-63 3 -116 3q-57 0 -117 -3v43l38 7q16 2 19.5 4t4.5 9
q2 38 2 63v271h-165v-271q0 -25 2 -63q1 -6 5 -8.5t19 -4.5l40 -7v-43q-53 3 -119 3q-68 0 -117 -3v43l38 7q22 3 24 11q2 13 2 65v271h-64v45z" />
    <glyph glyph-name="f_l" unicode="fl" horiz-adv-x="555" 
d="M297 453v-73l-106 9v-268q0 -25 2 -63q1 -7 5 -9t19 -4l52 -7v-43q-54 3 -131 3q-63 0 -117 -3v43l38 7q22 3 24 11q2 13 2 65v269l-64 4v41l64 5q16 127 90 207q31 35 70.5 61t67.5 26q20 0 43 -7t30 -18q32 7 68 25l21 -15v-598q0 -25 2 -63q1 -7 4 -9t19 -4l39 -7v-43
q-63 3 -118 3t-115 -3v43l40 7q15 2 17.5 3.5t3.5 9.5q2 38 2 63v290q0 141 -12 232q-25 11 -50 11q-116 0 -116 -208z" />
    <glyph glyph-name="f_f_i" unicode="ffi" horiz-adv-x="808" 
d="M461 444h252l23 -22q-4 -41 -4 -124v-177q0 -25 2 -63q1 -7 4.5 -9t19.5 -4l37 -7v-43q-61 3 -116 3q-56 0 -116 -3v43l37 7q16 2 19.5 4t4.5 9q2 38 2 63v271h-165v-271q0 -25 2 -63q1 -7 4.5 -9t19.5 -4l39 -7v-43q-51 3 -117 3q-60 0 -117 -3v43l38 7q22 3 23 11
q2 12 2 65v271h-164v-271q0 -25 2 -63q1 -7 4.5 -9t19.5 -4l39 -7v-43q-57 3 -118 3q-63 0 -117 -3v43l38 7q22 3 24 11q2 12 2 65v271h-64v45l66 7q13 112 83 189q39 42 85 64.5t85 22.5q42 0 96 -26q27 -15 27 -30q34 31 75.5 50.5t74.5 19.5q42 0 90 -21q28 -13 28 -31
q0 -30 -36 -72q-70 44 -122 44q-65 0 -88.5 -53t-23.5 -157zM191 444h167q10 92 55 162q-54 39 -107 39q-115 0 -115 -201z" />
    <glyph glyph-name="f_f_l" unicode="ffl" horiz-adv-x="825" 
d="M461 444h103v-52h-103v-271q0 -25 2 -63q1 -7 5 -9t19 -4l52 -7v-43q-63 3 -131 3q-58 0 -116 -3v43l38 7q22 3 23 11q2 12 2 65v271h-164v-271q0 -25 2 -63q1 -7 4.5 -9t19.5 -4l39 -7v-43q-58 3 -118 3q-62 0 -117 -3v43l38 7q22 3 24 11q2 12 2 65v271h-64v45l66 7
q12 112 83 189q39 42 85 64.5t85 22.5q42 0 96 -26q27 -15 27 -30q67 70 120 70q20 0 42.5 -7t29.5 -18q33 7 69 25l22 -15v-598q0 -25 2 -63q1 -7 4 -9t19 -4l38 -7v-43q-63 3 -118 3t-115 -3v43l40 7q15 2 17.5 4t3.5 9q2 38 2 63v290q0 141 -12 232q-23 11 -52 11
q-66 0 -90 -54t-24 -156zM191 444h167q10 92 55 162q-54 39 -107 39q-115 0 -115 -201z" />
    <glyph glyph-name=".notdef" horiz-adv-x="500" 
d="M0 0v700h500v-700h-500zM250 395l170 255h-340zM280 350l170 -255v510zM80 50h340l-170 255zM50 605v-510l170 255z" />
    <glyph glyph-name=".null" horiz-adv-x="0" 
 />
    <glyph glyph-name="nonmarkingreturn" horiz-adv-x="333" 
 />
    <glyph glyph-name="space" unicode=" " horiz-adv-x="172" 
 />
    <glyph glyph-name="exclam" unicode="!" horiz-adv-x="286" 
d="M187 638l16 -16l-29 -402l-59 -20l-40 406zM144 131h1q13 0 43 -25.5t30 -37.5q0 -14 -31 -48t-44 -34q-14 0 -43.5 25.5t-29.5 37.5q0 15 30.5 48.5t43.5 33.5z" />
    <glyph glyph-name="quotedbl" unicode="&#x22;" horiz-adv-x="325" 
d="M119 641l17 -11l-24 -199q-29 -8 -39 -10l-13 4l-17 204q50 4 76 12zM266 641l15 -11l-23 -196l-38 -13l-14 4l-17 204q45 4 77 12z" />
    <glyph glyph-name="numbersign" unicode="#" horiz-adv-x="448" 
d="M233 195h-76l-35 -143h-80l35 143h-81l11 49h81l34 140h-81l12 49h81l34 139h80l-34 -139h76l33 139h81l-34 -139h82l-11 -49h-82l-35 -140h83l-11 -49h-82l-35 -143h-81zM244 244l35 140h-77l-33 -140h75z" />
    <glyph glyph-name="dollar" unicode="$" horiz-adv-x="448" 
d="M195 707h54v-95q132 0 132 -43q0 -17 -11 -39t-24 -36q-41 39 -97 45v-177q35 -15 57.5 -27t48 -31.5t38 -45.5t12.5 -59q0 -70 -42.5 -119t-113.5 -62v-125h-54v120q-53 0 -103.5 21t-50.5 45q0 16 18 38.5t36 35.5q18 -26 46.5 -46.5t53.5 -20.5v193q-30 13 -42.5 19
t-37 21.5t-35.5 29t-21 36t-10 48.5q0 63 40 109.5t106 62.5v102zM195 380v156q-24 -6 -39 -26.5t-15 -48.5q0 -31 13.5 -48.5t40.5 -32.5zM249 260v-174q26 5 44.5 28t18.5 56q0 59 -63 90z" />
    <glyph glyph-name="percent" unicode="%" horiz-adv-x="765" 
d="M194 637h1q67 0 103 -42.5t36 -120.5q0 -79 -43.5 -126.5t-116.5 -47.5q-69 0 -106.5 41t-37.5 116q0 81 44.5 130.5t119.5 49.5zM184 573h-1q-34 0 -52 -28t-18 -76q0 -106 68 -106q33 0 52 27.5t19 77.5q0 105 -68 105zM594 323h1q67 0 103.5 -43t36.5 -120
q0 -79 -44 -127t-117 -48q-69 0 -106.5 41.5t-37.5 116.5q0 81 44.5 130.5t119.5 49.5zM584 259h-1q-35 0 -53 -28t-18 -76q0 -105 70 -105q33 0 51.5 27t18.5 77q0 105 -68 105zM494 636l62 -27l-289 -622l-62 28z" />
    <glyph glyph-name="ampersand" unicode="&#x26;" horiz-adv-x="602" 
d="M595 34l3 -35q-77 -14 -128 -14q-32 0 -54 10t-54 40q-2 1 -4.5 3.5l-4.5 4.5q-70 -58 -150 -58q-75 0 -124 48t-49 120q0 56 27 97t91 81q-28 59 -28 108q0 63 45.5 105.5t112.5 42.5q52 0 80.5 -29.5t28.5 -82.5q0 -57 -25 -113q-53 -5 -99 -28q50 -94 136 -187
q61 72 61 175q0 43 -20 98q39 15 72 15q46 0 46 -68q0 -63 -31 -131.5t-89 -127.5q80 -72 157 -74zM213 470v-1q0 -39 25 -91q29 17 61 24q5 17 5 33q0 41 -15 67t-38 26q-18 0 -28 -16t-10 -42zM246 58h1q36 0 69 23q-83 90 -141 203q-42 -38 -42 -92q0 -62 31.5 -98
t81.5 -36z" />
    <glyph glyph-name="quotesingle" unicode="'" horiz-adv-x="179" 
d="M119 641l17 -11l-24 -198l-39 -11l-13 4l-17 204q49 4 76 12z" />
    <glyph glyph-name="parenleft" unicode="(" horiz-adv-x="334" 
d="M225 704l67 -41q-106 -190 -106 -398q0 -206 106 -403l-68 -43q-129 210 -129 444q0 231 130 441z" />
    <glyph glyph-name="parenright" unicode=")" horiz-adv-x="334" 
d="M40 663l69 41q130 -210 130 -441q0 -234 -129 -444l-70 43q108 197 108 403q0 207 -108 398z" />
    <glyph glyph-name="asterisk" unicode="*" horiz-adv-x="426" 
d="M353 477h-111l-2 -7l94 -51l-55 -69h-30l-32 105h-7l-34 -105h-32l-53 69l95 51l-2 7h-111l-12 26l39 76l88 -72l5 5l-36 106l102 19l17 -20l-44 -105l4 -5l92 72l36 -76z" />
    <glyph glyph-name="plus" unicode="+" horiz-adv-x="448" 
d="M186 436h76v-142h137v-71h-137v-144h-76v144h-137v71h137v142z" />
    <glyph glyph-name="comma" unicode="," horiz-adv-x="250" 
d="M62 -129l-24 20q61 92 61 135q0 29 -36 61q44 67 66 67q17 0 40 -26.5t23 -61.5q0 -73 -112 -195h-18z" />
    <glyph glyph-name="hyphen" unicode="-" horiz-adv-x="276" 
d="M43 262l190 49v-89l-190 -51v91z" />
    <glyph glyph-name="period" unicode="." horiz-adv-x="255" 
d="M127 135h1q14 0 44.5 -26t30.5 -39q0 -15 -31.5 -50t-45.5 -35t-44 26.5t-30 39.5q0 15 31 49.5t44 34.5z" />
    <glyph glyph-name="slash" unicode="/" horiz-adv-x="376" 
d="M315 708l79 -34l-332 -783l-79 34z" />
    <glyph glyph-name="zero" unicode="0" horiz-adv-x="448" 
d="M423 331v-1q0 -156 -60 -250.5t-153 -94.5q-87 0 -136 76t-49 223q0 167 60 260t156 93q87 0 134.5 -78.5t47.5 -227.5zM314 308v1q0 112 -21.5 186t-69.5 74q-89 0 -89 -257q0 -258 89 -258q91 0 91 254z" />
    <glyph glyph-name="one" unicode="1" horiz-adv-x="448" 
d="M58 538v51q144 16 221 47l19 -15q-7 -55 -7 -166v-332q0 -53 3 -67q3 -8 21 -9l53 -7v-45q-76 3 -136 3q-97 0 -149 -3v45l69 7q19 1 23 6t4 70v431z" />
    <glyph glyph-name="two" unicode="2" horiz-adv-x="448" 
d="M58 514l-27 39q92 84 197 84q65 0 102.5 -40t37.5 -114q0 -161 -214 -392l245 -33q2 -16 2 -26q0 -16 -2 -24l-13 -13q-152 7 -211 7q-41 0 -158 -7l-14 30q133 132 194 234t61 202q0 49 -22.5 75t-61.5 26q-57 0 -116 -48z" />
    <glyph glyph-name="three" unicode="3" horiz-adv-x="448" 
d="M84 517l-29 39q93 81 182 81q50 0 86.5 -24.5t36.5 -80.5q0 -102 -130 -164q156 -2 156 -121q0 -104 -83 -183t-176 -79q-43 0 -77 12t-34 29q0 13 12 35.5t27 39.5q48 -35 103 -35q51 0 89 33t38 95q0 113 -124 113q-30 0 -55 -5l-8 14l16 39q59 20 97.5 57.5t38.5 87.5
q0 31 -18 47t-46 16q-43 0 -102 -46z" />
    <glyph glyph-name="four" unicode="4" horiz-adv-x="448" 
d="M249 151h-232v61q40 105 108.5 220t139.5 197h84q-4 -71 -4 -157v-248h74q2 -13 2 -33q0 -22 -2 -31l-12 -9h-62v-28q0 -51 3 -68q3 -6 24 -9l52 -6v-45q-75 3 -129 3q-69 0 -143 -3v45l71 6q21 3 23 9q3 17 3 68v28zM249 224v277q-44 -52 -88.5 -134t-63.5 -143h152z
" />
    <glyph glyph-name="five" unicode="5" horiz-adv-x="448" 
d="M59 359l42 264q144 0 286 12q3 -14 3 -26q0 -15 -2 -25l-12 -13l-197 -27q-22 -48 -39 -134q36 15 81 15q77 0 123 -38.5t46 -118.5q0 -109 -76 -196t-173 -87q-37 0 -70.5 11.5t-33.5 29.5q0 31 36 73q45 -32 93 -32t85.5 36t37.5 114q0 71 -35 104t-91 33
q-45 0 -84 -15z" />
    <glyph glyph-name="six" unicode="6" horiz-adv-x="448" 
d="M289 651l39 -46q-55 -44 -99 -105t-63 -128q56 28 109 28q63 0 101 -38t38 -113q0 -109 -65.5 -186.5t-158.5 -77.5q-70 0 -113 55t-43 151q0 141 71 260t184 200zM308 199v1q0 59 -20 98t-63 39q-40 0 -62.5 -37.5t-22.5 -102.5q0 -69 22 -106t59 -37t62 38.5t25 106.5z
" />
    <glyph glyph-name="seven" unicode="7" horiz-adv-x="448" 
d="M399 629l11 -19q-2 -3 -5 -10.5l-5 -12.5q-115 -257 -151 -356.5t-36 -173.5q0 -31 6 -54q-39 -18 -77 -18q-20 0 -32 20t-12 59q0 56 28 121q55 137 183 356h-266q-3 12 -3 45t2 43h357z" />
    <glyph glyph-name="eight" unicode="8" horiz-adv-x="448" 
d="M396 514v-1q0 -49 -23 -85t-78 -75q59 -33 91 -69.5t32 -92.5q0 -85 -65 -145.5t-157 -60.5q-77 0 -121.5 40.5t-44.5 110.5q0 62 29.5 104t87.5 83q-47 30 -69 62t-22 77q0 72 58 124t137 52q68 0 106.5 -32t38.5 -92zM160 488v-1q0 -36 19.5 -59.5t66.5 -50.5
q51 48 51 109q0 41 -18.5 63.5t-48.5 22.5q-31 0 -50.5 -23t-19.5 -61zM311 154v1q0 50 -31 81.5t-87 61.5q-61 -63 -61 -139q0 -51 24 -80t63 -29q40 0 66 27t26 77z" />
    <glyph glyph-name="nine" unicode="9" horiz-adv-x="448" 
d="M160 -27l-39 48q134 112 165 253q-57 -30 -114 -30q-64 0 -101 37.5t-37 105.5q0 101 67 175.5t156 74.5q71 0 114 -52.5t43 -144.5q0 -139 -69.5 -260.5t-184.5 -206.5zM308 443v1q0 60 -22 92t-59 32q-39 0 -63 -39t-24 -100q0 -58 22.5 -90t60.5 -32t61.5 36.5
t23.5 99.5z" />
    <glyph glyph-name="colon" unicode=":" horiz-adv-x="255" 
d="M127 436h1q14 0 44.5 -26t30.5 -39q0 -15 -31.5 -50t-45.5 -35t-44 26.5t-30 38.5q0 16 31 50.5t44 34.5zM127 135h1q14 0 44.5 -26t30.5 -39q0 -15 -31.5 -50t-45.5 -35t-44 26.5t-30 39.5q0 15 31 49.5t44 34.5z" />
    <glyph glyph-name="semicolon" unicode=";" horiz-adv-x="255" 
d="M124 436h1q14 0 44.5 -26t30.5 -39q0 -14 -31.5 -49t-45.5 -35t-44.5 26.5t-30.5 38.5q0 15 31.5 49.5t44.5 34.5zM62 -129l-24 20q61 92 61 135q0 29 -36 61q44 67 66 67q17 0 40 -26.5t23 -61.5q0 -73 -112 -195h-18z" />
    <glyph glyph-name="less" unicode="&#x3c;" horiz-adv-x="448" 
d="M331 461l40 -52l-197 -147l197 -155l-46 -56l-262 205v8z" />
    <glyph glyph-name="equal" unicode="=" horiz-adv-x="448" 
d="M49 368h350v-69h-350v69zM49 217h350v-70h-350v70z" />
    <glyph glyph-name="greater" unicode="&#x3e;" horiz-adv-x="448" 
d="M117 52l-40 52l197 146l-197 156l47 56l261 -207v-7z" />
    <glyph glyph-name="question" unicode="?" horiz-adv-x="403" 
d="M286 210l-22 -27q-78 56 -190 102v24q166 61 166 142q0 32 -35.5 61.5t-100.5 51.5q16 73 42 73q24 0 69 -24q58 -31 91 -71.5t33 -82.5t-35 -81.5t-88 -66.5zM177 130h1q13 0 43 -25.5t30 -37.5q0 -14 -30.5 -48t-44.5 -34q-13 0 -42.5 25.5t-29.5 37.5q0 15 30 48.5
t43 33.5z" />
    <glyph glyph-name="at" unicode="@" horiz-adv-x="730" 
d="M514 490l-28 -262q0 -4 -1.5 -15.5t-1.5 -16.5q0 -20 43 -20q49 0 76.5 51.5t27.5 133.5q0 108 -65.5 173.5t-175.5 65.5q-122 0 -196 -87t-74 -226q0 -123 69 -193t187 -70q67 0 142 29l15 -43q-80 -33 -168 -33q-150 0 -239 84.5t-89 223.5q0 153 100.5 257t253.5 104
q134 0 220.5 -80t86.5 -200q0 -102 -54.5 -167.5t-143.5 -65.5q-53 0 -82 17l-17 17l19 139h-3q-36 -73 -77.5 -124.5t-75.5 -51.5q-41 0 -41 68q0 28 8.5 74.5t23.5 97.5t41 87.5t56 36.5q32 0 85 -15q8 23 21 23q18 0 57 -12zM316 226h1q21 0 59.5 78t50.5 118
q-35 11 -68 11q-24 0 -38.5 -55.5t-14.5 -127.5q0 -24 10 -24z" />
    <glyph glyph-name="A" unicode="A" horiz-adv-x="609" 
d="M263 630h84l196 -530q14 -36 21 -45.5t23 -10.5l22 -3v-46q-72 5 -129 5t-130 -5v46l74 8q19 1 19 11q0 8 -8 30l-60 160q-57 0 -88 -1q-47 -2 -66.5 -6t-28.5 -14q-17 -19 -44 -100q-20 -56 -20 -66q0 -8 5.5 -10.5t22.5 -3.5l87 -8v-46q-72 5 -131 5q-56 0 -129 -5v46
l56 7q18 46 55 134.5t48 115.5q91 225 121 332zM354 307l-70 189l-68 -183z" />
    <glyph glyph-name="B" unicode="B" horiz-adv-x="565" 
d="M37 576v47q85 8 178 8q157 0 216 -30q27 -13 43 -40.5t16 -59.5q0 -52 -36.5 -89t-104.5 -67q93 -17 134.5 -55.5t41.5 -108.5q0 -86 -67.5 -136t-178.5 -50q-24 0 -64.5 2.5t-58.5 2.5q-49 0 -121 -5v46l52 7q16 2 20 4t4 9q2 32 2 63v456q-28 0 -76 -4zM226 372h12
q137 0 137 110q0 55 -37.5 76.5t-111.5 21.5v-208zM226 321v-182q0 -57 9.5 -72.5t48.5 -15.5q125 0 125 120q0 75 -51 110.5t-132 39.5z" />
    <glyph glyph-name="C" unicode="C" horiz-adv-x="599" 
d="M548 430l-41 -5q-17 63 -39 105q-10 19 -29 26q-19 8 -61 8q-103 0 -163 -68t-60 -184q0 -123 61 -194.5t176 -71.5q77 0 93 34q18 38 36 115l44 -5l-11 -177q-84 -28 -188 -28q-156 0 -243 81t-87 223q0 159 105 249q39 33 85 54t101.5 30t96.5 11.5t106 2.5z" />
    <glyph glyph-name="D" unicode="D" horiz-adv-x="690" 
d="M35 41l52 7q16 2 19.5 4t4.5 9q2 38 2 63v452q-45 2 -76 -1v46q95 11 196 11q46 0 80 -1.5t80.5 -7.5t80 -16.5t69.5 -30t59 -47t37.5 -69t14.5 -93.5q0 -167 -97.5 -269.5t-260.5 -102.5q-24 0 -72 2t-72 2q-39 0 -117 -4v46zM227 576v-440q0 -54 10 -67t54 -13
q117 0 182.5 73.5t65.5 202.5q0 56 -15.5 98.5t-42 69.5t-67 44t-85.5 24t-102 8z" />
    <glyph glyph-name="E" unicode="E" horiz-adv-x="529" 
d="M228 568v-216l91 3q37 0 44 6t11 45h52q-4 -45 -4 -80q0 -46 7 -105l-52 -5q-5 40 -11 59q-4 10 -14.5 13t-35.5 3h-88v-158q0 -46 4 -57q5 -14 16.5 -18t49.5 -4q102 0 116 13q16 13 38 114l47 -7l-16 -179q-91 0 -189 2.5t-127 2.5q-60 0 -132 -5v46l53 7q16 2 19.5 4
t4.5 9q2 38 2 63v376q0 24 -2 62q-1 7 -5 9.5t-19 4.5l-53 6v47q72 -5 152 -5q137 0 267 5l-11 -175h-41q-12 69 -19 89q-4 13 -14.5 17t-46.5 6t-69 2h-25z" />
    <glyph glyph-name="F" unicode="F" horiz-adv-x="484" 
d="M227 568v-230l91 3q39 1 44 5t12 48h50q-4 -70 -4 -83q0 -38 8 -106l-51 -5q-5 45 -12 61t-46 16h-92v-153q0 -44 1 -63q1 -7 5 -9.5t18 -3.5l74 -7v-46q-83 5 -157 5q-68 0 -133 -5v46l52 7q16 2 19.5 4t4.5 9q2 38 2 63v376q0 24 -2 62q-1 7 -5 9.5t-19 4.5l-52 6v47
q66 -5 149 -5q155 0 269 5l-11 -175h-43q-6 53 -17 90q-4 13 -15.5 17t-52.5 6q-38 1 -62 1h-25z" />
    <glyph glyph-name="G" unicode="G" horiz-adv-x="641" 
d="M558 432l-39 -5q-21 79 -43 109q-20 28 -92 28q-105 0 -167 -65t-62 -186q0 -125 61.5 -196t170.5 -71q48 0 64 13q9 7 9 38v49q0 22 -4 34q-3 9 -9.5 13t-23.5 6l-39 4v47q49 -5 115 -5q50 0 115 5v-47l-18 -1q-20 -3 -27 -11q-6 -8 -6 -46v-128q-97 -32 -194 -32
q-159 0 -246 80t-87 224q0 163 107 251q39 32 86 52.5t103.5 29t100.5 11t108 2.5z" />
    <glyph glyph-name="H" unicode="H" horiz-adv-x="754" 
d="M227 364h301v136q0 24 -2 62q-1 7 -5 9.5t-19 4.5l-53 6v47q84 -4 136 -4q54 0 134 4v-47l-52 -6q-15 -2 -19 -4.5t-5 -9.5q-2 -38 -2 -62v-376q0 -25 2 -63q1 -7 4.5 -9t19.5 -4l52 -7v-46q-82 4 -135 4q-55 0 -135 -4v46l53 7q16 2 19.5 4t4.5 9q2 38 2 63v178
q-42 0 -145 -4q-130 -4 -144 -16q-12 -6 -12 -35v-123q0 -44 1 -63q1 -7 4.5 -9t19.5 -4l53 -7v-46q-84 4 -135 4q-55 0 -135 -4v46l52 7q16 2 19.5 4t4.5 9q2 38 2 63v376q0 24 -2 62q-1 7 -5 9.5t-19 4.5l-52 6v47q84 -4 135 -4q55 0 135 4v-47l-53 -6q-15 -2 -19 -4.5
t-5 -9.5q-1 -19 -1 -62v-136z" />
    <glyph glyph-name="I" unicode="I" horiz-adv-x="340" 
d="M305 629v-47l-53 -6q-15 -2 -19 -4.5t-5 -9.5q-1 -19 -1 -62v-376q0 -44 1 -63q1 -7 4.5 -9t19.5 -4l53 -7v-46q-84 4 -135 4q-55 0 -135 -4v46l52 7q16 2 19.5 4t4.5 9q2 38 2 63v376q0 24 -2 62q-1 7 -5 9.5t-19 4.5l-52 6v47q84 -4 135 -4q55 0 135 4z" />
    <glyph glyph-name="J" unicode="J" horiz-adv-x="324" 
d="M24 582v47q80 -5 144 -5q61 0 134 5v-47l-53 -6q-15 -2 -19 -4.5t-5 -9.5q-1 -19 -1 -62v-277q0 -64 -1.5 -100t-8.5 -77t-20 -65.5t-37 -54t-57.5 -54t-83.5 -54.5l-31 42q27 18 45.5 36t32.5 35t23 42t14 46t7.5 58.5t3 68t0.5 85.5v269q0 28 -2 62q-1 5 -3 7.5t-6.5 4
t-14.5 2.5z" />
    <glyph glyph-name="K" unicode="K" horiz-adv-x="633" 
d="M227 500v-376q0 -44 1 -63q1 -7 4.5 -9t19.5 -4l53 -7v-46q-84 4 -135 4q-53 0 -135 -4v46l52 7q16 2 19.5 4t4.5 9q2 38 2 63v376q0 24 -2 62q-1 7 -5 9.5t-19 4.5l-52 6v47q84 -4 135 -4q55 0 135 4v-47l-53 -6q-15 -2 -19 -4.5t-5 -9.5q-1 -19 -1 -62zM227 340
l147 148q44 42 79 87l-60 7v47q55 -5 114 -5q55 0 113 5v-46q-44 -5 -72 -22t-84 -73l-124 -122q65 -100 154 -205t149 -135l-1 -34q-9 -1 -21 -1q-70 0 -128 35q-59 36 -134 126.5t-132 187.5z" />
    <glyph glyph-name="L" unicode="L" horiz-adv-x="512" 
d="M452 181l47 -7l-16 -179q-91 0 -193 2.5t-123 2.5q-63 0 -132 -5v46l53 7q16 2 19.5 4t4.5 9q2 38 2 63v376q0 24 -2 62q-1 7 -5 9.5t-19 4.5l-52 6v47q84 -4 135 -4q74 0 156 4v-47l-74 -6q-15 -1 -19 -3.5t-5 -10.5q-1 -19 -1 -62v-367q0 -46 4 -57q5 -14 17 -18t48 -4
q103 0 117 13q15 11 38 114z" />
    <glyph glyph-name="M" unicode="M" horiz-adv-x="859" 
d="M430 109h3q9 32 64 188l68 197q33 100 41 139q31 -4 62 -6q21 -1 58 -1q49 0 94 3v-47l-44 -5q-20 -3 -26 -7t-6 -16q0 -4 0.5 -12t0.5 -12l26 -410q1 -20 5 -56q3 -16 22 -18l28 -5v-46q-75 5 -132 5q-52 0 -130 -5v46l71 7q19 2 25 6.5t6 16.5q0 15 -1 26l-13 231
q-5 89 -5 195h-4l-122 -354q-37 -106 -55 -174h-100l-102 301q-56 158 -71 227h-3l-22 -420q0 -6 -0.5 -13.5t-0.5 -9.5q0 -18 5 -24t24 -8l73 -7v-46q-72 5 -128 5q-52 0 -122 -5v46l33 5q18 3 22 6q8 7 15 67q17 158 23 228q11 136 11 195q0 21 -5 26t-26 9l-41 5v47
q28 -2 46 -2q17 -1 51 -1q59 0 104 7l74 -212q84 -244 104 -312z" />
    <glyph glyph-name="N" unicode="N" horiz-adv-x="722" 
d="M546 142v330q0 83 -11 93q-5 6 -27 9l-83 8v47q68 -5 134 -5q59 0 134 5v-47l-36 -4q-17 -3 -24 -12q-12 -27 -12 -209v-221q0 -95 2 -141h-99l-198 300q-80 120 -142 224h-4v-308q0 -121 6 -143q3 -10 10 -13t26 -5l77 -9v-46q-77 5 -136 5t-134 -5v46l38 7q28 4 30 21
q8 64 8 203v251q0 35 -4 42t-25 10l-47 7v47q33 -2 101 -2q50 0 98 4l138 -212q84 -129 177 -277h3z" />
    <glyph glyph-name="O" unicode="O" horiz-adv-x="693" 
d="M656 321v-1q0 -149 -93 -242t-243 -93q-130 0 -207 82.5t-77 223.5q0 156 92.5 251t242.5 95q132 0 208.5 -84.5t76.5 -231.5zM542 291v1q0 120 -58 198t-149 78q-85 0 -135.5 -64.5t-50.5 -174.5q0 -122 56.5 -198t146.5 -76q88 0 139 64t51 172z" />
    <glyph glyph-name="P" unicode="P" horiz-adv-x="514" 
d="M225 262v-138q0 -25 2 -63q1 -11 23 -13l81 -7v-46q-88 5 -157 5q-62 0 -139 -5v46l52 7q16 2 19.5 4t4.5 9q2 38 2 63v138q-32 4 -41 6l-4 16l45 55v238q-36 0 -75 -3v49q77 8 175 8q154 0 218 -26q74 -31 74 -114q0 -91 -75.5 -153.5t-204.5 -75.5zM225 578v-247
q166 0 166 130q0 117 -166 117z" />
    <glyph glyph-name="Q" unicode="Q" horiz-adv-x="695" 
d="M749 -105l18 -33q-87 -52 -140 -52q-41 0 -86 21.5t-74.5 45t-90.5 75.5q-20 18 -39 25q-20 7 -49 10q-119 14 -185.5 94t-66.5 211q0 154 92.5 249.5t240.5 95.5q134 0 210.5 -84t76.5 -232q0 -108 -48.5 -188.5t-141.5 -120.5q140 -129 229 -129q27 0 54 12zM542 294v1
q0 121 -57.5 197t-148.5 76q-86 0 -136.5 -65t-50.5 -177q0 -122 56.5 -198t146.5 -76q88 0 139 65.5t51 176.5z" />
    <glyph glyph-name="R" unicode="R" horiz-adv-x="593" 
d="M223 289v-165q0 -25 2 -63q1 -7 4 -9t19 -4l53 -7v-46q-84 4 -134 4q-52 0 -132 -4v46l52 7q16 2 19.5 4t4.5 9q2 38 2 63v453q-1 0 -76 -3v50q77 7 170 7q154 0 218 -24q80 -32 80 -117q0 -101 -108 -174q56 -110 114 -183q52 -66 108 -110l-14 -32h-10
q-68 0 -123.5 45.5t-114.5 137.5q-4 7 -13.5 21.5t-18 28t-14.5 24.5q-15 25 -33.5 33t-47.5 8h-7zM223 578v-242h10q77 0 117.5 33.5t40.5 95.5q0 45 -25 71t-59 34t-84 8z" />
    <glyph glyph-name="S" unicode="S" horiz-adv-x="458" 
d="M385 435h-42q-8 72 -20 102q-16 37 -76 37q-44 0 -70.5 -26t-26.5 -69q0 -25 8.5 -43.5t31.5 -34t37 -22.5t51 -24q37 -16 57 -27.5t43 -31t33 -46.5t10 -63q0 -91 -62.5 -146.5t-164.5 -55.5q-75 0 -159 42l10 181h55q-1 -17 -1 -38q0 -65 23.5 -93t80.5 -28
q50 0 80.5 28t30.5 77q0 46 -28 71t-89 53q-30 14 -40.5 19t-34.5 18t-33.5 23.5t-22.5 27.5t-18 37t-5 45q0 87 63 138t165 51q58 0 124 -17z" />
    <glyph glyph-name="T" unicode="T" horiz-adv-x="552" 
d="M331 569v-445q0 -25 2 -63q1 -7 4.5 -9t19.5 -4l52 -7v-46q-84 4 -135 4q-55 0 -135 -4v46l53 7q16 2 19 4t4 9q2 38 2 63v445h-27q-25 0 -43 -2q-39 -2 -51 -5.5t-16 -15.5q-5 -15 -19 -91h-40l-11 174q114 -5 270 -5q153 0 262 5l-11 -174h-41q-13 72 -19 91
q-3 9 -9 13t-17.5 5.5t-38.5 2.5q-20 2 -45 2h-30z" />
    <glyph glyph-name="U" unicode="U" horiz-adv-x="715" 
d="M489 64h-2q-95 -80 -214 -80q-54 0 -89.5 19t-52 55.5t-22.5 74.5t-6 91v276q0 24 -2 62q-1 7 -5 9.5t-19 4.5l-52 6v47q84 -4 136 -4t134 4v-47l-53 -6q-15 -2 -19 -4.5t-5 -9.5q-2 -38 -2 -62v-261q0 -92 26.5 -136t99.5 -44q37 0 70 15.5t51 43.5q16 24 20 54t4 86
v242q0 24 -2 62q-1 7 -5 9.5t-19 4.5l-51 6v47q84 -4 134 -4q55 0 135 4v-47l-53 -6q-15 -2 -18.5 -4.5t-4.5 -9.5q-2 -38 -2 -62v-376q0 -25 2 -63q1 -7 4 -9t19 -4l53 -7v-46q-38 2 -49 2q-74 0 -141 -9v76z" />
    <glyph glyph-name="V" unicode="V" horiz-adv-x="624" 
d="M328 121l119 320q35 98 35 115q0 8 -5 10.5t-20 4.5l-86 11v47q83 -5 140 -5q52 0 124 5v-47l-62 -8q-13 -37 -54 -141.5t-48 -123.5q-82 -211 -112 -314h-99l-188 509q-19 50 -27.5 63t-24.5 14l-20 1v47q78 -5 133 -5q49 0 131 5v-47l-68 -9q-6 -1 -9.5 -1.5t-6.5 -1
t-4 -2l-2 -3t-1 -4.5q0 -11 10 -38l37 -100q79 -211 104 -302h4z" />
    <glyph glyph-name="W" unicode="W" horiz-adv-x="917" 
d="M458 473h-4q-16 -71 -59 -202l-24 -77q-39 -119 -62 -199h-98l-137 502q-14 49 -22.5 65t-26.5 17l-25 3v47q62 -5 131 -5t130 5v-47l-67 -8q-10 -2 -14 -3t-6.5 -3.5t-2.5 -7.5q0 -9 7 -37l27 -104q59 -225 73 -298h4l91 302q37 119 49 206h91l59 -210q64 -224 80 -298
h4l100 348q20 68 20 86q0 9 -4.5 11.5t-18.5 4.5l-83 11v47q77 -5 128 -5q53 0 130 5v-47l-62 -8q-2 -9 -82 -264q-65 -203 -96 -315h-99l-71 247q-46 156 -60 231z" />
    <glyph glyph-name="X" unicode="X" horiz-adv-x="621" 
d="M330 390l97 137q17 24 17 35q0 10 -19 12l-57 8v47q51 -5 115 -5q50 0 118 5v-47l-53 -10q-16 -22 -47 -62.5t-44 -58.5q-16 -21 -45 -61.5t-42 -57.5l173 -249q15 -21 25.5 -29t29.5 -10l21 -3v-46q-75 5 -134 5q-57 0 -134 -5v46l59 5q15 2 15 9q0 6 -13 26l-118 172
l-118 -163q-17 -23 -17 -33q0 -9 19 -10l71 -6v-46q-75 5 -125 5q-55 0 -130 -5v46l60 9q41 54 99 128q53 69 101 135l-159 228q-22 33 -44 38l-18 3v47q80 -5 136 -5q43 0 126 5v-47l-65 -8q-15 -1 -15 -10q0 -5 10 -19z" />
    <glyph glyph-name="Y" unicode="Y" horiz-adv-x="543" 
d="M293 340l69 122q45 79 45 101q0 13 -21 14l-54 5v47q68 -5 116 -5q42 0 110 5v-47l-60 -8q-23 -43 -87 -155q-25 -43 -87 -154v-141q0 -44 1 -63q1 -7 4.5 -9t19.5 -4l53 -7v-46q-82 4 -135 4q-57 0 -135 -4v46l53 7q16 2 19.5 4t4.5 9q2 38 2 63v140l-151 274
q-14 25 -22 32.5t-25 9.5l-19 2v47q72 -5 124 -5q55 0 123 5v-47l-42 -4q-23 -2 -23 -16q0 -11 17 -43l22 -38q12 -21 76 -141h2z" />
    <glyph glyph-name="Z" unicode="Z" horiz-adv-x="546" 
d="M92 452h-40l-10 177q135 -5 231 -5q92 0 219 5l17 -39l-342 -531h162q72 0 100 6q13 3 22 16q15 26 34 100l43 -7l-15 -179q-76 0 -185.5 2t-154.5 2q-68 0 -133 -4l-19 35l347 537h-129q-68 0 -89 -2t-30 -11q-15 -14 -28 -102z" />
    <glyph glyph-name="bracketleft" unicode="[" horiz-adv-x="298" 
d="M91 687h174v-57h-80v-734h80v-60h-174v851z" />
    <glyph glyph-name="backslash" unicode="\" horiz-adv-x="376" 
d="M61 708l333 -783l-80 -34l-331 783z" />
    <glyph glyph-name="bracketright" unicode="]" horiz-adv-x="298" 
d="M207 687v-851h-174v60h81v734h-81v57h174z" />
    <glyph glyph-name="asciicircum" unicode="^" horiz-adv-x="475" 
d="M16 336l213 301h16l213 -294l-64 -42l-161 227l-161 -229z" />
    <glyph glyph-name="underscore" unicode="_" horiz-adv-x="500" 
d="M0 -75h500v-60h-500v60z" />
    <glyph glyph-name="grave" unicode="`" horiz-adv-x="385" 
d="M98 599l46 70q72 -44 126 -138l-42 -35q-58 66 -130 103z" />
    <glyph glyph-name="a" unicode="a" horiz-adv-x="413" 
d="M69 338l-24 39q112 76 193 76q57 0 78.5 -32.5t21.5 -98.5q0 -23 -1.5 -69.5t-1.5 -69.5q0 -85 10 -126l71 -11l1 -31l-159 -31q-12 19 -15 50l-4 2q-66 -51 -127 -51q-49 0 -73.5 39t-24.5 91q0 29 26 49q68 52 202 92v27q0 51 -14 72t-50 21q-46 0 -109 -38zM242 153
v38q-121 -12 -121 -83q0 -53 46 -53q75 0 75 98z" />
    <glyph glyph-name="b" unicode="b" horiz-adv-x="473" 
d="M156 719v-319q89 53 156 53q131 0 131 -191q0 -134 -55 -205.5t-157 -71.5q-55 0 -103 34l-54 -48l-24 12v428q0 165 -20 288q49 9 107 35zM246 379h-1q-49 0 -71 -34q-18 -25 -18 -96v-167q31 -35 71 -35q106 0 106 184q0 148 -87 148z" />
    <glyph glyph-name="c" unicode="c" horiz-adv-x="368" 
d="M343 90l19 -35q-53 -39 -88.5 -54.5t-75.5 -15.5q-76 0 -122 52.5t-46 146.5q0 110 66 189.5t153 79.5q41 0 66.5 -12.5t25.5 -31.5q0 -28 -24 -70q-40 25 -88 25q-50 0 -77.5 -33.5t-27.5 -98.5q0 -82 34.5 -123t97.5 -41q36 0 87 22z" />
    <glyph glyph-name="d" unicode="d" horiz-adv-x="494" 
d="M418 718v-506q0 -116 10 -155l70 -11l1 -31l-169 -31q-13 23 -16 50l-4 2q-84 -51 -152 -51q-62 0 -95 50t-33 145q0 117 55 195t138 78q39 0 88 -20v17q0 132 -20 249q52 9 105 35zM224 59h1q46 0 68 31q18 24 18 94v174q-39 21 -79 21q-44 0 -68 -42t-24 -124
q0 -80 20.5 -117t63.5 -37z" />
    <glyph glyph-name="e" unicode="e" horiz-adv-x="418" 
d="M379 104l22 -34q-58 -46 -102 -65.5t-91 -19.5q-80 0 -129 61t-49 163q0 110 56 177t147 67q71 0 112.5 -41.5t41.5 -112.5q0 -26 -5 -55h-251v-16q2 -157 134 -157q54 0 114 33zM135 296l143 12q1 7 1 18q0 30 -17 48.5t-44 18.5q-68 0 -83 -97z" />
    <glyph glyph-name="f" unicode="f" horiz-adv-x="290" 
d="M297 380l-106 9v-268q0 -25 2 -63q1 -7 5 -9t19 -4l63 -7v-43q-62 3 -136 3q-69 0 -123 -3v43l37 7q16 2 20 4.5t5 9.5q2 42 2 62v269l-64 4v41l64 5q14 109 56 185q20 40 51 74.5t63 34.5q25 0 54.5 -11t29.5 -30q0 -27 -25 -70q-39 16 -63 16q-21 0 -33 -10t-18 -35
t-7.5 -51t-1.5 -74v-23l106 7v-73z" />
    <glyph glyph-name="g" unicode="g" horiz-adv-x="431" 
d="M298 439l108 69q26 -30 32 -77l-88 -25q36 -36 36 -93q0 -78 -58 -124t-146 -46q-38 -31 -38 -54q0 -8 9 -10.5t41 -2.5q60 0 97 -3t75.5 -12.5t57 -31t18.5 -55.5q0 -76 -81.5 -143t-194.5 -67q-73 0 -111 30.5t-38 77.5q0 49 90 119l-2 4q-35 0 -61 12l-13 33
q11 24 40 57t58 54q-95 27 -95 132q0 75 54 122.5t141 47.5q43 0 69 -14zM281 289v1q0 48 -20.5 76t-54.5 28q-33 0 -51 -23t-18 -64q0 -47 21.5 -76t55.5 -29q33 0 50 23t17 64zM200 -9h-1q-27 0 -54 -28.5t-27 -66.5q0 -31 21.5 -50t62.5 -19q58 0 99 34t41 75
q0 15 -7.5 26t-18.5 16.5t-32 8.5t-37.5 3.5t-46.5 0.5z" />
    <glyph glyph-name="h" unicode="h" horiz-adv-x="527" 
d="M185 719v-318q96 52 159 52t84.5 -40t21.5 -123v-169q0 -25 2 -63q1 -7 4.5 -9t19.5 -4l38 -7v-43q-63 3 -117 3t-114 -3v43l35 7q3 1 7 1q15 3 16 8q1 2 1 4q2 38 2 63v139q0 68 -16.5 94t-57.5 26q-49 0 -70 -38q-15 -26 -15 -83v-138q0 -25 2 -63q1 -7 3.5 -8.5
t19.5 -4.5l36 -7v-43q-63 3 -115 3q-57 0 -116 -3v43l38 7q16 2 19.5 4t4.5 9q2 38 2 63v290q0 159 -21 288q56 10 107 35z" />
    <glyph glyph-name="i" unicode="i" horiz-adv-x="265" 
d="M177 692l16 -16l-33 -148l-55 -17l-42 148zM167 456l26 -14q-4 -41 -4 -125v-198q0 -25 2 -63q1 -7 4 -9t19 -4l39 -7v-41q-63 3 -117 3q-57 0 -117 -3v41l39 7q16 2 19 4t4 9q2 38 2 63v114q0 74 -5 131l-58 12v30q80 14 147 50z" />
    <glyph glyph-name="j" unicode="j" horiz-adv-x="250" 
d="M171 692l16 -16l-33 -148l-55 -17l-42 148zM162 456l25 -14q-3 -34 -3 -137v-178q0 -152 -30 -209q-21 -41 -57.5 -72t-104.5 -74l-28 36q64 48 89 102t25 198v123q0 67 -6 131l-57 12v32q89 17 147 50z" />
    <glyph glyph-name="k" unicode="k" horiz-adv-x="493" 
d="M185 719v-598q0 -25 2 -63q1 -7 4 -9t19 -4l38 -7v-43q-63 3 -117 3q-56 0 -116 -3v43l38 7q16 2 19.5 4t4.5 9q1 19 1 63v290q0 161 -19 288q51 10 106 35zM292 266l110 -136q55 -72 118 -97v-38h-86q-33 0 -49.5 8.5t-36.5 35.5l-163 199l84 83q42 40 55 68l-46 12v43
q35 -2 99 -2t97 2v-42q-37 -8 -62.5 -25.5t-57.5 -49.5z" />
    <glyph glyph-name="l" unicode="l" horiz-adv-x="263" 
d="M185 719v-598q0 -25 2 -63q1 -7 4 -9t19 -4l38 -7v-43q-63 3 -118 3t-115 -3v43l38 7q16 2 19.5 4t4.5 9q1 19 1 63v290q0 171 -19 288q52 10 105 35z" />
    <glyph glyph-name="m" unicode="m" horiz-adv-x="774" 
d="M433 394h1q84 59 160 59q29 0 49 -11.5t30 -26.5t15.5 -41.5t6.5 -45t1 -48.5v-159q0 -25 2 -63q1 -7 4.5 -9t19.5 -4l38 -7v-43q-63 3 -116 3t-113 -3v43l34 6q16 3 19 5t4 9q2 38 2 63v135q0 29 -1.5 44.5t-7 37t-20 31.5t-38.5 10q-41 0 -62 -29q-21 -27 -21 -102
v-127q0 -25 2 -63q1 -7 4.5 -9t19.5 -5l33 -6v-43q-63 3 -109 3q-50 0 -110 -3v43l34 6q16 3 19 5t4 9q2 38 2 63v137q0 62 -13.5 91.5t-53.5 29.5q-48 0 -68 -37q-15 -30 -15 -88v-133q0 -25 2 -63q1 -7 4 -9t19 -5l35 -6v-43q-63 3 -113 3q-57 0 -117 -3v43l39 7
q16 2 19 4t4 9q2 38 2 63v239l-63 14v31q73 13 145 53l23 -13v-44l3 -2q83 54 150 54q63 0 92 -59z" />
    <glyph glyph-name="n" unicode="n" horiz-adv-x="531" 
d="M166 458l22 -12v-45l3 -1q84 53 157 53q63 0 85 -40.5t22 -122.5v-169q0 -25 2 -63q1 -7 4 -9t19 -4l38 -7v-43q-63 3 -117 3t-114 -3v43l35 7q3 1 7 1q15 3 16 8q1 2 1 4q2 38 2 63v144q0 63 -16 88.5t-57 25.5q-49 0 -70 -36q-16 -27 -16 -85v-137q0 -25 2 -63
q1 -7 3.5 -8.5t19.5 -4.5l36 -7v-43q-63 3 -114 3q-57 0 -117 -3v43l39 7q16 2 19 4t4 9q2 38 2 63v239l-63 14v32q78 15 146 52z" />
    <glyph glyph-name="o" unicode="o" horiz-adv-x="481" 
d="M451 237l-1 -1q0 -119 -56 -185t-165 -66q-96 0 -147.5 55t-51.5 158q0 121 58.5 188.5t163.5 67.5q96 0 147.5 -56t51.5 -161zM340 218v1q0 81 -26.5 129.5t-72.5 48.5q-49 0 -75 -45t-26 -131q0 -84 27 -131.5t76 -47.5q97 0 97 176z" />
    <glyph glyph-name="p" unicode="p" horiz-adv-x="495" 
d="M155 458l22 -12v-44l4 -2q77 53 152 53q131 0 131 -194q0 -130 -55 -202t-155 -72q-38 0 -76 15v-81q0 -28 2 -52q2 -11 12 -11q7 0 15 2q3 0 15.5 1.5l25 3t20.5 1.5v-52q-140 -10 -244 -57l-19 46q10 6 43 19q19 9 20 11q4 7 4 68v461l-63 14v32q72 12 146 52zM267 379
h-1q-48 0 -71 -36q-17 -22 -17 -95v-170q32 -33 71 -33q105 0 105 186q0 148 -87 148z" />
    <glyph glyph-name="q" unicode="q" horiz-adv-x="477" 
d="M406 465l22 -16q-9 -70 -9 -185v-329q0 -49 1 -62q1 -11 13 -11q1 0 5.5 0.5t6.5 0.5q3 0 16 1t20 1v-53q-140 -11 -244 -57l-21 51q11 5 40.5 16t34.5 13q15 6 17 9q4 10 4 69v124q-84 -52 -153 -52q-62 0 -95.5 51t-33.5 144q0 117 56 195t139 78q35 0 89 -21
q51 10 92 33zM226 59h1q45 0 67 33q18 25 18 120v142q-43 25 -80 25q-44 0 -68 -43t-24 -123q0 -154 86 -154z" />
    <glyph glyph-name="r" unicode="r" horiz-adv-x="347" 
d="M163 458l21 -12l2 -94l5 -1q46 102 89 102q35 0 68 -15q17 -8 17 -23q0 -23 -26 -70q-28 14 -63 14q-32 0 -53.5 -24t-28.5 -64q-5 -24 -5 -77v-73q0 -25 2 -63q1 -7 4.5 -9t18.5 -4l66 -7v-43q-47 3 -136 3q-79 0 -125 -3v43l39 7q16 2 19 4t4 9q2 38 2 63v239l-63 14
v32q78 14 143 52z" />
    <glyph glyph-name="s" unicode="s" horiz-adv-x="332" 
d="M290 416v-1q0 -16 -27 -68q-60 27 -99 27q-20 0 -32 -10.5t-12 -27.5q0 -18 17 -32.5t66 -37.5q62 -29 83 -49.5t21 -54.5q0 -45 -42 -95q-61 -82 -124 -82q-47 0 -102 30q-24 13 -24 29q0 20 39 63q63 -38 106 -38q24 0 39.5 13.5t15.5 35.5q0 21 -18 36t-68 39
q-55 26 -76.5 47t-21.5 56q0 42 44 95q54 62 111 62q42 0 85 -16q19 -8 19 -21z" />
    <glyph glyph-name="t" unicode="t" horiz-adv-x="304" 
d="M293 453v-72l-124 8v-210q0 -72 13 -97t51 -25q28 0 67 7l11 -32q-97 -47 -152 -47q-44 0 -68 31q-15 21 -20 53t-5 94v229l-44 3v40l44 4v100q47 16 87 50l23 -14q-7 -59 -7 -131z" />
    <glyph glyph-name="u" unicode="u" horiz-adv-x="507" 
d="M431 447v-268q0 -91 9 -122l71 -11l1 -31l-168 -31q-12 17 -16 50l-5 2q-85 -51 -149 -51q-56 0 -80 37.5t-24 124.5v168v62q-1 7 -4.5 9t-19.5 5l-39 6v43l169 7v-271q0 -67 14 -92t51 -25q49 0 70 35q14 23 14 81v140q0 47 -1 62q-1 7 -4 9t-20 5l-39 6v43z" />
    <glyph glyph-name="v" unicode="v" horiz-adv-x="450" 
d="M237 107h4q10 26 33.5 87t29.5 76q33 84 33 105q0 8 -4 11.5t-18 6.5l-39 8v43q48 -3 96 -3q46 0 92 3v-43l-43 -7q-28 -75 -75 -185q-53 -126 -84 -216h-86l-134 366q-9 23 -14.5 30t-18.5 9l-17 3v43q48 -3 109 -3q45 0 107 3v-43l-40 -8q-13 -3 -17 -6.5t-4 -10.5
q0 -6 6 -22l28 -80q30 -83 56 -167z" />
    <glyph glyph-name="w" unicode="w" horiz-adv-x="676" 
d="M341 316h-4q-13 -43 -41 -127l-19 -53q-30 -84 -44 -143h-89l-98 360q-7 25 -13 33.5t-20 10.5l-18 4v43q54 -3 111 -3q59 0 116 3v-43l-45 -8q-27 -4 -27 -19q0 -14 6 -38l14 -59q34 -147 38 -166h4q11 36 35 107t26 78q34 104 40 148h87l45 -167q26 -98 42 -166h4
q24 83 56 185q17 61 17 79q0 15 -22 19l-42 7v43q50 -3 99 -3q40 0 88 3v-43l-39 -7q-32 -100 -64 -186q-51 -154 -69 -215h-88l-52 187q-24 91 -34 136z" />
    <glyph glyph-name="x" unicode="x" horiz-adv-x="452" 
d="M227 444v-43l-30 -6q-14 -3 -14 -12q0 -6 13 -26l45 -66l35 48q23 31 23 44q0 10 -16 13l-27 5v43q51 -3 96 -3q40 0 86 3v-43l-52 -15q-12 -16 -32.5 -43.5t-23.5 -30.5q-27 -33 -54 -71l100 -146q32 -47 63 -53l22 -4v-43q-57 3 -117 3t-122 -3v43l38 5q15 1 15 12
q0 7 -9 20l-62 92l-56 -76q-19 -26 -19 -35q0 -12 17 -13l37 -5v-43q-58 3 -101 3q-40 0 -91 -3v43l49 11q12 16 33.5 43.5t28.5 37.5q47 59 67 87l-100 144q-13 20 -20.5 26.5t-23.5 10.5l-14 3v43q58 -3 106 -3q53 0 110 3z" />
    <glyph glyph-name="y" unicode="y" horiz-adv-x="446" 
d="M239 111l64 159q33 82 33 106q0 12 -22 17l-38 8l-1 43q50 -3 95 -3q40 0 93 3v-43l-43 -7q-33 -89 -71 -174q-58 -136 -129 -318q-38 -100 -52 -123q-14 -21 -37 -21q-30 0 -73 44q75 74 124 179l-141 378q-13 35 -33 39l-17 3v43q60 -3 109 -3q50 0 109 3v-43l-41 -8
q-22 -5 -22 -16q0 -10 6 -25l19 -56q29 -76 65 -185h3z" />
    <glyph glyph-name="z" unicode="z" horiz-adv-x="390" 
d="M83 278h-51v166q108 -4 154 -4q54 0 172 4l14 -19l-219 -373h37q93 0 106 10q18 16 19 99h49v-166q-73 4 -176 4q-87 0 -158 -4l-12 20l218 371h-63q-44 0 -58 -3t-19 -12q-13 -22 -13 -93z" />
    <glyph glyph-name="braceleft" unicode="{" horiz-adv-x="338" 
d="M44 254v24q47 14 66 40t19 70q0 29 -3 50l-8 82q-3 48 -3 52q0 66 30.5 96.5t113.5 30.5q21 0 75 -6v-32q-64 0 -91.5 -22.5t-27.5 -77.5q0 -31 2 -47l9 -79q4 -34 4 -47q0 -91 -103 -121q61 -19 82.5 -49.5t21.5 -75.5q0 -21 -4 -49l-9 -89q-3 -28 -3 -51q0 -58 29 -79
t90 -21v-32q-34 -5 -74 -5q-83 0 -114.5 30t-31.5 94q0 11 4 55l8 93q3 42 3 51q0 90 -85 115z" />
    <glyph glyph-name="bar" unicode="|" horiz-adv-x="329" 
d="M122 750h85v-1000h-85v1000z" />
    <glyph glyph-name="braceright" unicode="}" horiz-adv-x="338" 
d="M294 278v-24q-85 -25 -85 -115q0 -30 3 -51l8 -93q3 -33 3 -55q0 -64 -31.5 -94t-114.5 -30q-39 0 -74 5v32q62 0 91 21t29 79q0 23 -3 51l-10 89q-4 28 -4 49q0 45 21.5 75.5t83.5 49.5q-104 30 -104 121q0 13 4 47l9 79q3 24 3 47q0 55 -27.5 77.5t-92.5 22.5v32
q42 6 76 6q82 0 113 -30.5t31 -96.5q0 -4 -3 -52l-9 -81q-3 -45 -3 -51q0 -43 19.5 -69t66.5 -41z" />
    <glyph glyph-name="asciitilde" unicode="~" horiz-adv-x="486" 
d="M431 320l26 -18q-62 -106 -140 -106q-27 0 -103 29q-46 17 -75 17q-28 0 -46 -11.5t-39 -36.5l-25 19q68 106 142 106q20 0 90 -24q60 -21 83 -21q46 0 87 46z" />
    <glyph glyph-name="uni00A0" unicode="&#xa0;" horiz-adv-x="172" 
 />
    <glyph glyph-name="exclamdown" unicode="&#xa1;" horiz-adv-x="286" 
d="M142 308h-1q-13 0 -43 26t-30 38q0 14 30.5 47.5t44.5 33.5q13 0 42.5 -25.5t29.5 -37.5q0 -15 -30 -48.5t-43 -33.5zM99 -195l-16 15l29 403l59 19l40 -406z" />
    <glyph glyph-name="cent" unicode="&#xa2;" horiz-adv-x="448" 
d="M261 632l52 -6l-9 -97q70 -6 70 -37q0 -22 -20 -67q-32 14 -60 19l-28 -275q5 0 11 -0.5t9 -0.5q37 0 88 25l20 -35q-70 -57 -136 -66l-13 -113l-53 5l10 108q-66 18 -96 63t-30 122q0 95 49 163.5t125 86.5zM215 188l25 256q-74 -14 -74 -127q0 -92 49 -129z" />
    <glyph glyph-name="sterling" unicode="&#xa3;" horiz-adv-x="448" 
d="M371 353v-54h-120q13 -35 13 -72q0 -88 -99 -147q54 -2 106 -2q68 0 146 2l11 -21q-7 -37 -21 -64q-78 0 -167 2.5t-119 2.5q-37 0 -87 -5l-16 19q13 39 32 67q115 24 115 119q0 41 -29 99h-80v54h56q-14 40 -14 69q0 62 57 134q67 82 109 82q22 0 62 -16
q25 -10 33.5 -19t8.5 -21q0 -24 -29 -67q-46 27 -82 27q-29 0 -47.5 -19t-18.5 -53q0 -50 36 -117h144z" />
    <glyph glyph-name="currency" unicode="&#xa4;" horiz-adv-x="448" 
d="M96 405l-47 48l40 39l48 -47q38 29 87 29q48 0 87 -29l49 49l41 -40l-50 -49q29 -37 29 -87q0 -48 -29 -87l49 -49l-41 -40l-48 48q-41 -29 -87 -29q-48 0 -87 30l-49 -49l-41 40l49 48q-28 38 -28 88q0 45 28 87zM137 317v-1q0 -36 25.5 -62.5t60.5 -26.5q36 0 62 27
t26 64t-25.5 63.5t-61.5 26.5q-35 0 -61 -27t-26 -64z" />
    <glyph glyph-name="yen" unicode="&#xa5;" horiz-adv-x="448" 
d="M237 357l55 110q42 83 42 98q0 13 -21 14l-49 5v45q60 -5 115 -5q27 0 97 5v-45l-49 -9q-9 -17 -37.5 -68t-41.5 -74q-24 -41 -44 -79h103v-54h-132l-7 -17v-46h139v-55h-139v-59q0 -25 2 -63q1 -7 4.5 -9t18.5 -4l53 -7v-45q-82 4 -131 4q-50 0 -128 -4v45l52 7l12 1.5
t6.5 2t3.5 3.5t1 6q2 38 2 63v59h-134v54h134v47l-8 16h-126v54h99l-94 187q-12 24 -20.5 31.5t-25.5 9.5l-18 3l-1 45q70 -5 120 -5q7 0 110 5v-45l-37 -4q-24 -3 -24 -15q0 -11 12 -33z" />
    <glyph glyph-name="brokenbar" unicode="&#xa6;" horiz-adv-x="329" 
d="M207 675v-350h-85v350h85zM207 175v-350h-85v350h85z" />
    <glyph glyph-name="section" unicode="&#xa7;" horiz-adv-x="437" 
d="M375 571v-1q0 -26 -58 -69q-49 72 -103 72q-27 0 -42.5 -15t-15.5 -39q0 -28 22.5 -49t86.5 -61q74 -46 109 -84t35 -92q0 -44 -22 -77t-75 -68q59 -47 59 -113q0 -68 -50 -111t-129 -43q-63 0 -106.5 36t-43.5 82q0 37 76 52q28 -109 97 -109q27 0 45 17.5t18 44.5
q0 30 -23 57t-97 78q-69 46 -99.5 81t-30.5 83q0 44 24 76.5t80 62.5q-66 49 -66 111t51.5 103t131.5 41q75 0 115 -43q11 -11 11 -23zM319 197v1q0 24 -8.5 43.5t-34.5 42t-43 34t-66 43.5q-49 -34 -49 -81q0 -10 1.5 -19.5t6.5 -19t9.5 -16.5t15 -16.5t17.5 -16t22.5 -18
t25 -18t30.5 -21t33 -23.5q40 40 40 85z" />
    <glyph glyph-name="dieresis" unicode="&#xa8;" horiz-adv-x="411" 
d="M121 621h1q11 0 36 -20t25 -32t-24.5 -40t-35.5 -28q-12 0 -37 20t-25 32q0 13 24 40.5t36 27.5zM288 621h1q11 0 36.5 -20.5t25.5 -31.5q0 -12 -24.5 -40t-35.5 -28q-12 0 -37 20t-25 32q0 13 23.5 40.5t35.5 27.5z" />
    <glyph glyph-name="copyright" unicode="&#xa9;" horiz-adv-x="728" 
d="M694 311v-1q0 -139 -94 -233t-235 -94q-147 0 -238.5 92t-91.5 236q0 142 94 235.5t235 93.5q148 0 239 -90t91 -239zM641 311v1q0 124 -77 203t-199 79q-124 0 -200.5 -79t-76.5 -205q0 -123 77.5 -202.5t199.5 -79.5t199 79.5t77 203.5zM494 363l-35 -5q-15 54 -26 73
q-9 16 -47 16q-58 0 -91 -35.5t-33 -98.5q0 -67 34.5 -104t99.5 -37q42 0 48 13q7 15 22 71l38 -4l-7 -110q-52 -17 -116 -17q-94 0 -146 46t-52 129q0 91 63 143q44 36 99.5 46.5t136.5 10.5z" />
    <glyph glyph-name="ordfeminine" unicode="&#xaa;" horiz-adv-x="315" 
d="M260 386l50 -7l1 -24l-120 -22q-9 17 -12 33h-3q-46 -31 -86 -31q-35 0 -54 25t-19 59q0 20 20 35q49 34 141 58v16q0 30 -9 42t-32 12q-29 0 -78 -25l-18 31q78 49 139 49q42 0 58.5 -22t16.5 -65q0 -14 -0.5 -43.5t-0.5 -44.5q0 -48 6 -76zM178 444v22q-76 -9 -76 -51
q0 -30 28 -30q48 0 48 59z" />
    <glyph glyph-name="guillemotleft" unicode="&#xab;" horiz-adv-x="417" 
d="M148 387l57 -50l-97 -112l97 -111l-58 -50l-135 161zM334 387l57 -50l-96 -112l96 -111l-58 -50l-135 161z" />
    <glyph glyph-name="logicalnot" unicode="&#xac;" horiz-adv-x="448" 
d="M322 147v160h-269v62h343v-222h-74z" />
    <glyph glyph-name="uni00AD" unicode="&#xad;" horiz-adv-x="276" 
d="M43 262l190 49v-89l-190 -51v91z" />
    <glyph glyph-name="registered" unicode="&#xae;" horiz-adv-x="364" 
d="M321 499v-1q0 -61 -39 -99t-98 -38q-64 0 -102.5 37.5t-38.5 100.5q0 62 39 100.5t101 38.5q63 0 100.5 -37.5t37.5 -101.5zM289 499v1q0 49 -29 79t-77 30q-49 0 -78 -30t-29 -80q0 -48 29.5 -78.5t77.5 -30.5q49 0 77.5 29.5t28.5 79.5zM257 430h-8q-31 0 -58 39
q-4 5 -10 14q-5 9 -12 9v-28v-11q0 -3 4 -3l13 -3l-1 -16q-10 1 -34 1q-28 0 -39 -1v16l13 3q4 0 4 3v11v86q-10 0 -16 -1v18q19 4 53 4q40 0 54 -7q18 -8 18 -26q0 -22 -23 -38q18 -35 46 -58zM169 551v-41q29 0 29 22q0 19 -29 19z" />
    <glyph glyph-name="macron" unicode="&#xaf;" horiz-adv-x="442" 
d="M123 610l228 -1l7 -16l-36 -54h-230l-8 14z" />
    <glyph glyph-name="degree" unicode="&#xb0;" horiz-adv-x="385" 
d="M193 637h1q55 0 94 -38.5t39 -93.5t-39.5 -94.5t-94.5 -39.5q-56 0 -94.5 39t-38.5 95q0 55 38.5 93.5t94.5 38.5zM193 572h-1q-27 0 -44 -18.5t-17 -48.5t17 -49.5t45 -19.5t45.5 19.5t17.5 49.5t-17.5 48.5t-45.5 18.5z" />
    <glyph glyph-name="plusminus" unicode="&#xb1;" horiz-adv-x="448" 
d="M186 458h76v-136h137v-71h-137v-137h-76v137h-137v71h137v136zM49 63h351v-71h-351v71z" />
    <glyph glyph-name="two.superior" unicode="&#xb2;" 
d="M49 676l-22 32q64 50 135 50q45 0 71.5 -24.5t26.5 -69.5q0 -90 -137 -225l156 -18q4 -22 0 -36l-11 -11q-90 4 -141 4q-34 0 -106 -4l-13 25q89 80 128 139.5t39 114.5q0 26 -13.5 39.5t-36.5 13.5q-33 0 -76 -30z" />
    <glyph glyph-name="three.superior" unicode="&#xb3;" 
d="M65 676l-24 33q62 48 124 48q35 0 61 -15t26 -50q0 -52 -71 -92q39 -1 63.5 -18.5t24.5 -53.5q0 -63 -56.5 -110.5t-119.5 -47.5q-30 0 -53.5 8.5t-23.5 20.5q0 20 28 51q22 -15 35 -19q17 -6 35 -6q31 0 53.5 18.5t22.5 52.5q0 61 -69 61q-19 0 -38 -4l-10 14l12 27
q82 25 82 78q0 34 -35 34q-27 0 -67 -30z" />
    <glyph glyph-name="acute" unicode="&#xb4;" horiz-adv-x="424" 
d="M242 673l58 -52q-64 -74 -171 -124l-30 50q76 45 143 126z" />
    <glyph glyph-name="mu" unicode="&#xb5;" horiz-adv-x="501" 
d="M502 46l1 -32l-166 -30q-12 19 -16 50l-5 1q-85 -51 -149 -51q-21 0 -39 8q0 -75 9 -169l-92 -31l-20 16q42 198 42 340v66q0 81 -21 210q42 7 103 34l21 -14v-270q0 -67 13.5 -91.5t50.5 -24.5q46 0 69 36q17 27 17 81v39q0 81 -21 210q44 8 102 35l20 -15v-265
q0 -83 11 -122z" />
    <glyph glyph-name="paragraph" unicode="&#xb6;" horiz-adv-x="501" 
d="M274 -210l-7 15q28 45 48 137t20 182v14q-61 0 -104.5 4.5t-86.5 19t-69 40.5t-42 70.5t-16 106.5q0 76 24 127t70 77t98.5 36t125.5 10v37l60 23v-60h74l7 -13l-20 -32h-61v-460q0 -225 -12 -275q-11 -45 -44 -54q-17 -5 -65 -5zM335 188v395q-52 -1 -78 -34.5
t-26 -113.5v-77q0 -97 24 -132.5t80 -37.5z" />
    <glyph glyph-name="periodcentered" unicode="&#xb7;" horiz-adv-x="291" 
d="M145 335h1q15 0 47.5 -28.5t32.5 -41.5q0 -15 -33.5 -52t-48.5 -37q-14 0 -46.5 28.5t-32.5 41.5q0 16 33 52.5t47 36.5z" />
    <glyph glyph-name="cedilla" unicode="&#xb8;" horiz-adv-x="381" 
d="M115 -202l16 52q18 -9 35 -9q29 0 29 24q0 32 -41 59q37 35 62 35q21 0 38.5 -23.5t17.5 -51.5q0 -37 -37 -63t-88 -26q-11 0 -32 3z" />
    <glyph glyph-name="one.superior" unicode="&#xb9;" 
d="M35 692v41q98 9 150 28l18 -12q-6 -38 -6 -100v-194q0 -24 2 -36q1 -1 11 -3l39 -5v-37q-31 2 -96 2q-69 0 -101 -2v36l49 5q9 1 10 2q2 2 2 38v247z" />
    <glyph glyph-name="ordmasculine" unicode="&#xba;" horiz-adv-x="353" 
d="M330 497v-1q0 -75 -41 -118.5t-120 -43.5q-70 0 -108 36t-38 102q0 77 43.5 121t119.5 44q69 0 106.5 -36.5t37.5 -103.5zM243 484v1q0 51 -18 80.5t-48 29.5q-67 0 -67 -109q0 -52 18.5 -80t50.5 -28q64 0 64 106z" />
    <glyph glyph-name="guillemotright" unicode="&#xbb;" horiz-adv-x="417" 
d="M83 387l136 -162l-136 -161l-57 50l96 111l-96 112zM269 387l136 -162l-135 -161l-58 50l96 111l-96 112z" />
    <glyph glyph-name="onequarter" unicode="&#xbc;" horiz-adv-x="741" 
d="M578 86h-156v42q28 64 73 131.5t93 115.5h64q-3 -52 -3 -96v-140h47q5 -26 0 -45l-11 -8h-36v-11q0 -9 0.5 -17t0.5 -12v-5q1 -3 11 -4l39 -5v-37q-87 3 -89 3t-95 -3v36l49 5q12 1 12 4q1 5 1 35v11zM578 139v151q-26 -30 -54 -75.5t-40 -75.5h94zM486 637l60 -27
l-289 -623l-60 28zM50 569v41q98 9 150 28l18 -12q-5 -32 -5 -100v-194q0 -24 2 -36q1 -1 10 -3l39 -5v-37q-31 2 -96 2q-69 0 -102 -2v36l50 5q9 1 10 2q2 2 2 38v247z" />
    <glyph glyph-name="onehalf" unicode="&#xbd;" horiz-adv-x="741" 
d="M476 637l59 -27l-289 -623l-60 28zM40 569v41q96 9 150 28l18 -12q-6 -38 -6 -100v-194q0 -24 2 -36q1 -1 10 -3l39 -5v-37q-30 2 -95 2q-70 0 -102 -2v36l49 5q10 1 11 2q2 2 2 38v247zM476 297l-23 31q66 51 136 51q46 0 72 -24.5t26 -69.5q0 -90 -137 -225l157 -18
q1 -8 1 -18q0 -12 -1 -18l-12 -11q-113 5 -140 5q-17 0 -107 -5l-13 25q89 80 128 139.5t39 114.5q0 26 -13.5 39.5t-36.5 13.5q-34 0 -76 -30z" />
    <glyph glyph-name="threequarters" unicode="&#xbe;" horiz-adv-x="741" 
d="M574 86h-156v42q27 63 72 131t93 116h65q-4 -47 -4 -96v-140h47q5 -29 0 -45l-10 -8h-37v-11v-17t0.5 -12t0.5 -5q1 -2 11 -4l39 -5v-37q-87 3 -89 3q-1 0 -94 -3v36l49 5q11 1 11 4q2 10 2 35v11zM574 139v151q-26 -30 -54 -75.5t-40 -75.5h94zM482 637l60 -27
l-289 -623l-60 28zM81 554l-25 32q61 48 125 48q34 0 60 -15t26 -50q0 -53 -71 -92q88 -2 88 -72q0 -63 -56 -110.5t-119 -47.5q-30 0 -54 8.5t-24 20.5q0 21 29 51q38 -25 69 -25t54 18.5t23 52.5q0 61 -70 61q-17 0 -38 -3l-10 14l13 26q37 12 59 32.5t22 46.5
q0 33 -35 33q-26 0 -66 -29z" />
    <glyph glyph-name="questiondown" unicode="&#xbf;" horiz-adv-x="402" 
d="M225 308h-1q-13 0 -43 26t-30 38q0 14 31 47.5t44 33.5t42.5 -25.5t29.5 -36.5q0 -15 -30 -49t-43 -34zM116 234l22 26q78 -56 190 -102v-23q-81 -30 -123.5 -66.5t-42.5 -75.5q0 -32 35.5 -61.5t100.5 -51.5q-15 -73 -41 -73q-25 0 -70 25q-59 31 -91.5 71t-32.5 82
t35.5 81t88.5 66z" />
    <glyph glyph-name="Agrave" unicode="&#xc0;" horiz-adv-x="609" 
d="M397 722l-28 -46q-84 49 -178 62l21 80q45 -8 96 -35t89 -61zM263 630h84l196 -530q14 -36 21 -45.5t23 -10.5l22 -3v-46q-72 5 -129 5t-130 -5v46l74 8q19 1 19 11q0 8 -8 30l-60 160q-57 0 -88 -1q-47 -2 -66.5 -6t-28.5 -14q-17 -19 -44 -100q-20 -56 -20 -66
q0 -8 5.5 -10.5t22.5 -3.5l87 -8v-46q-72 5 -131 5q-56 0 -128 -5v46l55 7q18 46 55 134.5t48 115.5q91 225 121 332zM354 307l-70 189l-68 -183z" />
    <glyph glyph-name="Aacute" unicode="&#xc1;" horiz-adv-x="609" 
d="M409 815l37 -71q-98 -54 -224 -68l-11 59q102 22 198 80zM263 630h84l196 -530q14 -36 21 -45.5t23 -10.5l22 -3v-46q-72 5 -129 5t-130 -5v46l74 8q19 1 19 11q0 8 -8 30l-60 160q-57 0 -88 -1q-47 -2 -66.5 -6t-28.5 -14q-17 -19 -44 -100q-20 -56 -20 -66
q0 -8 5.5 -10.5t22.5 -3.5l87 -8v-46q-72 5 -131 5q-56 0 -128 -5v46l55 7q18 46 55 134.5t48 115.5q91 225 121 332zM354 307l-70 189l-68 -183z" />
    <glyph glyph-name="Acircumflex" unicode="&#xc2;" horiz-adv-x="609" 
d="M313 816l121 -101l-27 -39l-97 50l-101 -50l-20 34zM263 630h84l196 -530q14 -36 21 -45.5t23 -10.5l22 -3v-46q-72 5 -129 5t-130 -5v46l74 8q19 1 19 11q0 8 -8 30l-60 160q-57 0 -88 -1q-47 -2 -66.5 -6t-28.5 -14q-17 -19 -44 -100q-20 -56 -20 -66q0 -8 5.5 -10.5
t22.5 -3.5l87 -8v-46q-72 5 -131 5q-56 0 -128 -5v46l55 7q18 46 55 134.5t48 115.5q91 225 121 332zM354 307l-70 189l-68 -183z" />
    <glyph glyph-name="Atilde" unicode="&#xc3;" horiz-adv-x="609" 
d="M430 790l32 -12q-18 -53 -38 -75t-46 -22q-18 0 -72 22q-44 19 -59 19q-16 0 -24 -8t-17 -29l-31 13q32 96 85 96q16 0 76 -22q39 -17 57 -17q24 0 37 35zM263 630h84l196 -530q14 -36 21 -45.5t23 -10.5l22 -3v-46q-72 5 -129 5t-130 -5v46l74 8q19 1 19 11q0 8 -8 30
l-60 160q-57 0 -88 -1q-47 -2 -66.5 -6t-28.5 -14q-17 -19 -44 -100q-20 -56 -20 -66q0 -8 5.5 -10.5t22.5 -3.5l87 -8v-46q-72 5 -131 5q-56 0 -129 -5v46l56 7q18 46 55 134.5t48 115.5q91 225 121 332zM354 307l-70 189l-68 -183z" />
    <glyph glyph-name="Adieresis" unicode="&#xc4;" horiz-adv-x="609" 
d="M263 630h84l196 -530q14 -36 21 -45.5t23 -10.5l22 -3v-46q-72 5 -129 5t-130 -5v46l74 8q19 1 19 11q0 8 -8 30l-60 160q-57 0 -88 -1q-47 -2 -66.5 -6t-28.5 -14q-17 -19 -44 -100q-20 -56 -20 -66q0 -8 5.5 -10.5t22.5 -3.5l87 -8v-46q-72 5 -131 5q-56 0 -128 -5v46
l55 7q18 46 55 134.5t48 115.5q91 225 121 332zM354 307l-70 189l-68 -183zM220 797h1q13 0 38.5 -20.5t25.5 -32.5q0 -13 -24.5 -41t-36.5 -28q-13 0 -38.5 20t-25.5 32q0 14 23.5 42t36.5 28zM404 797h1q13 0 39 -20t26 -33q0 -14 -25 -41.5t-38 -27.5q-14 0 -38.5 20.5
t-24.5 32.5q0 14 23.5 41.5t36.5 27.5z" />
    <glyph glyph-name="Aring" unicode="&#xc5;" horiz-adv-x="609" 
d="M310 888h1q43 0 74 -31.5t31 -75.5t-31 -75t-75 -31t-75 31t-31 75t31 75.5t75 31.5zM310 838h-1q-23 0 -39.5 -17t-16.5 -40t17 -40t40 -17t40 17t17 40t-17 40t-40 17zM263 630h84l196 -530q14 -36 21 -45.5t23 -10.5l22 -3v-46q-72 5 -129 5t-130 -5v46l74 8
q19 1 19 11q0 8 -8 30l-60 160q-57 0 -88 -1q-47 -2 -66.5 -6t-28.5 -14q-17 -19 -44 -100q-20 -56 -20 -66q0 -8 5.5 -10.5t22.5 -3.5l87 -8v-46q-72 5 -131 5q-56 0 -128 -5v46l55 7q18 46 55 134.5t48 115.5q91 225 121 332zM354 307l-70 189l-68 -183z" />
    <glyph glyph-name="AE" unicode="&#xc6;" horiz-adv-x="742" 
d="M454 568v-219l87 4q31 2 36 5q7 6 10 45h52q-4 -66 -4 -80q0 -44 7 -104l-52 -4q-5 41 -10 59q-7 16 -47 16h-79v-157q0 -41 5 -55q5 -15 17 -19.5t43 -4.5q93 0 109 13q13 12 37 114l47 -7l-17 -179q-91 0 -186 2.5t-112 2.5q-52 0 -127 -5v46l52 7q16 2 19.5 4t4.5 9
q2 38 2 63v166q-91 0 -120 -13q-28 -12 -52 -62l-61 -131q-10 -20 -10 -27q0 -5 2.5 -6.5t16.5 -2.5l71 -7v-46q-97 5 -116 5q-48 0 -113 -5v46l51 6q24 49 137 270q79 152 122 258l-54 7v47q74 -5 185 -5q151 0 261 5l-11 -175h-42q-10 62 -18 89q-5 14 -15.5 18t-46.5 5
q-35 2 -64 2h-17zM348 349v219h-7l-103 -219h110z" />
    <glyph glyph-name="Ccedilla" unicode="&#xc7;" horiz-adv-x="599" 
d="M548 430l-41 -5q-17 63 -39 105q-10 19 -29 26q-19 8 -61 8q-103 0 -163 -68t-60 -184q0 -123 61 -194.5t176 -71.5q77 0 93 34q18 38 36 115l44 -5l-11 -177q-84 -28 -188 -28q-156 0 -243 81t-87 223q0 159 105 249q39 33 85 54t101.5 30t96.5 11.5t106 2.5zM242 -216
l16 53q19 -8 36 -8q30 0 30 24q0 33 -42 61q38 36 62 36q22 0 40.5 -24.5t18.5 -52.5q0 -38 -38 -65t-91 -27q-10 0 -32 3z" />
    <glyph glyph-name="Egrave" unicode="&#xc8;" horiz-adv-x="529" 
d="M357 722l-28 -45q-90 50 -179 62l22 80q45 -8 96 -35.5t89 -61.5zM228 568v-216l91 3q37 0 44 6t11 45h52q-4 -45 -4 -80q0 -46 7 -105l-52 -5q-5 40 -11 59q-4 10 -14.5 13t-35.5 3h-88v-158q0 -46 4 -57q5 -14 16.5 -18t49.5 -4q102 0 116 13q16 13 38 114l47 -7
l-16 -179q-91 0 -189 2.5t-127 2.5q-60 0 -132 -5v46l53 7q16 2 19.5 4t4.5 9q2 38 2 63v376q0 24 -2 62q-1 7 -5 9.5t-19 4.5l-53 6v47q72 -5 152 -5q137 0 267 5l-11 -175h-41q-12 69 -19 89q-4 13 -14.5 17t-46.5 6t-69 2h-25z" />
    <glyph glyph-name="Eacute" unicode="&#xc9;" horiz-adv-x="529" 
d="M344 814l38 -70q-99 -55 -225 -69l-11 59q101 21 198 80zM228 568v-216l91 3q37 0 44 6t11 45h52q-4 -45 -4 -80q0 -46 7 -105l-52 -5q-5 40 -11 59q-4 10 -14.5 13t-35.5 3h-88v-158q0 -46 4 -57q5 -14 16.5 -18t49.5 -4q102 0 116 13q16 13 38 114l47 -7l-16 -179
q-91 0 -189 2.5t-127 2.5q-60 0 -132 -5v46l53 7q16 2 19.5 4t4.5 9q2 38 2 63v376q0 24 -2 62q-1 7 -5 9.5t-19 4.5l-53 6v47q72 -5 152 -5q137 0 267 5l-11 -175h-41q-12 69 -19 89q-4 13 -14.5 17t-46.5 6t-69 2h-25z" />
    <glyph glyph-name="Ecircumflex" unicode="&#xca;" horiz-adv-x="529" 
d="M265 816l129 -100l-27 -40l-105 50l-109 -50l-20 35zM228 568v-216l91 3q37 0 44 6t11 45h52q-4 -45 -4 -80q0 -46 7 -105l-52 -5q-5 40 -11 59q-4 10 -14.5 13t-35.5 3h-88v-158q0 -46 4 -57q5 -14 16.5 -18t49.5 -4q102 0 116 13q16 13 38 114l47 -7l-16 -179
q-91 0 -189 2.5t-127 2.5q-60 0 -132 -5v46l53 7q16 2 19.5 4t4.5 9q2 38 2 63v376q0 24 -2 62q-1 7 -5 9.5t-19 4.5l-53 6v47q72 -5 152 -5q137 0 267 5l-11 -175h-41q-12 69 -19 89q-4 13 -14.5 17t-46.5 6t-69 2h-25z" />
    <glyph glyph-name="Edieresis" unicode="&#xcb;" horiz-adv-x="529" 
d="M167 797h1q12 0 37.5 -20.5t25.5 -32.5q0 -13 -24.5 -41t-36.5 -28q-13 0 -38.5 20t-25.5 32q0 14 23.5 42t37.5 28zM351 797h1q13 0 38.5 -20t25.5 -33q0 -14 -25 -41t-38 -27q-12 0 -37 20t-25 32q0 14 23.5 41.5t36.5 27.5zM228 568v-216l91 3q37 0 44 6t11 45h52
q-4 -45 -4 -80q0 -46 7 -105l-52 -5q-5 40 -11 59q-4 10 -14.5 13t-35.5 3h-88v-158q0 -46 4 -57q5 -14 16.5 -18t49.5 -4q102 0 116 13q16 13 38 114l47 -7l-16 -179q-91 0 -189 2.5t-127 2.5q-60 0 -132 -5v46l53 7q16 2 19.5 4t4.5 9q2 38 2 63v376q0 24 -2 62
q-1 7 -5 9.5t-19 4.5l-53 6v47q72 -5 152 -5q137 0 267 5l-11 -175h-41q-12 69 -19 89q-4 13 -14.5 17t-46.5 6t-69 2h-25z" />
    <glyph glyph-name="Igrave" unicode="&#xcc;" horiz-adv-x="340" 
d="M266 721l-29 -45q-84 49 -178 62l21 80q45 -8 96 -35t90 -62zM305 629v-47l-53 -6q-15 -2 -19 -4.5t-5 -9.5q-1 -19 -1 -62v-376q0 -44 1 -63q1 -7 4.5 -9t19.5 -4l53 -7v-46q-84 4 -135 4q-55 0 -135 -4v46l52 7q16 2 19.5 4t4.5 9q2 38 2 63v376q0 24 -2 62
q-1 7 -5 9.5t-19 4.5l-52 6v47q84 -4 135 -4q55 0 135 4z" />
    <glyph glyph-name="Iacute" unicode="&#xcd;" horiz-adv-x="340" 
d="M259 815l38 -71q-98 -54 -225 -68l-11 59q103 22 198 80zM305 629v-47l-53 -6q-15 -2 -19 -4.5t-5 -9.5q-1 -19 -1 -62v-376q0 -44 1 -63q1 -7 4.5 -9t19.5 -4l53 -7v-46q-84 4 -135 4q-55 0 -135 -4v46l52 7q16 2 19.5 4t4.5 9q2 38 2 63v376q0 24 -2 62q-1 7 -5 9.5
t-19 4.5l-52 6v47q84 -4 135 -4q55 0 135 4z" />
    <glyph glyph-name="Icircumflex" unicode="&#xce;" horiz-adv-x="340" 
d="M172 816l129 -100l-27 -40l-105 50l-109 -50l-20 35zM305 629v-47l-53 -6q-15 -2 -19 -4.5t-5 -9.5q-1 -19 -1 -62v-376q0 -44 1 -63q1 -7 4.5 -9t19.5 -4l53 -7v-46q-84 4 -135 4q-55 0 -135 -4v46l52 7q16 2 19.5 4t4.5 9q2 38 2 63v376q0 24 -2 62q-1 7 -5 9.5
t-19 4.5l-52 6v47q84 -4 135 -4q55 0 135 4z" />
    <glyph glyph-name="Idieresis" unicode="&#xcf;" horiz-adv-x="340" 
d="M81 796h1q13 0 38.5 -20t25.5 -33q0 -12 -24.5 -40t-36.5 -28q-13 0 -38 19.5t-25 32.5t23.5 41t35.5 28zM255 796h1q13 0 38 -20t25 -33t-24 -40.5t-36 -27.5q-13 0 -38.5 20t-25.5 32q0 14 23.5 41.5t36.5 27.5zM305 629v-47l-53 -6q-15 -2 -19 -4.5t-5 -9.5
q-1 -19 -1 -62v-376q0 -44 1 -63q1 -7 4.5 -9t19.5 -4l53 -7v-46q-84 4 -135 4q-55 0 -135 -4v46l52 7q16 2 19.5 4t4.5 9q2 38 2 63v376q0 24 -2 62q-1 7 -5 9.5t-19 4.5l-52 6v47q84 -4 135 -4q55 0 135 4z" />
    <glyph glyph-name="Eth" unicode="&#xd0;" horiz-adv-x="690" 
d="M113 355v222q-54 0 -76 -2v46q95 11 196 11q46 0 81.5 -1.5t81.5 -7.5t80 -17t69.5 -31t57.5 -47t36.5 -68t14.5 -93q0 -168 -97.5 -270t-260.5 -102q-24 0 -72 2t-72 2q-57 0 -117 -4v47l52 7q16 2 19.5 4t4.5 9q2 38 2 63v169h-78v61h78zM227 355h98v-61h-98v-157
q0 -54 10 -67.5t54 -13.5q117 0 182.5 73.5t65.5 202.5q0 56 -15.5 98.5t-42 69.5t-67 44t-85.5 24t-102 8v-221z" />
    <glyph glyph-name="Ntilde" unicode="&#xd1;" horiz-adv-x="722" 
d="M486 790l31 -12q-33 -97 -83 -97q-19 0 -73 22q-44 19 -59 19q-16 0 -24 -8t-17 -29l-31 13q32 96 85 96q18 0 76 -22q39 -17 57 -17q25 0 38 35zM546 142v330q0 83 -11 93q-5 6 -27 9l-83 8v47q68 -5 134 -5q59 0 134 5v-47l-36 -4q-17 -3 -24 -12q-12 -27 -12 -209
v-221q0 -95 2 -141h-99l-198 300q-80 120 -142 224h-4v-308q0 -121 6 -143q3 -10 10 -13t26 -5l77 -9v-46q-77 5 -136 5t-134 -5v46l38 7q28 4 30 21q8 64 8 203v251q0 35 -4 42t-25 10l-47 7v47q33 -2 101 -2q50 0 97 4l139 -212q84 -129 177 -277h3z" />
    <glyph glyph-name="Ograve" unicode="&#xd2;" horiz-adv-x="693" 
d="M446 721l-29 -45q-87 50 -178 62l21 80q45 -8 96 -35t90 -62zM656 321v-1q0 -149 -93 -242t-243 -93q-130 0 -207 82.5t-77 223.5q0 155 92.5 250.5t242.5 95.5q132 0 208.5 -84.5t76.5 -231.5zM542 291v1q0 120 -58 198t-149 78q-85 0 -135.5 -64.5t-50.5 -174.5
q0 -122 56.5 -198t146.5 -76q88 0 139 64t51 172z" />
    <glyph glyph-name="Oacute" unicode="&#xd3;" horiz-adv-x="693" 
d="M459 815l37 -71q-98 -54 -224 -68l-11 59q102 22 198 80zM656 321v-1q0 -149 -93 -242t-243 -93q-130 0 -207 82.5t-77 223.5q0 155 92.5 250.5t242.5 95.5q132 0 208.5 -84.5t76.5 -231.5zM542 291v1q0 120 -58 198t-149 78q-85 0 -135.5 -64.5t-50.5 -174.5
q0 -122 56.5 -198t146.5 -76q88 0 139 64t51 172z" />
    <glyph glyph-name="Ocircumflex" unicode="&#xd4;" horiz-adv-x="693" 
d="M350 816l129 -100l-27 -40l-105 50l-108 -50l-21 35zM656 321v-1q0 -149 -93 -242t-243 -93q-130 0 -207 82.5t-77 223.5q0 155 92.5 250.5t242.5 95.5q132 0 208.5 -84.5t76.5 -231.5zM542 291v1q0 120 -58 198t-149 78q-85 0 -135.5 -64.5t-50.5 -174.5
q0 -122 56.5 -198t146.5 -76q88 0 139 64t51 172z" />
    <glyph glyph-name="Otilde" unicode="&#xd5;" horiz-adv-x="693" 
d="M465 790l31 -12q-17 -53 -37 -75t-46 -22q-18 0 -72 22q-44 19 -60 19q-15 0 -23.5 -8t-17.5 -29l-31 13q32 96 86 96q17 0 75 -22q39 -17 58 -17q24 0 37 35zM656 321v-1q0 -149 -93 -242t-243 -93q-130 0 -207 82.5t-77 223.5q0 156 92.5 251t242.5 95
q132 0 208.5 -84.5t76.5 -231.5zM542 291v1q0 120 -58 198t-149 78q-85 0 -135.5 -64.5t-50.5 -174.5q0 -122 56.5 -198t146.5 -76q88 0 139 64t51 172z" />
    <glyph glyph-name="Odieresis" unicode="&#xd6;" horiz-adv-x="693" 
d="M656 321v-1q0 -149 -93 -242t-243 -93q-130 0 -207 82.5t-77 223.5q0 156 92.5 251t242.5 95q132 0 208.5 -84.5t76.5 -231.5zM542 291v1q0 120 -58 198t-149 78q-85 0 -135.5 -64.5t-50.5 -174.5q0 -122 56.5 -198t146.5 -76q88 0 139 64t51 172zM260 797h1
q13 0 38.5 -20.5t25.5 -32.5q0 -13 -24.5 -41t-36.5 -28q-13 0 -38.5 20t-25.5 32q0 14 23.5 42t36.5 28zM445 797h1q12 0 38 -20t26 -33q0 -14 -25 -41t-38 -27t-38 20t-25 32q0 14 24 41.5t37 27.5z" />
    <glyph glyph-name="multiply" unicode="&#xd7;" horiz-adv-x="448" 
d="M50 378l53 52l121 -121l121 121l52 -52l-121 -121l122 -122l-52 -52l-122 121l-121 -121l-53 53l121 121z" />
    <glyph glyph-name="Oslash" unicode="&#xd8;" horiz-adv-x="690" 
d="M587 639l45 -39l-49 -56q71 -83 71 -223q0 -150 -92.5 -243t-242.5 -93q-96 0 -170 55l-53 -57l-45 39l53 59q-68 79 -68 210q0 156 92 251t242 95q97 0 169 -53zM179 162l292 348q-60 60 -136 60q-86 0 -141 -66t-55 -175q0 -100 40 -167zM509 463l-293 -349
q57 -59 135 -59q89 0 144.5 65t55.5 171q0 100 -42 172z" />
    <glyph glyph-name="Ugrave" unicode="&#xd9;" horiz-adv-x="715" 
d="M432 722l-29 -46q-84 49 -178 62l21 80q45 -8 96 -35t90 -61zM489 -12v73q-100 -77 -216 -77q-54 0 -89.5 19t-52 55.5t-22.5 74.5t-6 91v276q0 24 -2 62q-1 7 -5 9.5t-19 4.5l-52 6v47q84 -4 136 -4t134 4v-47l-53 -6q-15 -2 -19 -4.5t-5 -9.5q-2 -38 -2 -62v-261
q0 -92 26.5 -136t99.5 -44q37 0 70 15.5t51 43.5q16 24 20 54t4 86v242q0 24 -2 62q-1 7 -5 9.5t-19 4.5l-51 6v47q84 -4 134 -4q55 0 135 4v-47l-53 -6q-15 -2 -18.5 -4.5t-4.5 -9.5q-2 -38 -2 -62v-376q0 -25 2 -63q1 -7 4 -9t19 -4l53 -7v-46q-38 2 -49 2q-74 0 -141 -9z
" />
    <glyph glyph-name="Uacute" unicode="&#xda;" horiz-adv-x="715" 
d="M456 815l38 -71q-100 -54 -225 -68l-11 59q104 22 198 80zM489 -12v73q-100 -77 -216 -77q-54 0 -89.5 19t-52 55.5t-22.5 74.5t-6 91v276q0 24 -2 62q-1 7 -5 9.5t-19 4.5l-52 6v47q84 -4 136 -4t134 4v-47l-53 -6q-15 -2 -19 -4.5t-5 -9.5q-2 -38 -2 -62v-261
q0 -92 26.5 -136t99.5 -44q37 0 70 15.5t51 43.5q16 24 20 54t4 86v242q0 24 -2 62q-1 7 -5 9.5t-19 4.5l-51 6v47q84 -4 134 -4q55 0 135 4v-47l-53 -6q-15 -2 -18.5 -4.5t-4.5 -9.5q-2 -38 -2 -62v-376q0 -25 2 -63q1 -7 4 -9t19 -4l53 -7v-46q-38 2 -49 2q-74 0 -141 -9z
" />
    <glyph glyph-name="Ucircumflex" unicode="&#xdb;" horiz-adv-x="715" 
d="M360 816l130 -100l-27 -40l-106 50l-108 -50l-21 35zM489 -12v73q-100 -77 -216 -77q-54 0 -89.5 19t-52 55.5t-22.5 74.5t-6 91v276q0 24 -2 62q-1 7 -5 9.5t-19 4.5l-52 6v47q84 -4 136 -4t134 4v-47l-53 -6q-15 -2 -19 -4.5t-5 -9.5q-2 -38 -2 -62v-261
q0 -92 26.5 -136t99.5 -44q37 0 70 15.5t51 43.5q16 24 20 54t4 86v242q0 24 -2 62q-1 7 -5 9.5t-19 4.5l-51 6v47q84 -4 134 -4q55 0 135 4v-47l-53 -6q-15 -2 -18.5 -4.5t-4.5 -9.5q-2 -38 -2 -62v-376q0 -25 2 -63q1 -7 4 -9t19 -4l53 -7v-46q-38 2 -49 2q-74 0 -141 -9z
" />
    <glyph glyph-name="Udieresis" unicode="&#xdc;" horiz-adv-x="715" 
d="M262 797h1q13 0 38.5 -20.5t25.5 -32.5q0 -13 -24.5 -41t-36.5 -28q-13 0 -38.5 20t-25.5 32q0 14 23.5 42t36.5 28zM447 797q13 0 39 -20t26 -33q0 -14 -25 -41t-38 -27q-12 0 -37.5 20t-25.5 32q0 14 23.5 41.5t37.5 27.5zM489 -12v73q-100 -77 -216 -77
q-54 0 -89.5 19t-52 55.5t-22.5 74.5t-6 91v276q0 24 -2 62q-1 7 -5 9.5t-19 4.5l-52 6v47q84 -4 136 -4t134 4v-47l-53 -6q-15 -2 -19 -4.5t-5 -9.5q-2 -38 -2 -62v-261q0 -92 26.5 -136t99.5 -44q37 0 70 15.5t51 43.5q16 24 20 54t4 86v242q0 24 -2 62q-1 7 -5 9.5
t-19 4.5l-51 6v47q84 -4 134 -4q55 0 135 4v-47l-53 -6q-15 -2 -18.5 -4.5t-4.5 -9.5q-2 -38 -2 -62v-376q0 -25 2 -63q1 -7 4 -9t19 -4l53 -7v-46q-38 2 -49 2q-74 0 -141 -9z" />
    <glyph glyph-name="Yacute" unicode="&#xdd;" horiz-adv-x="543" 
d="M382 815l38 -71q-98 -54 -225 -68l-11 59q103 22 198 80zM293 340l69 122q45 79 45 101q0 13 -21 14l-54 5v47q68 -5 116 -5q42 0 110 5v-47l-60 -8q-23 -43 -87 -155q-25 -43 -87 -154v-141q0 -44 1 -63q1 -7 4.5 -9t19.5 -4l53 -7v-46q-82 4 -135 4q-57 0 -135 -4v46
l53 7q16 2 19.5 4t4.5 9q2 38 2 63v140l-151 274q-14 25 -22 32.5t-25 9.5l-19 2v47q72 -5 124 -5q55 0 123 5v-47l-42 -4q-23 -2 -23 -16q0 -11 17 -43l22 -38q12 -21 76 -141h2z" />
    <glyph glyph-name="Thorn" unicode="&#xde;" horiz-adv-x="519" 
d="M113 244v256q0 24 -2 62q-1 7 -5 9.5t-19 4.5l-52 6v47q82 -4 133 -4q80 0 156 4v-47l-74 -6q-15 -1 -18.5 -3.5t-4.5 -10.5q-2 -38 -2 -54h45t49.5 -2.5t55 -7t48.5 -13.5t44 -22t27.5 -34t11.5 -48q0 -81 -78 -141t-203 -73v-43q0 -25 2 -63q1 -7 5 -9.5t18 -3.5l81 -7
v-46q-77 5 -156 5q-64 0 -139 -5v46l51 7q16 2 19.5 4t4.5 9q2 38 2 63v43q-23 1 -41 6l-4 16zM225 458v-223q166 0 166 117q0 106 -166 106z" />
    <glyph glyph-name="germandbls" unicode="&#xdf;" horiz-adv-x="562" 
d="M84 385l-64 6v42l64 10q19 133 96 210q34 35 80 57t84 22q59 0 107 -53.5t48 -123.5q0 -32 -21 -58.5t-68 -65.5q-28 -24 -39.5 -38.5t-11.5 -30.5q0 -14 15.5 -26.5t64.5 -39.5q51 -28 76.5 -54.5t25.5 -65.5q0 -61 -53 -119q-30 -33 -65.5 -52.5t-64.5 -19.5
q-30 0 -63 33q-37 35 -37 52q0 12 18.5 30t41.5 30q44 -57 80 -57q23 0 39.5 16.5t16.5 40.5q0 23 -17.5 42.5t-66.5 48.5q-66 38 -86 58t-20 53q0 23 11.5 43.5t23 31.5t38.5 33q23 19 34 30t20 28t9 36q0 46 -27.5 83t-70.5 37q-35 0 -58 -20.5t-34.5 -64.5t-15.5 -96
t-4 -130v-222q0 -23 2 -63q1 -7 4.5 -9t19.5 -5l35 -6v-43q-60 3 -115 3q-58 0 -115 -3v43l37 7q16 2 20 4.5t5 9.5q1 21 1 62v264z" />
    <glyph glyph-name="agrave" unicode="&#xe0;" horiz-adv-x="413" 
d="M101 599l46 70q34 -20 68.5 -58t58.5 -80l-42 -35q-57 65 -131 103zM69 338l-24 39q112 76 193 76q57 0 78.5 -32.5t21.5 -98.5q0 -23 -1.5 -69.5t-1.5 -69.5q0 -85 10 -126l71 -11l1 -31l-159 -31q-11 17 -16 50l-3 2q-66 -51 -127 -51q-49 0 -73.5 39t-24.5 91
q0 29 26 49q68 52 202 92v27q0 51 -14 72t-50 21q-46 0 -109 -38zM242 153v38q-121 -12 -121 -83q0 -53 46 -53q75 0 75 98z" />
    <glyph glyph-name="aacute" unicode="&#xe1;" horiz-adv-x="413" 
d="M252 673l58 -52q-64 -74 -171 -124l-30 50q76 45 143 126zM69 338l-24 39q112 76 193 76q57 0 78.5 -32.5t21.5 -98.5q0 -23 -1.5 -69.5t-1.5 -69.5q0 -85 10 -126l71 -11l1 -31l-159 -31q-12 19 -15 50l-4 2q-66 -51 -127 -51q-49 0 -73.5 38.5t-24.5 91.5q0 29 26 49
q68 52 202 92v27q0 51 -14 72t-50 21q-46 0 -109 -38zM242 153v38q-121 -12 -121 -83q0 -53 46 -53q75 0 75 98z" />
    <glyph glyph-name="acircumflex" unicode="&#xe2;" horiz-adv-x="413" 
d="M203 673l130 -135l-39 -41l-93 76l-99 -76l-30 35zM69 338l-24 39q112 76 193 76q57 0 78.5 -32.5t21.5 -98.5q0 -23 -1.5 -69.5t-1.5 -69.5q0 -85 10 -126l71 -11l1 -31l-159 -31q-12 19 -15 50l-4 2q-66 -51 -127 -51q-49 0 -73.5 39t-24.5 91q0 29 26 49q68 52 202 92
v27q0 51 -14 72t-50 21q-46 0 -109 -38zM242 153v38q-121 -12 -121 -83q0 -53 46 -53q75 0 75 98z" />
    <glyph glyph-name="atilde" unicode="&#xe3;" horiz-adv-x="413" 
d="M309 620l31 -11q-30 -97 -82 -97q-16 0 -70 22q-40 18 -56 18q-15 0 -24 -7.5t-17 -27.5l-31 12q32 95 85 95q24 0 73 -22q37 -16 54 -16q24 0 37 34zM69 338l-24 39q112 76 193 76q57 0 78.5 -32.5t21.5 -98.5q0 -23 -1.5 -69.5t-1.5 -69.5q0 -85 10 -126l71 -11l1 -31
l-159 -31q-12 19 -15 50l-4 2q-66 -51 -127 -51q-49 0 -73.5 39t-24.5 91q0 29 26 49q68 52 202 92v27q0 51 -14 72t-50 21q-46 0 -109 -38zM242 153v38q-121 -12 -121 -83q0 -53 46 -53q75 0 75 98z" />
    <glyph glyph-name="adieresis" unicode="&#xe4;" horiz-adv-x="413" 
d="M69 338l-24 39q112 76 193 76q57 0 78.5 -32.5t21.5 -98.5q0 -23 -1.5 -69.5t-1.5 -69.5q0 -85 10 -126l71 -11l1 -31l-159 -31q-11 17 -16 50l-3 2q-66 -51 -127 -51q-49 0 -73.5 39t-24.5 91q0 29 26 49q68 52 202 92v27q0 51 -14 72t-50 21q-46 0 -109 -38zM242 153
v38q-121 -12 -121 -83q0 -53 46 -53q75 0 75 98zM112 621h1q11 0 36 -20t25 -32t-24.5 -40t-35.5 -28q-12 0 -37 20t-25 32q0 13 24 40.5t36 27.5zM279 621h1q11 0 36.5 -20.5t25.5 -31.5q0 -12 -24.5 -40t-35.5 -28q-12 0 -37 20t-25 32q0 13 23.5 40.5t35.5 27.5z" />
    <glyph glyph-name="aring" unicode="&#xe5;" horiz-adv-x="413" 
d="M204 707h1q41 0 71.5 -30.5t30.5 -72.5q0 -43 -30.5 -73t-72.5 -30q-43 0 -73 30t-30 73t30 73t73 30zM204 658h-1q-22 0 -37.5 -16t-15.5 -38t16 -38t38 -16t38.5 16t16.5 38t-16 38t-39 16zM69 338l-24 39q112 76 193 76q57 0 78.5 -32.5t21.5 -98.5q0 -23 -1.5 -69.5
t-1.5 -69.5q0 -85 10 -126l71 -11l1 -31l-159 -31q-11 17 -16 50l-3 2q-66 -51 -127 -51q-49 0 -73.5 39t-24.5 91q0 29 26 49q68 52 202 92v27q0 51 -14 72t-50 21q-46 0 -109 -38zM242 153v38q-121 -12 -121 -83q0 -53 46 -53q75 0 75 98z" />
    <glyph glyph-name="ae" unicode="&#xe6;" horiz-adv-x="590" 
d="M553 244h-237v-22q2 -72 35 -112.5t92 -40.5q51 0 108 35l22 -34q-100 -85 -183 -85q-76 0 -134 78q-85 -78 -146 -78q-48 0 -72 39t-24 90q0 32 26 50q59 45 187 88v17q0 55 -10.5 79.5t-47.5 24.5q-39 0 -100 -36l-24 40q111 76 176 76q54 0 69 -56q52 56 120 56
t109 -42.5t41 -113.5q0 -25 -7 -53zM320 295l130 12v18q0 30 -14.5 48t-39.5 18q-62 0 -76 -96zM159 57h1q25 0 41 19q26 22 26 73v41q-107 -12 -107 -81q0 -52 39 -52z" />
    <glyph glyph-name="ccedilla" unicode="&#xe7;" horiz-adv-x="368" 
d="M343 90l19 -35q-53 -39 -88.5 -54.5t-75.5 -15.5q-76 0 -122 52.5t-46 146.5q0 110 66 189.5t153 79.5q41 0 66.5 -12.5t25.5 -31.5q0 -28 -24 -70q-40 25 -88 25q-50 0 -77.5 -33.5t-27.5 -98.5q0 -82 34.5 -123t97.5 -41q36 0 87 22zM99 -208l16 52q19 -8 34 -8
q30 0 30 23q0 33 -42 59q38 36 63 36q20 0 38 -23.5t18 -51.5q0 -37 -37 -63t-88 -26q-18 0 -32 2z" />
    <glyph glyph-name="egrave" unicode="&#xe8;" horiz-adv-x="418" 
d="M111 599l46 70q34 -20 68.5 -58t58.5 -80l-42 -35q-57 65 -131 103zM379 104l22 -34q-58 -46 -102 -65.5t-91 -19.5q-80 0 -129 61t-49 163q0 110 56 177t147 67q71 0 112.5 -41.5t41.5 -112.5q0 -26 -5 -55h-251v-16q2 -157 134 -157q54 0 114 33zM135 296l143 12
q1 7 1 18q0 30 -17 48.5t-44 18.5q-68 0 -83 -97z" />
    <glyph glyph-name="eacute" unicode="&#xe9;" horiz-adv-x="418" 
d="M282 673l58 -52q-64 -74 -171 -124l-30 50q76 45 143 126zM379 104l22 -34q-58 -46 -102 -65.5t-91 -19.5q-80 0 -129 61t-49 163q0 110 56 177t147 67q71 0 112.5 -41.5t41.5 -112.5q0 -26 -5 -55h-251v-16q2 -158 134 -158q52 0 114 34zM135 296l143 12q1 7 1 18
q0 30 -17 48.5t-44 18.5q-68 0 -83 -97z" />
    <glyph glyph-name="ecircumflex" unicode="&#xea;" horiz-adv-x="418" 
d="M224 673l130 -135l-39 -41l-93 76l-98 -76l-31 35zM379 104l22 -34q-58 -46 -102 -65.5t-91 -19.5q-80 0 -129 61t-49 163q0 110 56 177t147 67q71 0 112.5 -41.5t41.5 -112.5q0 -26 -5 -55h-251v-16q2 -157 134 -157q54 0 114 33zM135 296l143 12q1 7 1 18
q0 30 -17 48.5t-44 18.5q-68 0 -83 -97z" />
    <glyph glyph-name="edieresis" unicode="&#xeb;" horiz-adv-x="418" 
d="M379 104l22 -34q-58 -46 -102 -65.5t-91 -19.5q-80 0 -129 61t-49 163q0 110 56 177t147 67q70 0 111.5 -42t41.5 -112q0 -32 -5 -55h-250q-1 -6 -1 -16q3 -157 135 -157q54 0 114 33zM135 296l143 12q1 7 1 18q0 30 -17 48.5t-44 18.5q-68 0 -83 -97zM128 621h1
q12 0 37 -20t25 -32t-24.5 -40t-35.5 -28q-12 0 -37 20t-25 32q0 13 23.5 40.5t35.5 27.5zM296 621h1q11 0 36.5 -20.5t25.5 -31.5q0 -12 -24.5 -40t-35.5 -28q-12 0 -37 20t-25 32q0 13 23.5 40.5t35.5 27.5z" />
    <glyph glyph-name="igrave" unicode="&#xec;" horiz-adv-x="265" 
d="M19 599l46 70q34 -21 68.5 -59t57.5 -79l-41 -35q-60 67 -131 103zM167 456l26 -14q-4 -41 -4 -125v-198q0 -25 2 -63q1 -7 4.5 -9t19.5 -4l38 -7v-41q-63 3 -117 3q-56 0 -116 -3v41l38 7q16 2 19 4t4 9q2 38 2 63v114q0 74 -5 131l-57 12v30q80 14 146 50z" />
    <glyph glyph-name="iacute" unicode="&#xed;" horiz-adv-x="265" 
d="M177 673l58 -52q-65 -73 -171 -124l-31 50q77 44 144 126zM167 456l26 -14q-4 -41 -4 -125v-198q0 -25 2 -63q1 -7 4 -9t19 -4l39 -7v-41q-63 3 -117 3q-57 0 -117 -3v41l39 7q16 2 19 4t4 9q2 38 2 63v114q0 74 -5 131l-58 12v30q80 14 147 50z" />
    <glyph glyph-name="icircumflex" unicode="&#xee;" horiz-adv-x="265" 
d="M135 674l113 -139l-43 -38l-73 75l-77 -75l-36 33zM167 456l26 -14q-4 -41 -4 -125v-198q0 -25 2 -63q1 -7 4 -9t19 -4l39 -7v-41q-63 3 -117 3q-57 0 -117 -3v41l39 7q16 2 19 4t4 9q2 38 2 63v114q0 74 -5 131l-58 12v30q80 14 147 50z" />
    <glyph glyph-name="idieresis" unicode="&#xef;" horiz-adv-x="265" 
d="M53 621h1q11 0 36 -20t25 -32t-24.5 -40t-35.5 -28t-36.5 20.5t-25.5 31.5q0 13 24 40.5t36 27.5zM206 621h1q11 0 36.5 -20.5t25.5 -31.5q0 -12 -24.5 -40t-35.5 -28q-12 0 -37 20t-25 32q0 13 23.5 40.5t35.5 27.5zM167 456l26 -14q-4 -41 -4 -125v-198q0 -25 2 -63
q1 -7 4 -9t19 -4l39 -7v-41q-63 3 -117 3q-57 0 -117 -3v41l38 7q16 2 19.5 4t4.5 9q1 19 1 63v114q0 74 -5 131l-57 12v30q80 14 147 50z" />
    <glyph glyph-name="eth" unicode="&#xf0;" horiz-adv-x="476" 
d="M61 658v22q45 17 69 38q65 -25 111 -64l75 57l34 -43l-64 -50q160 -150 160 -376q0 -121 -56.5 -189t-161.5 -68q-95 0 -146.5 55.5t-51.5 157.5q0 117 58 186.5t152 69.5q49 0 77 -35l6 4q-15 34 -47.5 76t-61.5 67l-101 -77l-34 45l86 65q-57 41 -104 59zM340 218v1
q0 82 -26 129.5t-73 47.5t-74.5 -45.5t-27.5 -129.5q0 -83 27 -129.5t76 -46.5q98 0 98 173z" />
    <glyph glyph-name="ntilde" unicode="&#xf1;" horiz-adv-x="531" 
d="M376 622l31 -11q-31 -97 -83 -97q-21 0 -69 23q-40 17 -56 17q-15 0 -24 -7.5t-17 -27.5l-31 12q32 95 85 95q20 0 73 -21q40 -17 54 -17q24 0 37 34zM166 458l22 -12v-45l3 -1q84 53 157 53q63 0 85 -40.5t22 -122.5v-169q0 -25 2 -63q1 -7 4 -9t19 -4l38 -7v-43
q-63 3 -117 3t-114 -3v43l35 7q3 1 7 1q15 3 16 8q1 2 1 4q2 38 2 63v144q0 63 -16 88.5t-57 25.5q-49 0 -70 -36q-16 -27 -16 -85v-137q0 -25 2 -63q1 -7 3.5 -8.5t19.5 -4.5l36 -7v-43q-63 3 -114 3q-57 0 -117 -3v43l39 7q16 2 19 4t4 9q2 38 2 63v239l-63 14v32
q78 15 146 52z" />
    <glyph glyph-name="ograve" unicode="&#xf2;" horiz-adv-x="481" 
d="M142 599l46 70q34 -20 68.5 -58t58.5 -80l-42 -35q-57 65 -131 103zM450 237v-1q0 -119 -56 -185t-165 -66q-96 0 -147.5 55t-51.5 158q0 121 58.5 188.5t163.5 67.5q96 0 147 -56t51 -161zM340 218v1q0 81 -26.5 129.5t-72.5 48.5q-49 0 -75 -45t-26 -131
q0 -84 27 -131.5t76 -47.5q97 0 97 176z" />
    <glyph glyph-name="oacute" unicode="&#xf3;" horiz-adv-x="481" 
d="M301 673l57 -52q-64 -74 -171 -124l-30 50q74 43 144 126zM451 237l-1 -1q0 -119 -56 -185t-165 -66q-96 0 -147.5 55t-51.5 158q0 121 58.5 188.5t163.5 67.5q96 0 147.5 -56t51.5 -161zM340 218v1q0 81 -26.5 129.5t-72.5 48.5q-49 0 -75 -45t-26 -131q0 -84 27 -131.5
t76 -47.5q97 0 97 176z" />
    <glyph glyph-name="ocircumflex" unicode="&#xf4;" horiz-adv-x="481" 
d="M244 673l130 -135l-39 -41l-93 76l-98 -76l-31 35zM451 237l-1 -1q0 -119 -56 -185t-165 -66q-96 0 -147.5 55t-51.5 158q0 121 58.5 188.5t163.5 67.5q96 0 147.5 -56t51.5 -161zM340 218v1q0 81 -26.5 129.5t-72.5 48.5q-49 0 -75 -45t-26 -131q0 -84 27 -131.5
t76 -47.5q97 0 97 176z" />
    <glyph glyph-name="otilde" unicode="&#xf5;" horiz-adv-x="481" 
d="M352 622l31 -11q-31 -97 -83 -97q-21 0 -69 23q-40 17 -56 17q-15 0 -24 -7.5t-17 -27.5l-31 12q32 95 85 95q20 0 73 -21q40 -17 54 -17q24 0 37 34zM451 237v-1q0 -119 -56.5 -185t-165.5 -66q-96 0 -147.5 55t-51.5 158q0 121 58.5 188.5t163.5 67.5q96 0 147.5 -56
t51.5 -161zM340 218v1q0 81 -26.5 129.5t-72.5 48.5q-49 0 -75 -45t-26 -131q0 -84 27 -131.5t76 -47.5q97 0 97 176z" />
    <glyph glyph-name="odieresis" unicode="&#xf6;" horiz-adv-x="481" 
d="M450 237v-1q0 -119 -56 -185t-165 -66q-96 0 -147.5 55t-51.5 158q0 121 58.5 188.5t163.5 67.5q96 0 147 -56t51 -161zM340 218v1q0 81 -26.5 129.5t-72.5 48.5q-49 0 -75 -45t-26 -131q0 -84 27 -131.5t76 -47.5q97 0 97 176zM156 621h1q12 0 37 -20t25 -32
q0 -11 -25 -39.5t-35 -28.5q-12 0 -37 20t-25 32q0 13 23.5 40.5t35.5 27.5zM324 621h1q11 0 36 -20.5t25 -31.5q0 -12 -24 -40t-36 -28q-11 0 -36.5 20.5t-25.5 31.5q0 13 24 40.5t36 27.5z" />
    <glyph glyph-name="divide" unicode="&#xf7;" horiz-adv-x="448" 
d="M224 475h1q23 0 39.5 -16t16.5 -40t-16.5 -40.5t-40.5 -16.5q-23 0 -39.5 16.5t-16.5 40.5t16 40t40 16zM49 294h350v-71h-350v71zM224 154h1q23 0 39.5 -16t16.5 -39q0 -25 -16.5 -41.5t-40.5 -16.5q-23 0 -39.5 16.5t-16.5 41.5q0 23 16 39t40 16z" />
    <glyph glyph-name="oslash" unicode="&#xf8;" horiz-adv-x="482" 
d="M408 455l41 -35l-36 -42q39 -58 39 -150q0 -113 -57 -178t-166 -65q-70 0 -123 39l-36 -41l-42 35l40 46q-36 52 -36 142q0 116 59.5 182t164.5 66q69 0 119 -38zM142 144l174 208q-30 44 -74 44q-49 0 -80.5 -45t-31.5 -121q0 -48 12 -86zM340 297l-175 -208
q31 -47 79 -47q53 0 81 47.5t28 119.5q0 52 -13 88z" />
    <glyph glyph-name="ugrave" unicode="&#xf9;" horiz-adv-x="507" 
d="M137 599l46 70q34 -20 68.5 -58t58.5 -80l-42 -35q-57 65 -131 103zM431 447v-268q0 -91 9 -122l71 -11l1 -31l-168 -31q-12 17 -16 50l-5 2q-85 -51 -149 -51q-56 0 -80 37.5t-24 124.5v168q0 47 -1 62q0 7 -3.5 9t-20.5 5l-38 6v43l169 7v-271q0 -68 14 -92.5t51 -24.5
q49 0 70 35q14 25 14 81v140q0 32 -2 62q-1 7 -4 9t-20 5l-38 6v43z" />
    <glyph glyph-name="uacute" unicode="&#xfa;" horiz-adv-x="507" 
d="M293 673l58 -52q-64 -74 -171 -124l-30 50q76 45 143 126zM431 447v-268q0 -91 9 -122l71 -11l1 -31l-168 -31q-12 17 -16 50l-5 2q-85 -51 -149 -51q-56 0 -80 37.5t-24 124.5v168v62q-1 7 -4.5 9t-19.5 5l-39 6v43l169 7v-271q0 -67 14 -92t51 -25q49 0 70 35
q14 23 14 81v140q0 47 -1 62q-1 7 -4 9t-20 5l-39 6v43z" />
    <glyph glyph-name="ucircumflex" unicode="&#xfb;" horiz-adv-x="507" 
d="M239 673l130 -135l-38 -41l-94 76l-98 -76l-31 35zM431 447v-268q0 -91 9 -122l71 -11l1 -31l-168 -31q-12 17 -16 50l-5 2q-85 -51 -149 -51q-56 0 -80 37.5t-24 124.5v168v62q-1 7 -4.5 9t-19.5 5l-39 6v43l169 7v-271q0 -67 14 -92t51 -25q49 0 70 35q14 23 14 81v140
q0 47 -1 62q-1 7 -4 9t-20 5l-39 6v43z" />
    <glyph glyph-name="udieresis" unicode="&#xfc;" horiz-adv-x="507" 
d="M152 621h1q11 0 36 -20t25 -32t-24.5 -40t-35.5 -28q-12 0 -37 20t-25 32q0 13 24 40.5t36 27.5zM319 621h1q11 0 36.5 -20.5t25.5 -31.5q0 -12 -24.5 -40t-35.5 -28q-12 0 -37 20t-25 32q0 13 23.5 40.5t35.5 27.5zM431 447v-268q0 -91 9 -122l71 -11l1 -31l-168 -31
q-12 17 -16 50l-5 2q-85 -51 -149 -51q-56 0 -80 37.5t-24 124.5v168q0 47 -1 62q0 7 -3.5 9t-20.5 5l-38 6v43l169 7v-271q0 -68 14 -92.5t51 -24.5q49 0 70 35q14 25 14 81v140q0 32 -2 62q-1 7 -4 9t-20 5l-38 6v43z" />
    <glyph glyph-name="yacute" unicode="&#xfd;" horiz-adv-x="446" 
d="M307 673l58 -52q-66 -74 -172 -124l-30 50q77 44 144 126zM239 111l64 159q33 82 33 106q0 12 -22 17l-38 8l-1 43q50 -3 95 -3q40 0 93 3v-43l-43 -7q-33 -89 -71 -174q-58 -136 -129 -318q-38 -100 -52 -123q-14 -21 -37 -21q-30 0 -73 44q75 74 124 179l-141 378
q-13 35 -33 39l-17 3v43q60 -3 109 -3q50 0 109 3v-43l-41 -8q-22 -5 -22 -16q0 -10 6 -25l20 -56q33 -93 64 -185h3z" />
    <glyph glyph-name="thorn" unicode="&#xfe;" horiz-adv-x="495" 
d="M178 719v-319q80 53 155 53q131 0 131 -194q0 -130 -55 -202t-155 -72q-38 0 -76 15v-81q0 -28 2 -52q2 -11 12 -11q7 0 15 2q3 0 15.5 1.5l25 3t20.5 1.5v-52q-140 -10 -244 -57l-19 46q10 6 43 19q19 9 20 11q4 7 4 68v512q0 165 -20 288q61 12 107 35zM267 379h-1
q-49 0 -71 -36q-17 -22 -17 -94v-171q32 -33 71 -33q105 0 105 186q0 148 -87 148z" />
    <glyph glyph-name="ydieresis" unicode="&#xff;" horiz-adv-x="446" 
d="M153 621h1q11 0 36 -20t25 -32t-24.5 -40t-35.5 -28q-12 0 -37 20t-25 32q0 13 24 40.5t36 27.5zM320 621h1q11 0 36.5 -20.5t25.5 -31.5q0 -12 -24 -40t-36 -28q-11 0 -36.5 20.5t-25.5 31.5q0 13 23.5 40.5t35.5 27.5zM239 111l64 159q33 82 33 106q0 12 -22 17l-38 8
l-1 43q50 -3 95 -3q40 0 93 3v-43l-43 -7q-33 -89 -71 -174q-58 -136 -129 -318q-38 -100 -52 -123q-14 -21 -37 -21q-30 0 -73 44q75 74 124 179l-141 378q-13 35 -33 39l-17 3v43q60 -3 109 -3q50 0 109 3v-43l-41 -8q-22 -5 -22 -16q0 -10 6 -25l20 -56q33 -93 64 -185h3
z" />
    <glyph glyph-name="dotlessi" unicode="&#x131;" horiz-adv-x="265" 
d="M167 456l26 -14q-4 -41 -4 -125v-198q0 -25 2 -63q1 -7 4 -9t19 -4l39 -7v-41q-63 3 -117 3q-57 0 -117 -3v41l39 7q16 2 19 4t4 9q2 38 2 63v114q0 74 -5 131l-58 12v30q80 14 147 50z" />
    <glyph glyph-name="Lslash" unicode="&#x141;" horiz-adv-x="512" 
d="M451 181l47 -7l-16 -179q-91 0 -193 2.5t-123 2.5q-63 0 -132 -5l1 46l52 7q16 2 19.5 4t4.5 9q2 38 2 63v151l-78 -32v68l78 31v158q0 24 -2 62q-1 7 -5 9.5t-19 4.5l-52 6v47q84 -4 136 -4q75 0 155 4v-47l-74 -6q-15 -1 -19 -3.5t-5 -10.5q-1 -19 -1 -62v-120l152 60
v-68l-152 -60v-179q0 -46 4 -57q5 -14 16.5 -18t48.5 -4q104 0 118 13q15 14 37 114z" />
    <glyph glyph-name="lslash" unicode="&#x142;" horiz-adv-x="266" 
d="M185 719v-261l75 39v-64l-75 -38v-274q0 -25 2 -63q1 -7 4 -9t19 -4l39 -7v-43q-63 3 -117 3q-55 0 -115 -3v43l38 7q16 2 19.5 4t4.5 9q2 38 2 63v228l-75 -38v64l75 38v20q0 133 -20 266q51 9 104 35z" />
    <glyph glyph-name="OE" unicode="&#x152;" horiz-adv-x="831" 
d="M542 568v-215l88 3q29 1 35 5q8 5 11 46h51q-4 -45 -4 -81q0 -31 7 -106l-51 -4q-7 48 -11 58q-4 11 -13.5 13.5t-33.5 2.5h-79v-157q0 -45 5 -59q5 -12 17 -16t43 -4q95 0 109 13q16 15 37 114l48 -7l-17 -179q-59 0 -175 2q-101 3 -201 3q-23 -6 -46 -9q-22 -3 -46 -3
q-128 0 -204 82.5t-76 221.5q0 149 91 245.5t232 96.5q44 0 93 -10h48q170 0 255 5l-11 -175h-41q-12 67 -18 89q-4 14 -14.5 18t-47.5 5q-27 2 -56 2h-25zM148 329v-1q0 -122 56.5 -198t147.5 -76q44 0 69 14q8 4 10 13.5t2 41.5v370q0 35 -4 43q-8 12 -38.5 21t-55.5 9
q-85 0 -136 -64.5t-51 -172.5z" />
    <glyph glyph-name="oe" unicode="&#x153;" horiz-adv-x="695" 
d="M659 243h-236v-23q7 -151 125 -151q51 0 108 36l23 -35q-103 -85 -184 -85q-75 0 -126 71q-38 -38 -73.5 -54.5t-81.5 -16.5q-87 0 -135.5 58t-48.5 164q0 111 58.5 178.5t152.5 67.5q83 0 141 -68q55 68 135 68q67 0 107 -43t40 -114q0 -27 -5 -53zM328 207v1
q0 187 -94 187q-45 0 -70 -44t-25 -124q0 -86 26 -135t70 -49t68.5 43t24.5 121zM427 295l129 12v17q0 30 -15 48.5t-39 18.5q-57 0 -75 -96z" />
    <glyph glyph-name="Scaron" unicode="&#x160;" horiz-adv-x="458" 
d="M245 676l-130 99l27 41l106 -50l108 50l21 -36zM385 435h-42q-8 72 -20 102q-16 37 -76 37q-44 0 -70.5 -26t-26.5 -69q0 -25 8.5 -43.5t31.5 -34t37 -22.5t51 -24q37 -16 57 -27.5t43 -31t33 -46.5t10 -63q0 -91 -62.5 -146.5t-164.5 -55.5q-75 0 -159 42l10 181h55
q-1 -17 -1 -38q0 -65 23.5 -93t80.5 -28q50 0 80.5 28t30.5 77q0 46 -28 71t-89 53q-30 14 -40.5 19t-34.5 18t-33.5 23.5t-22.5 27.5t-18 37t-5 45q0 87 63 138t165 51q58 0 124 -17z" />
    <glyph glyph-name="scaron" unicode="&#x161;" horiz-adv-x="332" 
d="M169 497l-130 136l39 40l94 -76l98 76l31 -35zM290 416v-1q0 -16 -27 -68q-60 27 -99 27q-20 0 -32 -10.5t-12 -27.5q0 -18 17 -32.5t66 -37.5q62 -29 83 -49.5t21 -54.5q0 -45 -42 -95q-61 -82 -124 -82q-47 0 -102 30q-24 13 -24 29q0 20 39 63q63 -38 106 -38
q24 0 39.5 13.5t15.5 35.5q0 21 -18 36t-68 39q-55 26 -76.5 47t-21.5 56q0 42 44 95q54 62 111 62q42 0 85 -16q19 -8 19 -21z" />
    <glyph glyph-name="Ydieresis" unicode="&#x178;" horiz-adv-x="543" 
d="M193 797h1q13 0 38 -20.5t25 -32.5q0 -13 -24.5 -41t-36.5 -28q-13 0 -38.5 20t-25.5 32q0 14 24 42t37 28zM377 797h1q13 0 38.5 -20t25.5 -33q0 -14 -24.5 -41t-37.5 -27q-12 0 -37.5 20t-25.5 32q0 14 23.5 41.5t36.5 27.5zM293 340l69 122q45 79 45 101q0 13 -21 14
l-54 5v47q68 -5 116 -5q42 0 110 5v-47l-60 -8q-23 -43 -87 -155q-25 -43 -87 -154v-141q0 -44 1 -63q1 -7 4.5 -9t19.5 -4l53 -7v-46q-82 4 -135 4q-57 0 -135 -4v46l53 7q16 2 19.5 4t4.5 9q2 38 2 63v140l-151 274q-14 25 -22 32.5t-25 9.5l-19 2v47q72 -5 124 -5
q55 0 123 5v-47l-42 -4q-23 -2 -23 -16q0 -11 17 -43l22 -38q12 -21 76 -141h2z" />
    <glyph glyph-name="Zcaron" unicode="&#x17d;" horiz-adv-x="546" 
d="M285 676l-130 99l27 41l106 -50l108 50l20 -36zM92 452h-40l-10 177q135 -5 231 -5q92 0 219 5l17 -39l-342 -531h162q72 0 100 6q13 3 22 16q15 26 34 100l43 -7l-15 -179q-76 0 -185.5 2t-154.5 2q-68 0 -133 -4l-19 35l347 537h-129q-68 0 -89 -2t-30 -11
q-15 -14 -28 -102z" />
    <glyph glyph-name="zcaron" unicode="&#x17e;" horiz-adv-x="390" 
d="M206 497l-130 136l39 40l93 -76l98 76l31 -35zM83 278h-51v166q108 -4 154 -4q54 0 172 4l14 -19l-219 -373h37q93 0 106 10q18 16 19 99h49v-166q-73 4 -176 4q-87 0 -158 -4l-12 20l218 371h-63q-44 0 -58 -3t-19 -12q-13 -22 -13 -93z" />
    <glyph glyph-name="florin" unicode="&#x192;" horiz-adv-x="448" 
d="M361 359v-54h-107l-9 -134q-6 -97 -18 -149t-43 -99q-21 -36 -53.5 -66t-62.5 -44q-18 -9 -55 -9q-26 0 -42.5 7t-16.5 18q0 22 22 68q42 -14 62 -14q38 0 55 28q22 33 36 133q11 89 13 136l9 125h-56v54h60q9 100 53.5 186t94.5 86q58 0 96 -16q14 -6 14 -18
q0 -26 -22 -68q-56 19 -83 19q-23 0 -30 -22q-12 -29 -21 -167h104z" />
    <glyph glyph-name="circumflex" unicode="&#x2c6;" horiz-adv-x="421" 
d="M211 673l130 -135l-39 -41l-93 76l-99 -76l-30 35z" />
    <glyph glyph-name="caron" unicode="&#x2c7;" horiz-adv-x="421" 
d="M210 497l-130 136l39 40l93 -76l98 76l31 -35z" />
    <glyph glyph-name="uni02C9" unicode="&#x2c9;" horiz-adv-x="442" 
d="M123 610l228 -1l7 -16l-36 -54h-230l-8 14z" />
    <glyph glyph-name="breve" unicode="&#x2d8;" horiz-adv-x="475" 
d="M282 640h71q1 -8 1 -20q0 -101 -126 -101q-105 0 -105 106q30 24 86 26q0 -53 11 -71.5t36 -18.5q31 0 31 39q0 22 -5 40z" />
    <glyph glyph-name="dotaccent" unicode="&#x2d9;" horiz-adv-x="475" 
d="M235 635h1q14 0 40 -21.5t26 -35.5q0 -15 -25.5 -44t-39.5 -29q-13 0 -39.5 21.5t-26.5 34.5q0 16 24 45t40 29z" />
    <glyph glyph-name="ring" unicode="&#x2da;" horiz-adv-x="475" 
d="M237 707h1q42 0 72.5 -30t30.5 -73t-30.5 -73t-73.5 -30t-73 30t-30 73t30 73t73 30zM237 658h-1q-22 0 -37.5 -16t-15.5 -38t15.5 -38t38.5 -16t39 16t16 38t-16 38t-39 16z" />
    <glyph glyph-name="ogonek" unicode="&#x2db;" horiz-adv-x="475" 
d="M346 10h37q-47 -22 -47 -61q0 -20 14.5 -33.5t34.5 -13.5q21 0 41 15l17 -16q-35 -54 -86 -54q-41 0 -65.5 22t-24.5 57q0 62 79 84z" />
    <glyph glyph-name="tilde" unicode="&#x2dc;" horiz-adv-x="486" 
d="M352 629l31 -11q-17 -53 -37 -75t-46 -22q-18 0 -69 22q-42 18 -57 18t-23.5 -7.5t-16.5 -27.5l-31 12q32 95 85 95q22 0 73 -22q37 -16 54 -16q24 0 37 34z" />
    <glyph glyph-name="hungarumlaut" unicode="&#x2dd;" horiz-adv-x="475" 
d="M152 497l-31 25q45 73 77 162l74 -44q-50 -84 -120 -143zM296 497l-31 25q45 73 77 162l74 -44q-53 -87 -120 -143z" />
    <glyph glyph-name="uni03A9" unicode="&#x3a9;" horiz-adv-x="586" 
d="M556 144l-16 -144h-198l-10 24q3 9 27.5 68.5t33.5 86t20 77t11 92.5q-1 109 -34.5 166.5t-97.5 57.5q-129 0 -129 -231q0 -21 2.5 -43.5t5.5 -40.5t10.5 -43t12 -39.5t14.5 -41.5t14 -37t16 -38t14 -34l-9 -24h-200l-14 144l40 2q10 -46 20.5 -58.5t37.5 -12.5h65
q-145 131 -145 283q0 126 73 202.5t178 76.5q107 0 173.5 -74.5t66.5 -195.5q0 -145 -149 -292h71q25 0 35.5 12.5t20.5 58.5z" />
    <glyph glyph-name="uni03BC" unicode="&#x3bc;" horiz-adv-x="501" 
d="M502 46l1 -32l-166 -30q-12 19 -16 50l-5 1q-85 -51 -149 -51q-21 0 -39 8q0 -75 9 -169l-92 -31l-20 16q42 198 42 340v66q0 81 -21 210q42 7 103 34l21 -14v-270q0 -67 13.5 -91.5t50.5 -24.5q46 0 69 36q17 27 17 81v39q0 81 -21 210q44 8 102 35l20 -15v-265
q0 -83 11 -122z" />
    <glyph glyph-name="pi" unicode="&#x3c0;" horiz-adv-x="488" 
d="M428 465l39 -7q-9 -24 -30 -105q-20 -5 -57 -5q-4 -49 -4 -204q0 -81 37 -81q9 0 48 12l13 -39q-79 -48 -115 -48q-49 0 -72 47q-14 31 -14 81q0 66 9 235q-21 0 -51.5 1t-47.5 1v-13q0 -217 -56 -337q-23 -8 -79 -16l-6 24q43 62 63 159.5t20 184.5q-33 1 -52 -6
t-47 -26l-17 34q33 41 55 56q41 26 98 26q30 0 103 -1.5t116 -1.5q20 0 25.5 1.5t10.5 9.5q6 10 11 18z" />
    <glyph glyph-name="figuredash" unicode="&#x2012;" horiz-adv-x="448" 
d="M36 354h376v-88h-376v88z" />
    <glyph glyph-name="endash" unicode="&#x2013;" horiz-adv-x="459" 
d="M43 274h372v-89h-372v89z" />
    <glyph glyph-name="emdash" unicode="&#x2014;" horiz-adv-x="701" 
d="M43 274h615v-89h-615v89z" />
    <glyph glyph-name="quoteleft" unicode="&#x2018;" horiz-adv-x="255" 
d="M188 719l25 -20q-61 -88 -61 -135q0 -28 36 -60q-44 -68 -66 -68q-18 0 -41 27t-23 62q0 72 113 194h17z" />
    <glyph glyph-name="quoteright" unicode="&#x2019;" horiz-adv-x="255" 
d="M66 427l-24 21q61 92 61 134q0 30 -36 62q43 66 66 66q17 0 40 -26.5t23 -61.5q0 -73 -112 -195h-18z" />
    <glyph glyph-name="quotesinglbase" unicode="&#x201a;" horiz-adv-x="255" 
d="M66 -129l-24 20q61 92 61 135q0 29 -36 61q44 67 66 67q17 0 40 -26.5t23 -61.5q0 -73 -112 -195h-18z" />
    <glyph glyph-name="quotedblleft" unicode="&#x201c;" horiz-adv-x="433" 
d="M188 719l24 -20q-61 -91 -61 -135q0 -28 36 -60q-44 -68 -66 -68q-17 0 -40 27t-23 62q0 72 112 194h18zM366 719l25 -20q-61 -88 -61 -135q0 -28 36 -60q-44 -68 -66 -68q-18 0 -41 27t-23 62q0 72 112 194h18z" />
    <glyph glyph-name="quotedblright" unicode="&#x201d;" horiz-adv-x="433" 
d="M67 428l-25 20q61 92 61 135q0 30 -36 61q43 66 66 66q18 0 41 -26.5t23 -61.5q0 -70 -112 -194h-18zM245 428l-25 20q61 88 61 135q0 29 -36 61q43 66 66 66q18 0 41 -26.5t23 -61.5q0 -71 -113 -194h-17z" />
    <glyph glyph-name="quotedblbase" unicode="&#x201e;" horiz-adv-x="433" 
d="M66 -129l-24 20q61 92 61 135q0 29 -36 61q44 67 66 67q17 0 40 -26.5t23 -61.5q0 -73 -112 -195h-18zM245 -129l-26 20q62 89 62 135q0 29 -36 61q44 67 66 67q18 0 40.5 -26.5t22.5 -61.5q0 -73 -112 -195h-17z" />
    <glyph glyph-name="dagger" unicode="&#x2020;" horiz-adv-x="481" 
d="M448 451v-95q-107 29 -205 29q-102 0 -209 -29v95h170q-1 83 -23 181q25 5 63 5q34 0 58 -5q-23 -103 -24 -181h170zM206 -176v139q0 201 -25 372q30 7 61 7q29 0 60 -7q-27 -160 -27 -372v-129l-48 -25z" />
    <glyph glyph-name="daggerdbl" unicode="&#x2021;" horiz-adv-x="481" 
d="M34 262h170q0 68 -9 129q-77 -5 -161 -27v95h170q0 71 -23 173q27 5 63 5q31 0 58 -5q-24 -106 -24 -173h170v-95q-84 22 -161 27q-9 -61 -9 -129h170v-95q-107 29 -205 29q-102 0 -209 -29v95zM208 -174v45q0 121 -27 275q26 6 61 6q33 0 60 -6q-28 -138 -28 -275v-37
l-45 -23z" />
    <glyph glyph-name="bullet" unicode="&#x2022;" horiz-adv-x="390" 
d="M195 441h1q52 0 85.5 -34.5t33.5 -88.5t-33.5 -88.5t-86.5 -34.5t-86.5 34.5t-33.5 88.5t33.5 88.5t86.5 34.5z" />
    <glyph glyph-name="onedotenleader" unicode="&#x2024;" horiz-adv-x="282" 
d="M140 135h1q14 0 45 -26t31 -39q0 -14 -32 -49.5t-46 -35.5t-44 26.5t-30 39.5q0 15 31 49.5t44 34.5z" />
    <glyph glyph-name="twodotenleader" unicode="&#x2025;" horiz-adv-x="559" 
d="M140 135h1q14 0 45 -26t31 -39q0 -14 -32 -49.5t-46 -35.5t-44 26.5t-30 39.5q0 15 31 49.5t44 34.5zM418 135h1q14 0 44.5 -26t30.5 -39q0 -14 -32 -49.5t-45 -35.5q-14 0 -44.5 26.5t-30.5 39.5q0 15 31 49.5t45 34.5z" />
    <glyph glyph-name="ellipsis" unicode="&#x2026;" horiz-adv-x="836" 
d="M140 135h1q14 0 45 -26t31 -39q0 -14 -32 -49.5t-46 -35.5t-44 26.5t-30 39.5q0 15 31 49.5t44 34.5zM418 135h1q14 0 44.5 -26t30.5 -39q0 -14 -32 -49.5t-45 -35.5q-14 0 -44.5 26.5t-30.5 39.5q0 16 31 50t45 34zM695 135h1q14 0 44.5 -26t30.5 -39q0 -15 -31.5 -50
t-45.5 -35t-44.5 26.5t-30.5 39.5q0 15 31.5 49.5t44.5 34.5z" />
    <glyph glyph-name="perthousand" unicode="&#x2030;" horiz-adv-x="1114" 
d="M194 637h1q67 0 103 -42.5t36 -120.5q0 -79 -43.5 -126.5t-116.5 -47.5q-69 0 -106.5 41t-37.5 116q0 81 44.5 130.5t119.5 49.5zM184 573h-1q-34 0 -52 -28t-18 -76q0 -106 68 -106q33 0 52 27.5t19 77.5q0 105 -68 105zM594 324h1q67 0 103.5 -43t36.5 -121t-44 -126.5
t-117 -48.5q-69 0 -106.5 41.5t-37.5 116.5q0 81 44.5 131t119.5 50zM584 259h-1q-34 0 -52.5 -27.5t-18.5 -75.5q0 -106 70 -106q33 0 51.5 27.5t18.5 76.5q0 105 -68 105zM944 324h1q66 0 102 -43t36 -121q0 -79 -43.5 -127t-116.5 -48q-69 0 -106.5 41.5t-37.5 116.5
q0 81 45 131t120 50zM933 259h-1q-34 0 -52 -27.5t-18 -75.5q0 -106 70 -106q33 0 51 27t18 77q0 105 -68 105zM495 636l62 -27l-289 -622l-62 28z" />
    <glyph glyph-name="guilsinglleft" unicode="&#x2039;" horiz-adv-x="231" 
d="M148 387l57 -50l-97 -112l97 -111l-58 -50l-135 161z" />
    <glyph glyph-name="guilsinglright" unicode="&#x203a;" horiz-adv-x="231" 
d="M83 387l136 -162l-136 -161l-57 50l96 111l-96 112z" />
    <glyph glyph-name="fraction" unicode="&#x2044;" horiz-adv-x="183" 
d="M204 637l61 -27l-289 -623l-60 28z" />
    <glyph glyph-name="zero.superior" unicode="&#x2070;" 
d="M287 575v-1q0 -91 -41 -147.5t-105 -56.5q-59 0 -92.5 46t-33.5 132q0 98 40.5 153.5t106.5 55.5q60 0 92.5 -47.5t32.5 -134.5zM203 562v1q0 148 -53 148q-51 0 -51 -147q0 -148 52 -148t52 146z" />
    <glyph glyph-name="four.superior" unicode="&#x2074;" 
d="M165 465h-156v42q26 62 72 129t94 118h64q-3 -54 -3 -96v-140h47q5 -29 0 -46l-10 -7h-37v-11v-17t0.5 -12t0.5 -5q1 -2 11 -4l39 -5v-37q-87 3 -89 3t-95 -3v36l50 5q10 1 11 4q1 5 1 35v11zM165 518v151q-26 -29 -54 -74.5t-39 -76.5h93z" />
    <glyph glyph-name="five.superior" unicode="&#x2075;" 
d="M39 592l27 159q94 0 197 7q2 -7 2 -19q0 -9 -2 -16l-7 -9l-136 -16q-10 -18 -22 -70q13 4 25 5q18 2 27 2q52 0 84.5 -24t32.5 -71q0 -65 -51.5 -117.5t-117.5 -52.5q-29 0 -51 8t-22 21q0 24 25 49q13 -9 32 -17q18 -5 32 -5q29 0 51.5 20.5t22.5 63.5q0 39 -20.5 57.5
t-54.5 18.5q-27 0 -56 -10z" />
    <glyph glyph-name="six.superior" unicode="&#x2076;" 
d="M193 769l31 -38q-75 -51 -101 -120q33 12 61 12q44 0 70.5 -23.5t26.5 -67.5q0 -66 -43.5 -112.5t-107.5 -46.5q-49 0 -79 33t-30 89q0 85 47.5 155.5t124.5 118.5zM200 501v1q0 77 -48 77q-23 0 -36.5 -20.5t-13.5 -58.5q0 -40 13.5 -61t33.5 -21q21 0 36 21.5t15 61.5z
" />
    <glyph glyph-name="seven.superior" unicode="&#x2077;" 
d="M276 752l11 -16q-26 -49 -27 -50q-59 -115 -80 -168q-24 -61 -24 -105q0 -11 6 -33q-28 -12 -56 -12q-36 0 -36 49q0 34 19 72q34 73 117 204h-171q-3 14 -3 30q0 17 3 29h241z" />
    <glyph glyph-name="eight.superior" unicode="&#x2078;" 
d="M269 680v-1q0 -54 -66 -88q41 -20 61.5 -42t20.5 -55q0 -52 -45 -88t-107 -36q-53 0 -84 25t-31 67q0 66 78 106q-60 34 -60 82q0 45 39.5 76t93.5 31q47 0 73.5 -20t26.5 -57zM115 665v-1q0 -18 11 -29.5t39 -25.5q29 24 29 57q0 23 -11 35.5t-28 12.5q-18 0 -29 -13.5
t-11 -35.5zM203 472v1q0 42 -70 76q-36 -29 -36 -73q0 -30 14 -46.5t37 -16.5q24 0 39.5 15.5t15.5 43.5z" />
    <glyph glyph-name="nine.superior" unicode="&#x2079;" 
d="M110 360l-31 39q85 61 105 131q-37 -13 -67 -13q-44 0 -70 24t-26 65q0 61 45.5 106t107.5 45q49 0 78.5 -32.5t29.5 -87.5q0 -82 -46.5 -154t-125.5 -123zM200 639v1q0 36 -13 53.5t-34 17.5q-22 0 -36.5 -21.5t-14.5 -58.5q0 -34 14 -51.5t35 -17.5q22 0 35.5 19.5
t13.5 57.5z" />
    <glyph glyph-name="parenleft.superior" unicode="&#x207d;" horiz-adv-x="212" 
d="M133 685l56 -35q-74 -102 -74 -207q0 -101 74 -213l-56 -34q-88 126 -88 246q0 119 88 243z" />
    <glyph glyph-name="parenright.superior" unicode="&#x207e;" horiz-adv-x="212" 
d="M23 650l57 35q87 -122 87 -243q0 -122 -87 -246l-57 34q74 112 74 213q0 105 -74 207z" />
    <glyph glyph-name="n.superior" unicode="&#x207f;" horiz-adv-x="381" 
d="M120 556l20 -10v-27h3q57 34 107 34q47 0 63.5 -27t16.5 -81v-109q0 -27 1 -38q0 -6 12 -7l32 -5v-33q-68 2 -89 2q-16 0 -82 -2v33l25 5q14 3 14 7q1 12 1 38v95q0 38 -10 53t-37 15q-31 0 -45 -20q-10 -16 -10 -52v-91q0 -27 1 -38q0 -6 11 -7l28 -5v-33q-68 2 -84 2
q-21 0 -87 -2v33l30 5q14 1 14 7q1 11 1 38v152l-44 9v25q60 11 108 34z" />
    <glyph glyph-name="zero.inferior" unicode="&#x2080;" 
d="M287 71v-1q0 -91 -41 -148t-105 -57q-59 0 -92.5 46t-33.5 133q0 98 40.5 153.5t106.5 55.5q60 0 92.5 -47.5t32.5 -134.5zM203 57v1q0 149 -53 149q-51 0 -51 -147q0 -149 52 -149t52 146z" />
    <glyph glyph-name="one.inferior" unicode="&#x2081;" 
d="M35 190v40q94 8 150 29l18 -12q-6 -38 -6 -100v-194q0 -24 2 -36q0 -1 11 -3l39 -5v-37q-47 3 -96 3q-53 0 -101 -3v37l49 5h7q2 0 3 1q2 2 2 38v246z" />
    <glyph glyph-name="two.inferior" unicode="&#x2082;" 
d="M49 174l-22 32q64 50 135 50q45 0 71.5 -24.5t26.5 -69.5q0 -90 -137 -225l156 -18q4 -22 0 -36l-11 -11q-112 5 -141 5q-16 0 -106 -5l-13 25q89 80 128 139.5t39 114.5q0 26 -13.5 39.5t-36.5 13.5q-33 0 -76 -30z" />
    <glyph glyph-name="three.inferior" unicode="&#x2083;" 
d="M65 172l-24 32q61 49 124 49q35 0 61 -15.5t26 -50.5q0 -53 -71 -91q39 -1 63.5 -19t24.5 -54q0 -63 -56.5 -110.5t-119.5 -47.5q-29 0 -53 9t-24 21q0 19 28 50q34 -24 70 -24q31 0 53.5 18.5t22.5 52.5q0 61 -69 61q-10 0 -38 -4l-10 14l12 27q82 25 82 78q0 33 -35 33
q-28 0 -67 -29z" />
    <glyph glyph-name="four.inferior" unicode="&#x2084;" 
d="M165 -37h-156v42q27 62 72.5 130t93.5 117h64q-3 -52 -3 -96v-140h47q5 -29 0 -45l-10 -8h-37v-11v-17t0.5 -12t0.5 -5q1 -2 11 -4l39 -5v-37q-87 3 -89 3t-95 -3v37l50 5q10 1 11 3q1 5 1 35v11zM165 16v151q-26 -31 -54 -76t-39 -75h93z" />
    <glyph glyph-name="five.inferior" unicode="&#x2085;" 
d="M39 87l27 159q79 0 197 8q2 -7 2 -19q0 -9 -2 -16l-7 -9l-136 -17q-9 -17 -22 -69q23 7 52 7q53 0 85 -23.5t32 -71.5q0 -65 -51.5 -118t-117.5 -53q-28 0 -50.5 8.5t-22.5 21.5q0 23 25 48q29 -21 64 -21q29 0 51.5 20t22.5 64q0 39 -20.5 57.5t-54.5 18.5
q-27 0 -56 -10z" />
    <glyph glyph-name="six.inferior" unicode="&#x2086;" 
d="M193 262l31 -38q-75 -51 -101 -120q33 12 61 12q44 0 70.5 -23.5t26.5 -67.5q0 -66 -43.5 -113t-107.5 -47q-49 0 -79 33.5t-30 90.5q0 85 47.5 155t124.5 118zM200 -5v1q0 75 -48 75q-23 0 -36.5 -19.5t-13.5 -57.5q0 -41 13.5 -62t33.5 -21q21 0 36 21.5t15 62.5z" />
    <glyph glyph-name="seven.inferior" unicode="&#x2087;" 
d="M276 249l11 -15q-3 -6 -13.5 -25.5t-13.5 -25.5q-56 -108 -80 -168q-24 -61 -24 -105q0 -10 6 -32q-30 -13 -56 -13q-36 0 -36 49q0 33 19 73q34 73 117 204h-171q-3 14 -3 29q0 17 3 29h241z" />
    <glyph glyph-name="eight.inferior" unicode="&#x2088;" 
d="M269 176v-1q0 -55 -66 -89q41 -21 61.5 -42t20.5 -54q0 -52 -45.5 -88.5t-106.5 -36.5q-53 0 -84 25t-31 68q0 65 78 105q-60 34 -60 82q0 45 40 76.5t93 31.5q47 0 73.5 -20t26.5 -57zM115 161v-1q0 -18 11 -30t39 -26q29 23 29 58q0 23 -11 35t-28 12q-18 0 -29 -13
t-11 -35zM203 -33v1q0 26 -18 43t-52 33q-36 -29 -36 -72q0 -31 14 -47.5t37 -16.5q24 0 39.5 16t15.5 43z" />
    <glyph glyph-name="nine.inferior" unicode="&#x2089;" 
d="M110 -143l-31 38q85 63 105 132q-36 -14 -67 -14q-44 0 -70 23.5t-26 64.5q0 61 45.5 106.5t107.5 45.5q49 0 78.5 -32.5t29.5 -87.5q0 -82 -47 -154t-125 -122zM200 135v1q0 36 -13 54t-34 18q-22 0 -36.5 -22t-14.5 -59q0 -34 14 -51.5t35 -17.5q22 0 35.5 19.5
t13.5 57.5z" />
    <glyph glyph-name="parenleft.inferior" unicode="&#x208d;" horiz-adv-x="212" 
d="M133 433l56 -35q-74 -102 -74 -207q0 -101 74 -213l-56 -34q-88 126 -88 246q0 119 88 243z" />
    <glyph glyph-name="parenright.inferior" unicode="&#x208e;" horiz-adv-x="212" 
d="M23 399l57 35q87 -122 87 -243q0 -120 -87 -246l-57 34q74 112 74 213q0 105 -74 207z" />
    <glyph glyph-name="colonmonetary" unicode="&#x20a1;" horiz-adv-x="526" 
d="M407 702l-12 -104q50 2 75 2l16 -182l-37 -6q-17 63 -34 95q-11 18 -27 23l-50 -456h8q69 0 83 30q19 42 33 104l39 -4l-10 -159q-67 -22 -158 -24l-14 -128l-45 6l13 123q-38 4 -57 9l-15 -138l-45 6l16 145q-78 29 -119.5 92t-41.5 154q0 142 96 223q52 45 122 64
l14 130l46 -5l-12 -113q11 2 58 7l11 111zM293 79l49 459h-9q-23 0 -48 -5l-47 -435q21 -10 55 -19zM195 131l42 385q-105 -55 -105 -204q0 -120 63 -181z" />
    <glyph glyph-name="Euro" unicode="&#x20ac;" horiz-adv-x="448" 
d="M24 284h48v11q0 17 2 49h-50v56h58q24 115 92.5 178.5t150.5 63.5q43 0 70 -12.5t27 -30.5q0 -34 -23 -71q-53 36 -101 36q-50 0 -79 -36.5t-38 -127.5h197l-12 -56h-189v-27q0 -6 0.5 -17t0.5 -16h175l-11 -56h-159q12 -87 46.5 -127t79.5 -40q52 0 97 27l23 -47
q-62 -51 -142 -51q-82 0 -140.5 57.5t-71.5 180.5h-51v56z" />
    <glyph glyph-name="afii61289" unicode="&#x2113;" horiz-adv-x="365" 
d="M324 117l30 -20q-54 -110 -151 -110q-61 0 -90 37q-17 24 -24.5 52t-7.5 85v69l-40 -36l-25 40l64 46v121q0 92 9 147.5t38 93.5q36 51 85 51q41 0 65 -36t24 -91q0 -143 -125 -275v-92q0 -79 16.5 -110t53.5 -31q18 0 33.5 10t24.5 20.5t20 28.5zM176 452v-102
q65 84 65 216q0 78 -29 78q-12 0 -19.5 -15t-12 -58t-4.5 -119z" />
    <glyph glyph-name="trademark" unicode="&#x2122;" horiz-adv-x="561" 
d="M372 491l33 96q3 7 13 43q17 -2 46 -2q27 0 39 1v-21l-15 -2q-7 -1 -7 -7t1 -13l7 -108q1 -3 1 -7.5v-6.5q2 -4 6 -4l9 -1v-23q-20 2 -47 2q-19 0 -43 -2v23l20 2q6 1 6 4v9l-7 103l-31 -88q-1 -4 -7.5 -23t-9.5 -30h-44l-48 141q-1 -10 -6 -101v-11q0 -3 6 -4l20 -2v-23
q-24 2 -40 2q-14 0 -42 -2v23l13 2q5 0 6 2q2 4 3 14t6 65q4 37 4 56q0 6 -7 7l-15 3v21q12 -1 40 -1q31 0 43 2zM161 601v-122q0 -9 1 -14q0 -2 5 -4l17 -2v-23q-30 2 -49 2q-18 0 -48 -2v23l18 2q5 1 5 4q1 5 1 14v122q-28 0 -30 -5q-3 -6 -6 -36h-24l-4 69q50 -2 91 -2
q34 0 86 2l-3 -69h-24q-2 26 -6 36q-1 5 -30 5z" />
    <glyph glyph-name="Omega" unicode="&#x2126;" horiz-adv-x="586" 
d="M556 144l-16 -144h-198l-10 24q3 9 27.5 68.5t33.5 86t20 77t11 92.5q-1 109 -34.5 166.5t-97.5 57.5q-129 0 -129 -231q0 -21 2.5 -43.5t5.5 -40.5t10.5 -43t12 -39.5t14.5 -41.5t14 -37t16 -38t14 -34l-9 -24h-200l-14 144l40 2q10 -46 20.5 -58.5t37.5 -12.5h65
q-145 131 -145 283q0 126 73 202.5t178 76.5q107 0 173.5 -74.5t66.5 -195.5q0 -145 -149 -292h71q25 0 35.5 12.5t20.5 58.5z" />
    <glyph glyph-name="estimated" unicode="&#x212e;" horiz-adv-x="815" 
d="M783 305h-608q-5 0 -5 -4v-158q0 -11 8 -21q98 -101 230 -101q71 0 135.5 31t106.5 82h54q-48 -68 -127.5 -108t-169.5 -40q-155 0 -265 99t-110 239t110 239t265 99q160 0 268 -102.5t108 -245.5v-9zM645 352v157q0 13 -9 22q-98 96 -228 96q-132 0 -229 -99
q-9 -9 -9 -23v-153q0 -6 5 -6h466q4 0 4 6z" />
    <glyph glyph-name="onethird" unicode="&#x2153;" horiz-adv-x="741" 
d="M483 637l60 -27l-289 -623l-60 28zM47 569v41q98 9 150 28l18 -12q-5 -40 -5 -100v-194q0 -24 2 -36q1 -1 10 -3l39 -5v-37q-31 2 -96 2q-69 0 -101 -2v36l49 5q9 1 10 2q2 2 2 38v247zM497 295l-24 32q61 49 124 49q35 0 60.5 -15.5t25.5 -50.5q0 -53 -70 -92
q39 0 63 -18t24 -54q0 -63 -56 -110.5t-119 -47.5q-29 0 -53 9t-24 21q0 19 28 50q34 -24 69 -24q31 0 54 18.5t23 52.5q0 61 -70 61q-10 0 -38 -4l-9 14l12 27q81 25 81 78q0 33 -34 33q-28 0 -67 -29z" />
    <glyph glyph-name="twothirds" unicode="&#x2154;" horiz-adv-x="741" 
d="M500 637l59 -27l-289 -623l-60 28zM58 553l-22 32q64 50 135 50q45 0 71 -24.5t26 -69.5q0 -90 -137 -225l156 -18q5 -21 0 -36l-11 -11q-90 4 -140 4q-34 0 -106 -4l-13 25q89 80 127.5 139t38.5 115q0 53 -49 53q-34 0 -76 -30zM513 295l-24 32q62 49 123 49
q35 0 61 -15.5t26 -50.5q0 -54 -71 -91q89 -2 89 -73q0 -63 -56 -110.5t-119 -47.5q-30 0 -54 9t-24 21q0 19 28 50q34 -24 69 -24q31 0 54 18.5t23 52.5q0 61 -70 61q-10 0 -38 -4l-9 14l12 27q81 25 81 78q0 33 -34 33q-28 0 -67 -29z" />
    <glyph glyph-name="oneeighth" unicode="&#x215b;" horiz-adv-x="741" 
d="M693 299v-1q0 -55 -66 -89q40 -20 60.5 -41.5t20.5 -54.5q0 -52 -45 -88.5t-107 -36.5q-53 0 -83.5 25t-30.5 68q0 66 77 105q-59 34 -59 82q0 45 40 76.5t93 31.5q47 0 73.5 -20t26.5 -57zM539 284v-1q0 -18 11 -30t39 -26q28 22 28 58q0 23 -10.5 35t-27.5 12
q-18 0 -29 -13t-11 -35zM627 90v1q0 26 -18.5 43t-52.5 33q-35 -30 -35 -72q0 -31 14 -47.5t37 -16.5q24 0 39.5 15.5t15.5 43.5zM481 637l59 -27l-289 -623l-60 28zM45 569v41q96 9 150 28l17 -12q-5 -40 -5 -100v-194q0 -24 2 -36q1 -1 10 -3l39 -5v-37q-30 2 -95 2
q-70 0 -102 -2v36l49 5q10 1 11 2q2 2 2 38v247z" />
    <glyph glyph-name="threeeighths" unicode="&#x215c;" horiz-adv-x="741" 
d="M694 299v-1q0 -55 -66 -89q40 -20 60.5 -41.5t20.5 -54.5q0 -52 -45 -88.5t-106 -36.5q-53 0 -83.5 25t-30.5 68q0 65 76 105q-59 34 -59 82q0 45 40 76.5t93 31.5q47 0 73.5 -20t26.5 -57zM540 284v-1q0 -31 51 -56q28 23 28 58q0 23 -11 35t-27 12q-18 0 -29.5 -13
t-11.5 -35zM628 90v1q0 26 -18 43t-52 33q-36 -29 -36 -72q0 -31 14 -47.5t37 -16.5t39 15.5t16 43.5zM482 637l60 -27l-289 -623l-60 28zM81 553l-25 33q63 48 125 48q34 0 60 -15t26 -50q0 -53 -71 -92q88 -2 88 -72q0 -63 -56 -110.5t-119 -47.5q-30 0 -54 8.5t-24 20.5
q0 21 29 51q35 -25 69 -25q31 0 54 18.5t23 52.5q0 61 -70 61q-19 0 -38 -4l-10 14l13 27q81 25 81 78q0 34 -35 34q-26 0 -66 -30z" />
    <glyph glyph-name="fiveeighths" unicode="&#x215d;" horiz-adv-x="741" 
d="M688 299v-1q0 -55 -66 -89q41 -20 61 -41.5t20 -54.5q0 -52 -45.5 -88.5t-106.5 -36.5q-53 0 -84 25t-31 68q0 65 78 105q-59 33 -59 82q0 45 39.5 76.5t93.5 31.5q46 0 73 -20t27 -57zM533 284v-1q0 -31 51 -56q28 23 28 58q0 23 -11 35t-27 12q-18 0 -29.5 -13
t-11.5 -35zM622 90v1q0 26 -18.5 43t-52.5 33q-35 -30 -35 -72q0 -31 14 -47.5t37 -16.5t39 15.5t16 43.5zM476 637l60 -27l-290 -623l-59 28zM60 469l27 159q94 0 197 7q2 -7 2 -19q0 -9 -2 -16l-7 -9l-136 -16q-10 -18 -22 -70q23 7 52 7q52 0 84.5 -24t32.5 -71
q0 -65 -51.5 -117.5t-117.5 -52.5q-29 0 -51 8t-22 21q0 25 26 49q30 -22 64 -22q28 0 50.5 20.5t22.5 63.5q0 39 -20.5 57.5t-54.5 18.5q-27 0 -56 -10z" />
    <glyph glyph-name="seveneighths" unicode="&#x215e;" horiz-adv-x="741" 
d="M667 299v-1q0 -55 -66 -89q41 -20 61 -41.5t20 -54.5q0 -52 -45 -88.5t-107 -36.5q-53 0 -83.5 25t-30.5 68q0 66 77 105q-59 33 -59 82q0 45 39.5 76.5t93.5 31.5q46 0 73 -20t27 -57zM512 284v-1q0 -31 51 -56q28 23 28 58q0 23 -10.5 35t-27.5 12q-18 0 -29.5 -13
t-11.5 -35zM600 90v1q0 26 -18 43t-52 33q-35 -30 -35 -72q0 -31 14 -47.5t37 -16.5t38.5 16t15.5 43zM444 637l60 -27l-289 -623l-60 28zM287 629l11 -16q-26 -49 -27 -50q-51 -95 -80 -168q-24 -61 -24 -105q0 -15 6 -33q-29 -12 -57 -12q-35 0 -35 49q0 32 18 72
q38 81 118 204h-171q-4 14 -4 30q0 17 4 29h241z" />
    <glyph glyph-name="partialdiff" unicode="&#x2202;" horiz-adv-x="447" 
d="M222 398h1q59 0 96 -52q6 43 7 94q3 74 -25 141q-13 34 -38 56t-59 22q-49 0 -109 -52q-10 2 -20 21t-10 33q1 26 39 41.5t79 15.5q121 0 184 -134q42 -91 42 -223q0 -129 -42 -232q-29 -66 -75 -105t-108 -39q-69 0 -112 49.5t-43 134.5q0 88 51 159q24 31 62 50.5
t80 19.5zM238 343h-1q-46 0 -76 -53q-35 -65 -35 -151q0 -47 17.5 -75t46.5 -28q49 0 80 82q25 62 38 168q-8 21 -27 39t-43 18z" />
    <glyph glyph-name="Delta" unicode="&#x2206;" horiz-adv-x="536" 
d="M507 0h-486v29l214 604h53l219 -604v-29zM387 55l-151 427l-147 -427h298z" />
    <glyph glyph-name="product" unicode="&#x220f;" horiz-adv-x="695" 
d="M662 686v-47l-52 -6q-15 -2 -19 -4.5t-5 -9.5q-2 -38 -2 -62v-514q0 -24 2 -62q1 -7 5 -9.5t19 -4.5l52 -7v-46q-56 4 -136 4q-81 0 -134 -4v46l53 7q15 2 19 4.5t5 9.5q2 38 2 62v545q0 24 -4 30.5t-21 8.5q-27 5 -105 5q-59 0 -96 -5q-15 -2 -18 -7t-3 -32v-545
q0 -43 1 -62q1 -7 5 -9.5t19 -4.5l52 -7v-46q-55 4 -134 4q-81 0 -134 -4v46l52 7q15 2 19 4.5t5 9.5q2 38 2 62v514q0 24 -2 62q-1 7 -5 9.5t-19 4.5l-52 6v47q56 -4 135 -4h358q83 0 136 4z" />
    <glyph glyph-name="summation" unicode="&#x2211;" horiz-adv-x="462" 
d="M435 104l-20 -189q-176 4 -262 5h-133v26l184 329l-181 381v26h257q52 0 140 5q-1 -15 -4 -49t-5 -64t-2 -54h-34q-4 15 -10 39.5t-9 36.5q-6 24 -20.5 30t-64.5 6l-123 1l150 -316l-179 -318h132q61 0 90 7q14 4 23 21q14 29 34 83z" />
    <glyph glyph-name="minus" unicode="&#x2212;" horiz-adv-x="448" 
d="M49 294h350v-71h-350v71z" />
    <glyph glyph-name="uni2215" unicode="&#x2215;" horiz-adv-x="183" 
d="M204 637l61 -27l-289 -623l-60 28z" />
    <glyph glyph-name="uni2219" unicode="&#x2219;" horiz-adv-x="291" 
d="M145 335h1q15 0 47.5 -28.5t32.5 -41.5q0 -15 -33.5 -52t-48.5 -37q-14 0 -46.5 28.5t-32.5 41.5q0 16 33 52.5t47 36.5z" />
    <glyph glyph-name="radical" unicode="&#x221a;" horiz-adv-x="476" 
d="M467 872l-150 -1023l-25 -1l-179 504l-75 -23l-10 32l149 72l127 -389h2l119 833z" />
    <glyph glyph-name="infinity" unicode="&#x221e;" horiz-adv-x="657" 
d="M619 262v-1q0 -62 -39.5 -104.5t-98.5 -42.5q-39 0 -74.5 21.5t-76.5 75.5q-37 -47 -73.5 -72t-83.5 -25q-54 0 -94.5 41t-40.5 103q0 63 40.5 104t101.5 41q80 0 153 -95q2 3 7 8q24 27 38.5 41.5t45 30t63.5 15.5q57 0 94.5 -39.5t37.5 -101.5zM181 174h1q23 0 47 15.5
t33.5 26.5t33.5 39q-26 35 -35.5 47t-33 27.5t-49.5 15.5q-35 0 -55.5 -25t-20.5 -63q0 -34 23 -58.5t56 -24.5zM480 345h-1q-15 0 -28 -4.5t-26.5 -16t-20.5 -18.5t-22 -24.5t-18 -21.5q41 -50 64.5 -68t54.5 -18q32 0 52.5 27t20.5 57q0 37 -20.5 62t-55.5 25z" />
    <glyph glyph-name="integral" unicode="&#x222b;" horiz-adv-x="365" 
d="M238 241q0 -111 -5 -167.5t-25 -105.5q-21 -53 -57.5 -95t-75.5 -42q-30 0 -47 10t-17 23q0 35 22 71q27 -12 49 -12q34 0 46 49q4 19 7 122v114v219q0 140 44 225q19 41 52.5 77t64.5 36q29 0 55 -14q16 -9 16 -20q0 -26 -22 -73q-35 20 -58 20q-20 0 -36 -32
q-7 -14 -10.5 -45.5t-3.5 -56t0.5 -67t0.5 -47.5v-189z" />
    <glyph glyph-name="approxequal" unicode="&#x2248;" horiz-adv-x="448" 
d="M376 392l31 -19q-45 -95 -120 -95q-31 0 -89 24q-32 16 -56 16t-38 -9.5t-33 -31.5l-30 20q51 95 121 95q24 0 77 -22q49 -18 67 -18q37 0 70 40zM376 236l31 -19q-45 -95 -120 -95q-33 0 -89 25q-33 15 -56 15q-24 0 -38.5 -9.5t-32.5 -31.5l-30 21q51 94 121 94
q24 0 77 -22q47 -17 67 -17q38 0 70 39z" />
    <glyph glyph-name="notequal" unicode="&#x2260;" horiz-adv-x="448" 
d="M49 217h124l34 82h-158v69h188l41 99l56 -22l-32 -77h97v-69h-127l-33 -82h160v-70h-190l-43 -102l-56 22l33 80h-94v70z" />
    <glyph glyph-name="lessequal" unicode="&#x2264;" horiz-adv-x="448" 
d="M366 461l33 -68l-220 -108v-3l221 -108l-34 -67l-317 169v15zM49 -8v71h351v-71h-351z" />
    <glyph glyph-name="greaterequal" unicode="&#x2265;" horiz-adv-x="448" 
d="M83 461l317 -171v-14l-317 -169l-34 67l221 108v3l-220 108zM400 -8h-351v71h351v-71z" />
    <glyph glyph-name="lozenge" unicode="&#x25ca;" horiz-adv-x="448" 
d="M430 316l-164 -370h-84l-163 370l165 373h82zM350 316l-124 292h-2l-126 -291l126 -292h2z" />
    <glyph glyph-name="A.sc" unicode="&#xe000;" horiz-adv-x="486" 
d="M198 458h85l149 -381q8 -22 14 -28t18 -8l21 -3v-43q-49 3 -111 3q-61 0 -109 -3v43l50 7q15 3 15 9t-7 22l-34 90q-11 0 -34.5 -0.5t-34.5 -1.5q-61 -2 -74 -15q-8 -8 -27 -57q-10 -27 -10 -37q0 -9 23 -10l59 -7v-43q-53 3 -104 3q-53 0 -99 -3v43l43 7q5 12 37 85.5
t46 107.5q55 128 84 220zM269 216l-50 130l-50 -126z" />
    <glyph glyph-name="AE.sc" unicode="&#xe001;" horiz-adv-x="607" 
d="M377 405v-147h50q28 0 34 5q4 4 8 31h49q-3 -36 -3 -59q0 -34 6 -78l-50 -3q-4 34 -9 41q-6 9 -31 9h-54v-100q0 -38 7.5 -47.5t41.5 -9.5q63 0 74 10q10 9 28 82l46 -5l-13 -139q-84 0 -154 1.5t-87 1.5q-65 0 -107 -3v43l38 7q15 2 18.5 4t4.5 9q2 38 2 63v83
q-86 0 -106 -13t-36 -47l-38 -75q-6 -12 -6 -17q0 -7 18 -8l51 -6v-43q-51 3 -100 3q-37 0 -87 -3v43l41 5q37 75 92 176q54 96 98 189l-45 5v43q71 -3 172 -3q140 0 210 3l-8 -132h-43q-10 67 -20 73q-9 8 -77 8h-15zM276 258v148h-9l-75 -148h84z" />
    <glyph glyph-name="Aacute.sc" unicode="&#xe002;" horiz-adv-x="486" 
d="M310 682l58 -52q-69 -76 -171 -123l-30 49q74 44 143 126zM198 458h85l149 -381q8 -22 14 -28t18 -8l21 -3v-43q-49 3 -111 3q-61 0 -109 -3v43l50 7q15 3 15 9t-7 22l-34 90q-11 0 -34.5 -0.5t-34.5 -1.5q-61 -2 -74 -15q-8 -8 -27 -57q-10 -27 -10 -37q0 -9 23 -10
l59 -7v-43q-53 3 -104 3q-53 0 -99 -3v43l43 7q5 12 37 85.5t46 107.5q55 128 84 220zM269 216l-50 130l-50 -126z" />
    <glyph glyph-name="Acircumflex.sc" unicode="&#xe003;" horiz-adv-x="486" 
d="M245 683l130 -136l-39 -40l-93 78l-98 -78l-31 34zM198 458h85l149 -381q8 -22 14 -28t18 -8l21 -3v-43q-49 3 -111 3q-61 0 -109 -3v43l50 7q15 3 15 9t-7 22l-34 90q-11 0 -34.5 -0.5t-34.5 -1.5q-61 -2 -74 -15q-8 -8 -27 -57q-10 -27 -10 -37q0 -9 23 -10l59 -7v-43
q-53 3 -104 3q-53 0 -99 -3v43l43 7q5 12 37 85.5t46 107.5q55 128 84 220zM269 216l-50 130l-50 -126z" />
    <glyph glyph-name="Adieresis.sc" unicode="&#xe004;" horiz-adv-x="486" 
d="M198 458h85l149 -381q8 -22 14 -28t18 -8l21 -3v-43q-49 3 -111 3q-61 0 -109 -3v43l50 7q15 3 15 9t-7 22l-34 90q-11 0 -34.5 -0.5t-34.5 -1.5q-61 -2 -74 -15q-8 -8 -27 -57q-10 -27 -10 -37q0 -9 23 -10l59 -7v-43q-53 3 -104 3q-53 0 -99 -3v43l43 7q5 12 37 85.5
t46 107.5q55 128 84 220zM269 216l-50 130l-50 -126zM157 636h1q12 0 36.5 -19.5t24.5 -31.5t-24.5 -40t-35.5 -28t-36 20t-25 31q0 13 23.5 40.5t35.5 27.5zM333 636h1q11 0 36 -20.5t25 -30.5q0 -12 -24 -40t-36 -28q-11 0 -36 20t-25 31q0 13 23.5 40.5t35.5 27.5z" />
    <glyph glyph-name="Agrave.sc" unicode="&#xe005;" horiz-adv-x="486" 
d="M135 610l46 70q76 -48 126 -139l-41 -34q-58 67 -131 103zM198 458h85l149 -381q8 -22 14 -28t18 -8l21 -3v-43q-49 3 -111 3q-61 0 -109 -3v43l50 7q15 3 15 9t-7 22l-34 90q-11 0 -34.5 -0.5t-34.5 -1.5q-61 -2 -74 -15q-8 -8 -27 -57q-10 -27 -10 -37q0 -9 23 -10
l59 -7v-43q-53 3 -104 3q-53 0 -99 -3v43l43 7q5 12 37 85.5t46 107.5q55 128 84 220zM269 216l-50 130l-50 -126z" />
    <glyph glyph-name="Aring.sc" unicode="&#xe006;" horiz-adv-x="486" 
d="M244 703h1q42 0 72 -30t30 -73t-30 -73t-73 -30t-73 30t-30 73t30 73t73 30zM244 654h-1q-22 0 -37.5 -16t-15.5 -38t16 -38t38 -16t38.5 16t16.5 38t-16 38t-39 16zM198 458h85l149 -381q8 -22 14 -28t18 -8l21 -3v-43q-49 3 -111 3q-61 0 -109 -3v43l50 7q15 3 15 9
t-7 22l-34 90q-11 0 -34.5 -0.5t-34.5 -1.5q-61 -2 -74 -15q-8 -8 -27 -57q-10 -27 -10 -37q0 -9 23 -10l59 -7v-43q-53 3 -104 3q-53 0 -99 -3v43l43 7q5 12 37 85.5t46 107.5q55 128 84 220zM269 216l-50 130l-50 -126z" />
    <glyph glyph-name="Atilde.sc" unicode="&#xe007;" horiz-adv-x="486" 
d="M354 626l31 -11q-30 -97 -83 -97q-18 0 -69 22q-42 18 -56 18q-16 0 -24.5 -7.5t-16.5 -27.5l-31 12q32 95 85 95q24 0 73 -22q37 -16 54 -16q24 0 37 34zM198 458h85l149 -381q8 -22 14 -28t18 -8l21 -3v-43q-49 3 -111 3q-61 0 -109 -3v43l50 7q15 3 15 9t-7 22l-34 90
q-11 0 -34.5 -0.5t-34.5 -1.5q-61 -2 -74 -15q-8 -8 -27 -57q-10 -27 -10 -37q0 -9 23 -10l59 -7v-43q-53 3 -104 3q-53 0 -99 -3v43l43 7q5 12 37 85.5t46 107.5q55 128 84 220zM269 216l-50 130l-50 -126z" />
    <glyph glyph-name="B.sc" unicode="&#xe008;" horiz-adv-x="475" 
d="M36 407v45q66 8 150 8q115 0 169 -19.5t54 -76.5q0 -38 -26 -65t-85 -49q70 -12 104.5 -38t34.5 -79q0 -65 -49 -101.5t-136 -36.5q-21 0 -60.5 1.5t-58.5 1.5q-51 0 -103 -3v43l37 7q16 2 19.5 4t4.5 9q2 38 2 63v290q-25 0 -57 -4zM199 411v-140q108 0 108 76
q0 37 -28 50.5t-80 13.5zM199 228v-118q0 -42 6.5 -53.5t37.5 -11.5q89 0 89 82q0 47 -35 74t-98 27z" />
    <glyph glyph-name="C.sc" unicode="&#xe009;" horiz-adv-x="480" 
d="M438 298l-43 -7q-18 68 -33 91q-15 20 -57 20q-80 0 -122.5 -46t-42.5 -127q0 -90 45 -139t128 -49q57 0 67 22q12 26 26 88l47 -4l-9 -140q-76 -22 -152 -22q-126 0 -194 58.5t-68 166.5q0 120 82 182q41 32 97.5 48.5t98 20t116.5 4.5z" />
    <glyph glyph-name="Ccedilla.sc" unicode="&#xe00a;" horiz-adv-x="480" 
d="M438 298l-43 -7q-18 68 -33 91q-15 20 -57 20q-80 0 -122.5 -46t-42.5 -127q0 -90 45 -139t128 -49q57 0 67 22q12 26 26 88l47 -4l-9 -140q-76 -22 -152 -22q-126 0 -194 58.5t-68 166.5q0 120 82 182q41 32 97.5 48.5t98 20t116.5 4.5zM170 -207l16 52q17 -8 34 -8
q31 0 31 24q0 33 -42 59q37 35 61 35q21 0 38.5 -23.5t17.5 -51.5q0 -37 -36.5 -63t-88.5 -26q-17 0 -31 2z" />
    <glyph glyph-name="D.sc" unicode="&#xe00b;" horiz-adv-x="556" 
d="M30 38l37 7q16 2 19.5 4t4.5 9q2 38 2 63v288q-39 0 -58 -2v45q72 9 169 9q39 0 63 -0.5t62 -4.5t61.5 -11t52 -21t44.5 -33.5t27 -50t11 -69.5q0 -124 -76.5 -200t-201.5 -76q-20 0 -59.5 1t-59.5 1q-62 0 -98 -2v43zM201 409v-304q0 -34 8 -44t42 -10q78 0 122.5 51
t44.5 138q0 85 -51.5 125t-165.5 44z" />
    <glyph glyph-name="E.sc" unicode="&#xe00c;" horiz-adv-x="446" 
d="M199 405v-144l74 2q22 1 28 5t6 22v7h50q-2 -50 -2 -60q0 -42 4 -79l-49 -4l-5 26q-3 17 -8.5 21t-26.5 4h-71v-101q0 -40 9 -48.5t48 -8.5q71 0 83 9q12 10 28 83l46 -5l-13 -139q-79 0 -155.5 1.5t-100.5 1.5q-69 0 -114 -3v43l37 7q16 2 19.5 4t4.5 9q2 38 2 63v209
q0 25 -2 63q-1 7 -4.5 9t-19.5 4l-37 7v43q45 -3 131 -3q151 0 218 3l-8 -132h-43q-5 39 -13 63q-4 13 -18.5 15.5t-70.5 2.5h-27z" />
    <glyph glyph-name="Eacute.sc" unicode="&#xe00d;" horiz-adv-x="446" 
d="M310 682l58 -52q-69 -76 -172 -123l-29 49q74 44 143 126zM199 405v-144l74 2q22 1 28 5t6 22v7h50q-2 -50 -2 -60q0 -42 4 -79l-49 -4l-5 26q-3 17 -8.5 21t-26.5 4h-71v-101q0 -40 9 -48.5t48 -8.5q71 0 83 9q12 10 28 83l46 -5l-13 -139q-79 0 -155.5 1.5t-100.5 1.5
q-69 0 -114 -3v43l37 7q16 2 19.5 4t4.5 9q2 38 2 63v209q0 25 -2 63q-1 7 -4.5 9t-19.5 4l-37 7v43q45 -3 131 -3q151 0 218 3l-8 -132h-43q-5 39 -13 63q-4 13 -18.5 15.5t-70.5 2.5h-27z" />
    <glyph glyph-name="Ecircumflex.sc" unicode="&#xe00e;" horiz-adv-x="446" 
d="M211 683l130 -136l-39 -40l-93 78l-98 -78l-31 34zM199 405v-144l74 2q22 1 28 5t6 22v7h50q-2 -50 -2 -60q0 -42 4 -79l-49 -4l-5 26q-3 17 -8.5 21t-26.5 4h-71v-101q0 -40 9 -48.5t48 -8.5q71 0 83 9q12 10 28 83l46 -5l-13 -139q-79 0 -155.5 1.5t-100.5 1.5
q-69 0 -114 -3v43l37 7q16 2 19.5 4t4.5 9q2 38 2 63v209q0 25 -2 63q-1 7 -4.5 9t-19.5 4l-37 7v43q45 -3 131 -3q151 0 218 3l-8 -132h-43q-5 39 -13 63q-4 13 -18.5 15.5t-70.5 2.5h-27z" />
    <glyph glyph-name="Edieresis.sc" unicode="&#xe00f;" horiz-adv-x="446" 
d="M126 636h1q12 0 36.5 -19.5t24.5 -31.5t-24.5 -40t-35.5 -28t-36 20t-25 31q0 13 23.5 40.5t35.5 27.5zM302 636h1q11 0 36 -20.5t25 -30.5q0 -12 -24 -40t-36 -28q-11 0 -36 20t-25 31q0 13 23.5 40.5t35.5 27.5zM199 405v-144l74 2q22 1 28 5t6 22v7h50q-2 -50 -2 -60
q0 -42 4 -79l-49 -4l-5 26q-3 17 -8.5 21t-26.5 4h-71v-101q0 -40 9 -48.5t48 -8.5q71 0 83 9q12 10 28 83l46 -5l-13 -139q-79 0 -155.5 1.5t-100.5 1.5q-69 0 -114 -3v43l37 7q16 2 19.5 4t4.5 9q2 38 2 63v209q0 25 -2 63q-1 7 -4.5 9t-19.5 4l-37 7v43q45 -3 131 -3
q151 0 218 3l-8 -132h-43q-5 39 -13 63q-4 13 -18.5 15.5t-70.5 2.5h-27z" />
    <glyph glyph-name="Egrave.sc" unicode="&#xe010;" horiz-adv-x="446" 
d="M114 610l46 70q76 -48 126 -139l-41 -34q-58 67 -131 103zM199 405v-144l74 2q22 1 28 5t6 22v7h50q-2 -50 -2 -60q0 -42 4 -79l-49 -4l-5 26q-3 17 -8.5 21t-26.5 4h-71v-101q0 -40 9 -48.5t48 -8.5q71 0 83 9q12 10 28 83l46 -5l-13 -139q-79 0 -155.5 1.5t-100.5 1.5
q-69 0 -114 -3v43l37 7q16 2 19.5 4t4.5 9q2 38 2 63v209q0 25 -2 63q-1 7 -4.5 9t-19.5 4l-37 7v43q45 -3 131 -3q151 0 218 3l-8 -132h-43q-5 39 -13 63q-4 13 -18.5 15.5t-70.5 2.5h-27z" />
    <glyph glyph-name="Eth.sc" unicode="&#xe011;" horiz-adv-x="556" 
d="M93 268v141q-39 0 -58 -2v45q72 9 169 9q39 0 63 -0.5t62 -4.5t61.5 -11t52 -21t44.5 -33.5t27 -50t11 -69.5q0 -124 -76.5 -200t-201.5 -76q-20 0 -59.5 1t-59.5 1q-62 0 -98 -2v43l37 7q16 2 19.5 4t4.5 9q2 38 2 63v91h-63v56h63zM201 268h74v-56h-74v-107
q0 -34 8 -44t42 -10q78 0 122.5 51t44.5 138q0 85 -51.5 125t-165.5 44v-141z" />
    <glyph glyph-name="Euro.oldstyle" unicode="&#xe012;" horiz-adv-x="406" 
d="M302 172h-142q27 -101 122 -101q46 0 87 24l19 -35q-73 -70 -164 -70q-67 0 -112 50.5t-54 131.5h-40v47h38q2 34 5 50h-43v48h56q26 79 82 131.5t119 52.5q41 0 66.5 -11t25.5 -29q0 -34 -22 -66q-46 21 -88 21q-82 0 -102 -99h179l-11 -48h-173v-15q0 -24 1 -34h162z
" />
    <glyph glyph-name="F.sc" unicode="&#xe013;" horiz-adv-x="412" 
d="M201 405v-157l73 1q21 0 27.5 5t6.5 23v7h50q-3 -36 -3 -59q0 -42 5 -80l-50 -4l-5 27q-3 17 -8.5 21t-26.5 4h-69v-72q0 -25 2 -63q1 -11 24 -13l55 -7v-43q-62 3 -134 3q-58 0 -118 -3v43l37 7q15 2 19 4.5t5 8.5q2 38 2 63v209q0 25 -2 63q-1 7 -5 9t-19 4l-37 7v43
q69 -3 136 -3q144 0 214 3l-9 -132h-42q-8 44 -14 63q-3 11 -20 14.5t-75 3.5h-19z" />
    <glyph glyph-name="G.sc" unicode="&#xe014;" horiz-adv-x="516" 
d="M447 298l-43 -6q-20 74 -34 90q-15 19 -62 19q-82 0 -125 -44.5t-43 -129.5q0 -89 43 -137.5t122 -48.5q29 0 38 7.5t9 29.5v24q0 21 -5.5 28.5t-23.5 8.5l-33 2v43q57 -3 98 -3q60 0 104 3v-43l-13 -1q-17 -1 -21 -8t-4 -32v-91q-82 -23 -163 -23q-124 0 -192 58.5
t-68 165.5q0 122 83 183q53 38 125.5 54.5t193.5 17.5z" />
    <glyph glyph-name="H.sc" unicode="&#xe015;" horiz-adv-x="610" 
d="M201 270h207v60q0 25 -2 63q-1 7 -4.5 9t-18.5 4l-38 7v43q61 -3 119 -3q56 0 116 3v-43l-38 -7q-11 -2 -14 -2.5t-6 -3t-3 -7.5q-2 -38 -2 -63v-209q0 -25 2 -63q1 -6 5 -8.5t18 -4.5l38 -7v-43q-62 3 -116 3q-59 0 -119 -3v43l38 7q15 2 18.5 4t4.5 9q2 38 2 63v91
q-143 0 -185 -9q-13 -2 -17.5 -8.5t-4.5 -21.5v-52q0 -25 2 -63q1 -6 5 -8.5t19 -4.5l37 -7v-43q-62 3 -116 3q-58 0 -118 -3v43l37 7q15 2 19 4.5t5 8.5q2 38 2 63v209q0 25 -2 63q-1 7 -5 9t-19 4l-37 7v43q61 -3 118 -3q56 0 116 3v-43l-37 -7q-16 -2 -19.5 -4t-4.5 -9
q-2 -38 -2 -63v-60z" />
    <glyph glyph-name="I.sc" unicode="&#xe016;" horiz-adv-x="294" 
d="M264 38v-43q-62 3 -116 3q-58 0 -118 -3v43l37 7q16 2 19.5 4t4.5 9q2 38 2 63v209q0 25 -2 63q-1 7 -4.5 9t-19.5 4l-37 7v43q61 -3 118 -3q56 0 116 3v-43l-37 -7q-16 -2 -19.5 -4t-4.5 -9q-2 -38 -2 -63v-209q0 -25 2 -63q1 -7 4.5 -9t19.5 -4z" />
    <glyph glyph-name="Iacute.sc" unicode="&#xe017;" horiz-adv-x="294" 
d="M209 682l58 -52q-69 -76 -171 -123l-30 49q74 44 143 126zM264 38v-43q-62 3 -116 3q-58 0 -118 -3v43l37 7q16 2 19.5 4t4.5 9q2 38 2 63v209q0 25 -2 63q-1 7 -4.5 9t-19.5 4l-37 7v43q61 -3 118 -3q56 0 116 3v-43l-37 -7q-16 -2 -19.5 -4t-4.5 -9q-2 -38 -2 -63v-209
q0 -25 2 -63q1 -7 4.5 -9t19.5 -4z" />
    <glyph glyph-name="Icircumflex.sc" unicode="&#xe018;" horiz-adv-x="294" 
d="M149 683l130 -136l-38 -40l-94 78l-98 -78l-31 34zM268 38v-43q-62 3 -116 3q-58 0 -118 -3v43l37 7q16 2 19.5 4t4.5 9q2 38 2 63v209q0 25 -2 63q-1 7 -4 8.5t-16 3.5q-3 1 -4 1l-37 7v43q62 -3 118 -3t116 3v-43l-37 -7q-16 -2 -19.5 -4t-4.5 -9q-2 -38 -2 -63v-209
q0 -25 2 -63q1 -7 4.5 -9t19.5 -4z" />
    <glyph glyph-name="Idieresis.sc" unicode="&#xe019;" horiz-adv-x="294" 
d="M66 636h1q12 0 36.5 -19.5t24.5 -31.5t-24.5 -40t-34.5 -28q-12 0 -37 20t-25 31q0 13 23.5 40.5t35.5 27.5zM225 636h1q11 0 36 -20.5t25 -30.5q0 -12 -23.5 -40t-35.5 -28t-36.5 19.5t-24.5 31.5q0 13 23 40.5t35 27.5zM264 38v-43q-62 3 -117 3q-57 0 -117 -3v43l37 7
q16 2 19.5 4t4.5 9q2 38 2 63v209q0 25 -2 63q-1 7 -4 8.5t-16 3.5q-3 1 -4 1l-37 7v43q61 -3 117 -3q57 0 117 3v-43l-38 -7q-16 -2 -19 -4t-4 -9q-2 -38 -2 -63v-209q0 -25 2 -63q1 -7 4 -9t19 -4z" />
    <glyph glyph-name="Igrave.sc" unicode="&#xe01a;" horiz-adv-x="294" 
d="M50 610l45 70q35 -21 69 -59t58 -80l-41 -34q-60 67 -131 103zM264 38v-43q-62 3 -116 3q-58 0 -118 -3v43l37 7q16 2 19.5 4t4.5 9q2 38 2 63v209q0 25 -2 63q-1 7 -4.5 9t-19.5 4l-37 7v43q61 -3 118 -3q56 0 116 3v-43l-37 -7q-16 -2 -19.5 -4t-4.5 -9q-2 -38 -2 -63
v-209q0 -25 2 -63q1 -7 4.5 -9t19.5 -4z" />
    <glyph glyph-name="J.sc" unicode="&#xe01b;" horiz-adv-x="279" 
d="M24 -139l-24 35q55 41 73 82q18 46 18 179v173q0 25 -2 63q-1 7 -4.5 9t-19.5 4l-43 7v43q61 -3 124 -3q56 0 116 3v-43l-38 -7q-16 -2 -19.5 -4t-4.5 -9q-2 -38 -2 -63v-185q0 -108 -20 -152q-33 -68 -154 -132z" />
    <glyph glyph-name="K.sc" unicode="&#xe01c;" horiz-adv-x="513" 
d="M201 330v-209q0 -25 2 -63q1 -7 4.5 -9t19.5 -4l37 -7v-43q-62 3 -116 3q-58 0 -118 -3v43l37 7q16 2 19.5 4t4.5 9q2 38 2 63v209q0 25 -2 63q-1 7 -4.5 9t-19.5 4l-37 7v43q61 -3 118 -3q56 0 116 3v-43l-37 -7q-16 -2 -19.5 -4t-4.5 -9q-2 -38 -2 -63zM203 247l93 99
q53 59 55 61l-33 6v43q51 -3 92 -3q45 0 92 3v-42q-40 -3 -66 -16.5t-54 -46.5l-74 -80q73 -118 152 -195q26 -25 59 -48v-36q-9 -1 -27 -1q-55 0 -91 18q-94 46 -198 238z" />
    <glyph glyph-name="L.sc" unicode="&#xe01d;" horiz-adv-x="420" 
d="M366 139l47 -5l-13 -139q-76 0 -152.5 1.5t-103.5 1.5q-68 0 -114 -3v43l37 7q16 2 19.5 4t4.5 9q2 38 2 63v209q0 25 -2 63q-1 7 -4.5 9t-19.5 4l-37 7v43q61 -3 118 -3q75 0 135 3v-43l-56 -7q-11 -1 -15 -2t-6 -3.5t-3 -7.5q-2 -38 -2 -63v-226q0 -40 8.5 -48.5
t46.5 -8.5q70 0 82 9q10 8 28 83z" />
    <glyph glyph-name="Lslash.sc" unicode="&#xe01e;" horiz-adv-x="420" 
d="M365 139l48 -5l-13 -139q-76 0 -152.5 1.5t-103.5 1.5q-68 0 -114 -3v43l37 7q16 2 19.5 4t4.5 9q2 38 2 63v62l-63 -28v61l63 29v85q0 25 -2 63q-1 7 -4.5 9t-19.5 4l-37 7v43q63 -3 118 -3q75 0 135 3v-43l-56 -7q-11 -1 -15 -2t-6 -3.5t-3 -7.5q-2 -38 -2 -63v-46
l108 48v-62l-108 -48v-117q0 -40 8.5 -49t46.5 -9q71 0 82 10q9 8 27 82z" />
    <glyph glyph-name="M.sc" unicode="&#xe01f;" horiz-adv-x="683" 
d="M343 122l87 236q22 56 32 102q19 -2 57 -4q19 -1 56 -1q49 0 68 1v-43l-37 -5q-12 -2 -16 -5t-4 -11q0 -5 0.5 -13.5t0.5 -11.5l21 -292q1 -21 4.5 -26.5t15.5 -7.5l19 -3v-43q-72 4 -107 4q-33 0 -109 -4v43l54 6q15 1 19.5 4.5t4.5 12.5q0 3 -0.5 10.5t-0.5 11.5
l-19 270l-86 -231q-27 -76 -40 -127h-75l-128 358l-15 -276q0 -3 -0.5 -9t-0.5 -8q0 -8 3.5 -10.5t17.5 -4.5l55 -7v-43q-50 3 -100 3t-99 -3v43l27 4q12 2 17 5q4 4 9 44q8 56 16 141q11 136 11 153q0 14 -3.5 17.5t-17.5 5.5l-34 5v43q18 -1 81 -1q52 0 93 5z" />
    <glyph glyph-name="N.sc" unicode="&#xe020;" horiz-adv-x="568" 
d="M422 115v177q0 100 -9 109q-4 4 -21 6l-63 6v43q53 -3 104 -3q53 0 107 3v-43l-27 -4q-15 -2 -18.5 -9.5t-4.5 -33.5v-6q-5 -180 -5 -257q0 -18 1 -54t1 -54h-99l-236 364v-198q0 -100 6 -109q5 -7 24 -8l60 -6v-43q-72 4 -108 4q-34 0 -106 -4v43l30 5q12 2 16 4t5 11
q4 40 4 92q2 162 2 240q0 11 -4 14.5t-18 4.5l-35 4v43q37 -1 72 0q69 0 101 3z" />
    <glyph glyph-name="Ntilde.sc" unicode="&#xe021;" horiz-adv-x="568" 
d="M399 635l31 -11q-30 -97 -82 -97q-16 0 -70 22q-40 18 -56 18q-15 0 -24 -7.5t-17 -27.5l-31 12q32 95 85 95q24 0 73 -22q37 -16 54 -16q24 0 37 34zM422 115v177q0 100 -9 109q-4 4 -21 6l-63 6v43q53 -3 104 -3q53 0 107 3v-43l-27 -4q-15 -2 -18.5 -9.5t-4.5 -33.5
v-6q-5 -180 -5 -257q0 -18 1 -54t1 -54h-99l-236 364v-198q0 -100 6 -109q5 -7 24 -8l60 -6v-43q-72 4 -108 4q-34 0 -106 -4v43l30 5q12 2 16 4t5 11q4 40 4 93q2 160 2 239q0 11 -4 14.5t-18 4.5l-35 4v43q37 -1 72 0q69 0 101 3z" />
    <glyph glyph-name="O.sc" unicode="&#xe022;" horiz-adv-x="553" 
d="M523 233v-1q0 -109 -74 -178t-191 -69q-104 0 -166 61.5t-62 165.5q0 114 73.5 184t191.5 70q105 0 166.5 -62.5t61.5 -170.5zM414 210v1q0 87 -40 141t-106 54q-61 0 -95 -43.5t-34 -122.5q0 -88 38.5 -141.5t102.5 -53.5q63 0 98.5 45t35.5 120z" />
    <glyph glyph-name="OE.sc" unicode="&#xe023;" horiz-adv-x="667" 
d="M437 405v-144h50q29 0 34 5q6 5 8 31h50q-4 -33 -4 -60q0 -35 6 -79l-50 -4q-6 37 -10 43q-5 8 -30 8h-54v-101q0 -38 8 -47.5t43 -9.5q60 0 72 9t29 83l46 -5l-13 -139q-103 0 -137 1q-74 2 -147 2h-18q-34 -7 -36 -7q-20 -2 -33 -2q-99 0 -159.5 60.5t-60.5 160.5
q0 109 71.5 180.5t179.5 71.5q35 0 72 -9q129 0 246 3l-9 -132h-41q-12 67 -21 73q-8 8 -77 8h-15zM333 96v256q0 25 -3 31q-8 18 -60 18q-63 0 -97 -42.5t-34 -120.5q0 -85 38 -136t103 -51q25 0 44 8q6 3 7.5 9t1.5 28z" />
    <glyph glyph-name="Oacute.sc" unicode="&#xe024;" horiz-adv-x="553" 
d="M345 682l57 -52q-68 -76 -171 -123l-30 49q72 41 144 126zM523 233v-1q0 -109 -74 -178t-191 -69q-104 0 -165.5 61.5t-61.5 165.5q0 114 73 184t191 70q105 0 166.5 -62.5t61.5 -170.5zM414 210v1q0 87 -40 141t-106 54q-60 0 -94.5 -44t-34.5 -122q0 -88 38.5 -141.5
t102.5 -53.5q63 0 98.5 45t35.5 120z" />
    <glyph glyph-name="Ocircumflex.sc" unicode="&#xe025;" horiz-adv-x="553" 
d="M281 683l130 -136l-39 -40l-93 78l-98 -78l-31 34zM523 233v-1q0 -109 -74 -178t-191 -69q-104 0 -166 61.5t-62 165.5q0 114 73.5 184t191.5 70q105 0 166.5 -62.5t61.5 -170.5zM414 210v1q0 87 -40 141t-106 54q-61 0 -95 -43.5t-34 -122.5q0 -88 38.5 -141.5
t102.5 -53.5q63 0 98.5 45t35.5 120z" />
    <glyph glyph-name="Odieresis.sc" unicode="&#xe026;" horiz-adv-x="553" 
d="M523 233v-1q0 -109 -74 -178t-191 -69q-104 0 -166 61.5t-62 165.5q0 114 73.5 184t191.5 70q105 0 166.5 -62.5t61.5 -170.5zM414 210v1q0 87 -40 141t-106 54q-61 0 -95 -43.5t-34 -122.5q0 -88 38.5 -141.5t102.5 -53.5q63 0 98.5 45t35.5 120zM197 636h1
q12 0 36.5 -19.5t24.5 -31.5t-24.5 -40t-35.5 -28t-36 20t-25 31q0 13 23.5 40.5t35.5 27.5zM373 636h1q11 0 36 -20.5t25 -30.5q0 -12 -24 -40t-36 -28q-11 0 -36 20t-25 31q0 13 23.5 40.5t35.5 27.5z" />
    <glyph glyph-name="Ograve.sc" unicode="&#xe027;" horiz-adv-x="553" 
d="M171 610l45 70q35 -21 69 -59t58 -80l-41 -34q-60 67 -131 103zM523 233v-1q0 -109 -74 -178t-191 -69q-104 0 -166 61.5t-62 165.5q0 114 73.5 184t191.5 70q105 0 166.5 -62.5t61.5 -170.5zM414 210v1q0 87 -40 141t-106 54q-61 0 -95 -43.5t-34 -122.5
q0 -88 38.5 -141.5t102.5 -53.5q63 0 98.5 45t35.5 120z" />
    <glyph glyph-name="Oslash.sc" unicode="&#xe028;" horiz-adv-x="551" 
d="M455 476l41 -35l-35 -41q59 -62 59 -167q0 -110 -73.5 -179t-190.5 -69q-66 0 -126 34l-39 -45l-42 34l38 45q-57 60 -57 159q0 114 73 184t191 70q68 0 124 -33zM156 128l202 239q-36 39 -91 39q-62 0 -99 -44t-37 -122q0 -64 25 -112zM392 324l-203 -240q37 -39 90 -39
q64 0 102 45.5t38 119.5q0 68 -27 114z" />
    <glyph glyph-name="Otilde.sc" unicode="&#xe029;" horiz-adv-x="553" 
d="M393 635l31 -11q-30 -97 -82 -97q-18 0 -69 22q-42 18 -57 18t-24 -7.5t-17 -27.5l-30 12q31 95 84 95q24 0 73 -22q37 -16 54 -16q24 0 37 34zM523 233v-1q0 -109 -74 -178t-191 -69q-104 0 -165.5 61.5t-61.5 165.5q0 114 73 184t191 70q105 0 166.5 -62.5t61.5 -170.5
zM414 210v1q0 87 -40 141t-106 54q-60 0 -94.5 -44t-34.5 -122q0 -88 38.5 -141.5t102.5 -53.5q63 0 98.5 45t35.5 120z" />
    <glyph glyph-name="P.sc" unicode="&#xe02a;" horiz-adv-x="435" 
d="M198 181v-60q0 -25 2 -63q1 -7 4.5 -9.5t18.5 -3.5l60 -7v-43q-61 3 -134 3q-59 0 -119 -3v43l37 7q16 2 19.5 4t4.5 9q2 38 2 63v61q-20 0 -34 5l-2 12l36 46v164q-18 0 -56 -4v46q71 9 145 9q128 0 182.5 -21.5t54.5 -86.5q0 -71 -65 -117.5t-156 -53.5zM198 411v-172
q116 0 116 90q0 42 -28 62t-88 20z" />
    <glyph glyph-name="Q.sc" unicode="&#xe02b;" horiz-adv-x="557" 
d="M602 -79l14 -31q-71 -37 -126 -37q-45 0 -87 24t-112 85q-16 14 -31 19q-11 4 -36 6q-93 11 -143 69t-50 154q0 114 74 185t192 71q104 0 165 -62t61 -171q0 -80 -34.5 -132t-110.5 -89q114 -99 180 -99q21 0 44 8zM415 215v1q0 85 -40.5 138t-105.5 53q-61 0 -95.5 -44
t-34.5 -125q0 -91 41 -142.5t102 -51.5q58 0 95.5 44.5t37.5 126.5z" />
    <glyph glyph-name="R.sc" unicode="&#xe02c;" horiz-adv-x="488" 
d="M198 204v-83q0 -25 2 -63q1 -7 4 -9t19 -4l38 -7v-43q-61 3 -114 3q-57 0 -117 -3v43l37 7q16 2 19.5 4t4.5 9q2 38 2 63v287q-31 0 -57 -3v46q67 9 144 9q35 0 55 -0.5t52 -3.5t51.5 -9.5t40 -17.5t30 -29.5t9.5 -43.5q0 -71 -79 -121q69 -132 159 -211l-12 -32
q-2 0 -6 -0.5t-7 -0.5q-65 0 -116.5 50.5t-99.5 134.5q-10 18 -21.5 23t-37.5 5zM198 247h8q44 0 75 21.5t31 65.5q0 41 -26.5 59t-87.5 18v-164z" />
    <glyph glyph-name="S.sc" unicode="&#xe02d;" horiz-adv-x="378" 
d="M323 303h-48q-7 72 -17 86q-11 21 -52 21q-32 0 -49.5 -16t-17.5 -44q0 -30 20.5 -46.5t68.5 -35.5q27 -11 39.5 -17t32 -18t28 -23.5t15.5 -30t7 -42.5q0 -68 -52 -110t-137 -42q-66 0 -132 35l8 143h54q-1 -12 -1 -24q0 -52 16.5 -75t64.5 -23q35 0 55 18t20 49
q0 33 -19.5 49.5t-64.5 34.5q-33 14 -48.5 21.5t-37.5 23.5t-31 37t-9 50q0 65 51.5 103.5t139.5 38.5q53 0 103 -14z" />
    <glyph glyph-name="Scaron.sc" unicode="&#xe02e;" horiz-adv-x="378" 
d="M191 509l-130 135l39 41l93 -78l98 78l31 -35zM323 303h-48q-7 72 -17 86q-11 21 -52 21q-32 0 -49.5 -16t-17.5 -44q0 -30 20.5 -46.5t68.5 -36.5q32 -13 49 -21t36.5 -23.5t28 -36t8.5 -49.5q0 -68 -52 -110t-137 -42q-66 0 -132 35l8 143h54q-1 -12 -1 -24
q0 -52 16.5 -75t64.5 -23q35 0 55 18t20 49q0 33 -19.5 49.5t-64.5 34.5q-34 14 -48.5 21.5t-37 23t-31.5 37t-9 50.5q0 65 51.5 103.5t139.5 38.5q53 0 103 -14z" />
    <glyph glyph-name="T.sc" unicode="&#xe02f;" horiz-adv-x="443" 
d="M275 406v-285q0 -25 2 -63q1 -7 4.5 -9t18.5 -4l38 -7v-43q-62 3 -117 3q-57 0 -117 -3v43l37 7q16 2 19.5 4t4.5 9q2 38 2 63v285h-16q-62 0 -71 -9q-7 -7 -19 -89h-42l-9 148q93 -3 213 -3q141 0 210 3l-9 -148h-42q-10 81 -20 90q-12 8 -72 8h-15z" />
    <glyph glyph-name="Thorn.sc" unicode="&#xe030;" horiz-adv-x="442" 
d="M93 161v209q0 15 -1 23q-1 6 -5 8.5t-19 4.5l-37 7v43q61 -3 116 -3q76 0 136 3v-43l-60 -7l-12 -1.5t-6.5 -2t-3.5 -3.5t-1 -6q-1 -8 -1 -21q51 0 86.5 -4t67 -15t47 -33.5t15.5 -55.5q0 -69 -65 -113t-151 -51v-11q0 -13 1 -31q1 -7 5 -9.5t19 -3.5l59 -7v-43
q-61 3 -133 3q-60 0 -120 -3v43l37 7q17 2 20.5 4t4.5 9q1 16 1 31v11q-24 3 -34 5l-2 12zM199 324v-169q54 0 82.5 22.5t28.5 64.5t-26 62t-85 20z" />
    <glyph glyph-name="U.sc" unicode="&#xe031;" horiz-adv-x="572" 
d="M382 -10v47q-90 -52 -165 -52q-79 0 -107 46t-28 130v169q0 25 -2 63q-1 7 -4.5 9t-19.5 4l-38 7v43q61 -3 117 -3q58 0 118 3v-43l-38 -7q-16 -2 -19 -4t-4 -9q-2 -38 -2 -63v-152q0 -66 15.5 -98.5t64.5 -32.5q64 0 87 48q13 24 13 85v150q0 25 -2 63q-1 7 -4.5 9
t-18.5 4l-38 7v43q62 -3 116 -3q59 0 119 3v-43l-39 -7q-16 -2 -19 -4t-4 -9q-2 -38 -2 -63v-209q0 -25 2 -63q1 -7 4.5 -9t18.5 -4l39 -7v-43q-34 2 -38 2q-61 0 -122 -7z" />
    <glyph glyph-name="Uacute.sc" unicode="&#xe032;" horiz-adv-x="572" 
d="M369 682l58 -52q-69 -76 -171 -123l-30 49q74 44 143 126zM382 -10v47q-90 -52 -165 -52q-79 0 -107 46t-28 130v169q0 25 -2 63q-1 7 -4.5 9t-19.5 4l-38 7v43q61 -3 117 -3q58 0 118 3v-43l-38 -7q-16 -2 -19 -4t-4 -9q-2 -38 -2 -63v-152q0 -66 15.5 -98.5t64.5 -32.5
q64 0 87 48q13 24 13 85v150q0 25 -2 63q-1 7 -4.5 9t-18.5 4l-38 7v43q62 -3 116 -3q59 0 119 3v-43l-39 -7q-16 -2 -19 -4t-4 -9q-2 -38 -2 -63v-209q0 -25 2 -63q1 -7 4.5 -9t18.5 -4l39 -7v-43q-34 2 -38 2q-61 0 -122 -7z" />
    <glyph glyph-name="Ucircumflex.sc" unicode="&#xe033;" horiz-adv-x="572" 
d="M281 683l130 -136l-39 -40l-93 78l-98 -78l-31 34zM382 -10v47q-90 -52 -165 -52q-79 0 -107 46t-28 130v169q0 25 -2 63q-1 7 -4.5 9t-19.5 4l-38 7v43q61 -3 117 -3q58 0 118 3v-43l-38 -7q-16 -2 -19 -4t-4 -9q-2 -38 -2 -63v-152q0 -66 15.5 -98.5t64.5 -32.5
q64 0 87 48q13 24 13 85v150q0 25 -2 63q-1 7 -4.5 9t-18.5 4l-38 7v43q62 -3 116 -3q59 0 119 3v-43l-39 -7q-16 -2 -19 -4t-4 -9q-2 -38 -2 -63v-209q0 -25 2 -63q1 -7 4.5 -9t18.5 -4l39 -7v-43q-34 2 -38 2q-61 0 -122 -7z" />
    <glyph glyph-name="Udieresis.sc" unicode="&#xe034;" horiz-adv-x="572" 
d="M197 636h1q12 0 36.5 -19.5t24.5 -31.5t-24.5 -40t-35.5 -28t-36 20t-25 31q0 13 23.5 40.5t35.5 27.5zM373 636h1q11 0 36 -20.5t25 -30.5q0 -12 -24 -40t-36 -28q-11 0 -36 20t-25 31q0 13 23.5 40.5t35.5 27.5zM382 -10v47q-90 -52 -165 -52q-79 0 -107 46t-28 130
v169q0 25 -2 63q-1 7 -4.5 9t-19.5 4l-38 7v43q61 -3 117 -3q58 0 118 3v-43l-38 -7q-16 -2 -19 -4t-4 -9q-2 -38 -2 -63v-152q0 -66 15.5 -98.5t64.5 -32.5q64 0 87 48q13 24 13 85v150q0 25 -2 63q-1 7 -4.5 9t-18.5 4l-38 7v43q62 -3 116 -3q59 0 119 3v-43l-38 -7
q-16 -2 -19.5 -4t-4.5 -9q-1 -19 -1 -63v-209q0 -44 1 -63q1 -7 4.5 -9t19.5 -4l38 -7v-43q-32 2 -38 2q-61 0 -122 -7z" />
    <glyph glyph-name="Ugrave.sc" unicode="&#xe035;" horiz-adv-x="572" 
d="M155 610l46 70q76 -48 126 -139l-41 -34q-58 67 -131 103zM382 -10v47q-90 -52 -165 -52q-79 0 -107 46t-28 130v169q0 25 -2 63q-1 7 -4.5 9t-19.5 4l-38 7v43q61 -3 117 -3q58 0 118 3v-43l-38 -7q-16 -2 -19 -4t-4 -9q-2 -38 -2 -63v-152q0 -66 15.5 -98.5t64.5 -32.5
q64 0 87 48q13 24 13 85v150q0 25 -2 63q-1 7 -4.5 9t-18.5 4l-38 7v43q62 -3 116 -3q59 0 119 3v-43l-39 -7q-16 -2 -19 -4t-4 -9q-2 -38 -2 -63v-209q0 -25 2 -63q1 -7 4.5 -9t18.5 -4l39 -7v-43q-34 2 -38 2q-61 0 -122 -7z" />
    <glyph glyph-name="V.sc" unicode="&#xe036;" horiz-adv-x="496" 
d="M264 104l81 210q26 68 26 82q0 9 -20 10l-61 7v43q87 -3 110 -3q55 0 106 3v-43l-48 -5q-10 -25 -78 -183q-55 -130 -85 -230h-99l-142 368q-11 28 -17.5 37.5t-17.5 10.5l-20 2v43q90 -3 112 -3q56 0 110 3v-43l-47 -7q-19 -3 -19 -9q0 -7 6 -21l24 -61q54 -142 76 -211
h3z" />
    <glyph glyph-name="W.sc" unicode="&#xe037;" horiz-adv-x="735" 
d="M368 313h-3q-15 -51 -41 -126l-17 -46q-35 -102 -47 -146h-92l-109 349q-12 40 -20 53t-23 14l-17 2v43q57 -3 108 -3q57 0 113 3v-43l-48 -6q-19 -3 -19 -9q0 -5 6 -26l14 -44q47 -156 59 -211h4l68 201q26 77 36 138h82l38 -125q51 -169 62 -215h4l70 212q17 50 17 67
q0 10 -18 12l-62 6v43q56 -3 106 -3q57 0 106 3v-43l-48 -6q-33 -95 -66 -181q-44 -117 -77 -231h-91l-46 150q-38 125 -49 168z" />
    <glyph glyph-name="X.sc" unicode="&#xe038;" horiz-adv-x="479" 
d="M261 292l59 80q12 17 12 27q0 6 -12 7l-37 7v43q96 -3 97 -3q47 0 92 3v-44l-48 -8q-10 -14 -33.5 -43t-29.5 -37q-54 -68 -64 -82l123 -173q17 -25 40 -28l25 -3v-43q-55 3 -113 3q-56 0 -110 -3v43l35 5q13 2 13 8q0 4 -10 17l-76 106l-75 -102q-13 -16 -13 -21
q0 -7 16 -8l44 -5v-43q-90 3 -103 3q-8 0 -104 -3v43l54 7q12 16 35.5 44.5t31.5 38.5q69 87 77 98l-114 157q-16 23 -33 26l-21 4v43q57 -3 114 -3q53 0 108 3v-43l-42 -8q-11 -1 -11 -6q0 -8 6 -15z" />
    <glyph glyph-name="Y.sc" unicode="&#xe039;" horiz-adv-x="436" 
d="M241 255l43 69q36 57 36 73q0 8 -16 11l-35 5v43q47 -3 91 -3q46 0 89 3v-43l-42 -7q-28 -46 -65 -101q-35 -53 -73 -114v-70q0 -25 2 -63q1 -7 4.5 -9t19.5 -4l37 -7v-43q-62 3 -117 3q-57 0 -117 -3v43l38 7q16 2 19.5 4t4.5 9q2 38 2 63v70l-117 195q-8 14 -13.5 18
t-18.5 6l-18 3v43q51 -3 101 -3q46 0 106 3v-43l-26 -4q-18 -3 -18 -11q0 -9 8 -20z" />
    <glyph glyph-name="Yacute.sc" unicode="&#xe03a;" horiz-adv-x="436" 
d="M311 682l58 -52q-69 -76 -171 -123l-30 49q74 44 143 126zM241 255l43 69q36 57 36 73q0 8 -16 11l-35 5v43q47 -3 91 -3q46 0 89 3v-43l-42 -7q-28 -46 -65 -101q-35 -53 -73 -114v-70q0 -25 2 -63q1 -7 4.5 -9t19.5 -4l37 -7v-43q-62 3 -117 3q-57 0 -117 -3v43l38 7
q16 2 19.5 4t4.5 9q2 38 2 63v70l-117 195q-8 14 -13.5 18t-18.5 6l-18 3v43q51 -3 101 -3q46 0 106 3v-43l-26 -4q-18 -3 -18 -11q0 -9 8 -20z" />
    <glyph glyph-name="Ydieresis.sc" unicode="&#xe03b;" horiz-adv-x="436" 
d="M136 636h1q12 0 36.5 -19.5t24.5 -31.5t-24.5 -40t-34.5 -28q-12 0 -37 20t-25 31q0 13 23.5 40.5t35.5 27.5zM312 636h1q11 0 36 -20.5t25 -30.5q0 -12 -24 -40t-36 -28q-11 0 -36 20t-25 31q0 13 23.5 40.5t35.5 27.5zM241 255l43 69q36 57 36 73q0 8 -16 11l-35 5v43
q47 -3 91 -3q46 0 89 3v-43l-42 -7q-28 -46 -65 -101q-35 -53 -73 -114v-70q0 -25 2 -63q1 -7 4.5 -9t19.5 -4l37 -7v-43q-62 3 -117 3q-57 0 -117 -3v43l38 7q16 2 19.5 4t4.5 9q2 38 2 63v70l-117 195q-8 14 -13.5 18t-18.5 6l-18 3v43q51 -3 101 -3q46 0 106 3v-43
l-26 -4q-18 -3 -18 -11q0 -9 8 -20z" />
    <glyph glyph-name="Z.sc" unicode="&#xe03c;" horiz-adv-x="423" 
d="M80 305h-44l-8 151q82 -3 186 -3q82 0 167 3l13 -27l-248 -380h79q94 0 105 7q13 8 36 90l43 -5l-13 -146q-70 0 -151 1.5t-111 1.5q-60 0 -107 -3l-15 25l250 382h-60q-88 0 -101 -7q-14 -8 -21 -90z" />
    <glyph glyph-name="Zcaron.sc" unicode="&#xe03d;" horiz-adv-x="423" 
d="M217 509l-130 135l38 41l94 -78l98 78l31 -35zM80 305h-44l-8 151q82 -3 186 -3q82 0 167 3l13 -27l-248 -380h79q94 0 105 7q13 8 36 90l43 -5l-13 -146q-70 0 -151 1.5t-111 1.5q-60 0 -107 -3l-15 25l250 382h-60q-88 0 -101 -7q-14 -8 -21 -90z" />
    <glyph glyph-name="f_i.sc" unicode="&#xe03e;" horiz-adv-x="706" 
d="M201 405v-157l73 1q21 0 27.5 5t6.5 23v7h50q-3 -36 -3 -59q0 -42 5 -80l-50 -4l-5 27q-3 17 -8.5 21t-26.5 4h-69v-72q0 -25 2 -63q1 -11 24 -13l55 -7v-43q-62 3 -134 3q-58 0 -118 -3v43l37 7q15 2 19 4.5t5 8.5q2 38 2 63v209q0 25 -2 63q-1 7 -5 9t-19 4l-37 7v43
q69 -3 136 -3q144 0 214 3l-9 -132h-42q-8 44 -14 63q-3 11 -20 14.5t-75 3.5h-19zM676 38v-43q-62 3 -116 3q-58 0 -118 -3v43l37 7q16 2 19.5 4t4.5 9q2 38 2 63v209q0 25 -2 63q-1 7 -4 8.5t-16 3.5q-3 1 -4 1l-37 7v43q62 -3 118 -3t116 3v-43l-38 -7q-16 -2 -19 -4
t-4 -9q-2 -38 -2 -63v-209q0 -25 2 -63q1 -7 4 -9t19 -4z" />
    <glyph glyph-name="f_l.sc" unicode="&#xe03f;" horiz-adv-x="832" 
d="M201 405v-157l73 1q21 0 27.5 5t6.5 23v7h50q-3 -36 -3 -59q0 -42 5 -80l-50 -4l-5 27q-3 17 -8.5 21t-26.5 4h-69v-72q0 -25 2 -63q1 -11 24 -13l55 -7v-43q-62 3 -134 3q-58 0 -118 -3v43l37 7q15 2 19 4.5t5 8.5q2 38 2 63v209q0 25 -2 63q-1 7 -5 9t-19 4l-37 7v43
q69 -3 136 -3q144 0 214 3l-9 -132h-42q-8 44 -14 63q-3 11 -20 14.5t-75 3.5h-19zM778 139l47 -5l-13 -139q-76 0 -152.5 1.5t-103.5 1.5q-68 0 -114 -3v43l37 7q16 2 19.5 4t4.5 9q2 38 2 63v209q0 25 -2 63q-1 7 -4.5 9t-19.5 4l-37 7v43q62 -3 118 -3q75 0 135 3v-43
l-57 -7l-12 -1.5t-6.5 -2t-3.5 -3.5t-1 -6q-2 -38 -2 -63v-226q0 -40 8 -48.5t47 -8.5q70 0 82 9q10 8 28 83z" />
    <glyph glyph-name="germandbls.sc" unicode="&#xe040;" horiz-adv-x="757" 
d="M323 303h-48q-7 72 -17 86q-11 21 -52 21q-32 0 -49.5 -16t-17.5 -44q0 -30 20.5 -46.5t68.5 -35.5q27 -11 39.5 -17t32 -18t28 -23.5t15.5 -30t7 -42.5q0 -68 -52 -110t-137 -42q-66 0 -132 35l8 143h54q-1 -12 -1 -24q0 -52 16.5 -75t64.5 -23q35 0 55 18t20 49
q0 33 -19.5 49.5t-64.5 34.5q-33 14 -48.5 21.5t-37.5 23.5t-31 37t-9 50q0 65 51.5 103.5t139.5 38.5q53 0 103 -14zM702 303h-49q-5 70 -17 86q-11 21 -52 21q-31 0 -48.5 -15.5t-17.5 -44.5q0 -30 20.5 -46.5t68.5 -35.5q27 -11 39.5 -17t31.5 -18t27.5 -23.5t15.5 -30
t7 -42.5q0 -68 -51.5 -110t-136.5 -42q-67 0 -133 35l9 143h53v-24q0 -52 16.5 -75t64.5 -23q35 0 55 18.5t20 48.5q0 18 -5.5 30.5t-19.5 22.5t-25 15.5t-34 15.5q-33 14 -49 21.5t-37.5 23.5t-30.5 37t-9 50q0 65 51.5 103.5t138.5 38.5q55 0 103 -14z" />
    <glyph glyph-name="uni2014.alt" unicode="&#xe041;" horiz-adv-x="548" 
d="M43 274h462v-89h-462v89z" />
    <glyph glyph-name="zero.taboldstyle" unicode="&#xf643;" horiz-adv-x="474" 
d="M435 227v-1q0 -110 -57 -175.5t-152 -65.5q-90 0 -138.5 56.5t-48.5 161.5q0 115 58.5 182.5t157.5 67.5q86 0 133 -58.5t47 -167.5zM348 221v1q0 73 -27.5 112t-78.5 39q-56 0 -85.5 -39.5t-29.5 -114.5q0 -153 110 -153q53 0 82 40t29 115z" />
    <glyph glyph-name="one.taboldstyle" unicode="&#xf644;" horiz-adv-x="474" 
d="M94 365v49q122 13 191 39l19 -16q-7 -53 -7 -183v-133q0 -25 2 -63q1 -7 4.5 -9t17.5 -4l37 -7v-43q-63 3 -121 3q-69 0 -130 -3v43l57 7q22 3 24 10q2 14 2 66v251z" />
    <glyph glyph-name="two.taboldstyle" unicode="&#xf645;" horiz-adv-x="474" 
d="M109 332l-30 38q93 83 180 83q52 0 81.5 -28.5t29.5 -81.5q0 -58 -44 -116.5t-135 -141.5l203 -29q2 -9 2 -26q0 -14 -2 -22l-12 -13q-119 7 -172 7q-37 0 -163 -7v34q64 61 103 101t74.5 95t35.5 96q0 56 -52 56q-43 0 -99 -45z" />
    <glyph glyph-name="three.taboldstyle" unicode="&#xf646;" horiz-adv-x="474" 
d="M101 333l-30 37q91 83 177 83q50 0 80.5 -28t30.5 -78q0 -95 -122 -161q67 -3 106 -27t39 -84q0 -76 -65 -155q-44 -53 -91.5 -83.5t-87.5 -30.5q-39 0 -71 12.5t-32 28.5q0 24 26 67q53 -22 90 -22q56 0 91 38.5t35 100.5q0 50 -28.5 76.5t-83.5 26.5q-16 0 -44 -4
l-8 12l16 34q120 57 120 141q0 61 -53 61q-43 0 -95 -45z" />
    <glyph glyph-name="four.taboldstyle" unicode="&#xf647;" horiz-adv-x="474" 
d="M275 444h83q-4 -75 -4 -167v-213h89q7 -28 0 -55l-14 -14h-75v-18q0 -70 4 -126l-86 -47l-18 10q4 110 4 165v16h-225v63q94 211 242 386zM258 65v251q-93 -114 -146 -251h146z" />
    <glyph glyph-name="five.taboldstyle" unicode="&#xf648;" horiz-adv-x="474" 
d="M82 238l39 194q122 0 244 14q7 -28 7 -57l-12 -15l-184 -33l-7 -34q40 -21 60.5 -33t55.5 -37t53 -47t32.5 -55.5t14.5 -70.5q0 -91 -71 -173q-76 -85 -152 -85q-40 0 -69.5 12.5t-29.5 28.5q0 25 28 71q52 -22 91 -22q52 0 83.5 34t31.5 90q0 130 -215 218z" />
    <glyph glyph-name="six.taboldstyle" unicode="&#xf649;" horiz-adv-x="474" 
d="M292 644l41 -39q-103 -101 -143 -229q52 24 100 24q128 0 128 -146q0 -114 -64 -191.5t-152 -77.5q-68 0 -107 54t-39 152q0 128 65.5 247.5t170.5 205.5zM313 200v1q0 52 -17.5 94t-57.5 42q-35 0 -56.5 -36t-21.5 -103t20 -105.5t54 -38.5t56.5 40t22.5 106z" />
    <glyph glyph-name="seven.taboldstyle" unicode="&#xf64a;" horiz-adv-x="474" 
d="M402 444l12 -18l-11 -24q-109 -245 -144 -345q-39 -112 -39 -178q0 -28 5 -48q-42 -18 -69 -18q-38 0 -38 72q0 57 39 147q40 93 159 325h-251q-3 16 -3 45q0 26 3 42h337z" />
    <glyph glyph-name="eight.taboldstyle" unicode="&#xf64b;" horiz-adv-x="474" 
d="M395 514v-1q0 -94 -93 -160q58 -35 87 -70t29 -92q0 -84 -60.5 -145t-148.5 -61q-73 0 -114.5 39.5t-41.5 111.5q0 107 110 189q-44 30 -63.5 59.5t-19.5 74.5q0 75 52.5 127t130.5 52q62 0 97 -32.5t35 -91.5zM180 491v-1q0 -36 16.5 -61.5t58.5 -50.5q44 43 44 107
q0 41 -15 64t-42 23q-28 0 -45 -22t-17 -59zM313 153v1q0 51 -25.5 81.5t-79.5 62.5q-54 -61 -54 -139q0 -52 20.5 -80.5t56.5 -28.5q38 0 60 28t22 75z" />
    <glyph glyph-name="nine.taboldstyle" unicode="&#xf64c;" horiz-adv-x="474" 
d="M186 -206l-44 39q59 69 94 126.5t55 127.5q-52 -29 -107 -29q-60 0 -94 38t-34 105q0 104 64.5 178t150.5 74q66 0 105 -54t39 -148q0 -131 -63 -248t-166 -209zM311 256v1q0 53 -19 90.5t-52 37.5q-35 0 -56 -38t-21 -101q0 -57 19.5 -91t53.5 -34q36 0 55.5 42t19.5 93
z" />
    <glyph glyph-name="Euro.taboldstyle" unicode="&#xf64e;" horiz-adv-x="474" 
d="M336 172h-142q27 -101 122 -101q46 0 87 24l19 -35q-73 -70 -164 -70q-67 0 -112 50.5t-54 131.5h-40v47h38q2 34 5 50h-43v48h56q26 79 82 131.5t119 52.5q41 0 66.5 -11t25.5 -29q0 -34 -22 -66q-46 21 -88 21q-82 0 -102 -99h179l-11 -48h-173v-15q0 -24 1 -34h162z
" />
    <glyph glyph-name="dollar.taboldstyle" unicode="&#xf653;" horiz-adv-x="474" 
d="M263 557v-114q46 -2 80 -15q18 -7 18 -22q0 -27 -26 -69q-63 29 -103 29q-21 0 -33 -9.5t-12 -26.5t16.5 -28.5t70.5 -34.5q60 -25 84 -45.5t24 -50.5q0 -49 -47 -105q-37 -44 -72 -59v-132h-55v125q-54 4 -97 28q-26 14 -26 30q0 19 40 63q67 -40 112 -40
q25 0 39.5 11.5t14.5 31.5t-16.5 32.5t-73.5 37.5q-59 26 -80.5 44.5t-21.5 50.5q0 43 44 95q32 39 65 52v121h55z" />
    <glyph glyph-name="cent.taboldstyle" unicode="&#xf654;" horiz-adv-x="474" 
d="M261 511l54 -4l-13 -113q58 -6 58 -31q0 -28 -21 -67q-24 15 -64 15q-33 0 -54 -23t-21 -66q0 -46 22.5 -72.5t66.5 -26.5q32 0 71 17l19 -35q-58 -51 -114 -60l-12 -119l-55 4l12 115q-43 11 -70.5 49t-27.5 99q0 75 42.5 130.5t93.5 68.5z" />
    <glyph glyph-name="zero.denominator" unicode="&#xf655;" 
d="M287 194v-1q0 -91 -41 -148t-105 -57q-59 0 -92.5 46t-33.5 133q0 98 40.5 153.5t106.5 55.5q60 0 92.5 -47.5t32.5 -134.5zM203 180v1q0 149 -53 149q-51 0 -51 -147q0 -149 52 -149t52 146z" />
    <glyph glyph-name="one.denominator" unicode="&#xf656;" 
d="M35 313v40q94 8 150 29l18 -12q-6 -38 -6 -100v-194q0 -24 2 -36q0 -1 11 -3l39 -5v-37q-47 3 -96 3q-53 0 -101 -3v37l49 5q3 1 7 1h3q2 2 2 38v246z" />
    <glyph glyph-name="two.denominator" unicode="&#xf657;" 
d="M49 297l-22 32q64 50 135 50q45 0 71.5 -24.5t26.5 -69.5q0 -90 -137 -225l156 -18q4 -22 0 -36l-11 -11q-112 5 -141 5q-16 0 -106 -5l-13 25q89 80 128 139.5t39 114.5q0 26 -13.5 39.5t-36.5 13.5q-33 0 -76 -30z" />
    <glyph glyph-name="three.denominator" unicode="&#xf658;" 
d="M65 295l-24 32q61 49 124 49q35 0 61 -15.5t26 -50.5q0 -53 -71 -91q39 -1 63.5 -19t24.5 -54q0 -63 -56.5 -110.5t-119.5 -47.5q-29 0 -53 9t-24 21q0 19 28 50q34 -24 70 -24q31 0 53.5 18.5t22.5 52.5q0 61 -69 61q-10 0 -38 -4l-10 14l12 27q82 25 82 78q0 33 -35 33
q-28 0 -67 -29z" />
    <glyph glyph-name="four.denominator" unicode="&#xf659;" 
d="M165 86h-156v42q27 62 72.5 130t93.5 117h64q-3 -53 -3 -96v-140h47q5 -29 0 -45l-10 -8h-37v-11v-17t0.5 -12t0.5 -5q1 -2 11 -4l39 -5v-37q-87 3 -89 3t-95 -3v37l50 5q10 1 11 3q1 5 1 35v11zM165 139v151q-26 -31 -54 -76t-39 -75h93z" />
    <glyph glyph-name="five.denominator" unicode="&#xf65a;" 
d="M39 210l27 159q79 0 197 8q2 -7 2 -19q0 -9 -2 -16l-7 -9l-136 -17q-9 -17 -22 -69q23 7 52 7q53 0 85 -23.5t32 -71.5q0 -65 -51.5 -118t-117.5 -53q-28 0 -50.5 8.5t-22.5 21.5q0 23 25 48q29 -21 64 -21q29 0 51.5 20t22.5 64q0 39 -20.5 57.5t-54.5 18.5
q-27 0 -56 -10z" />
    <glyph glyph-name="six.denominator" unicode="&#xf65b;" 
d="M193 385l31 -38q-75 -51 -101 -120q33 12 61 12q44 0 70.5 -23.5t26.5 -67.5q0 -66 -43.5 -113t-107.5 -47q-49 0 -79 33.5t-30 90.5q0 85 47.5 155t124.5 118zM200 118v1q0 75 -48 75q-23 0 -36.5 -19.5t-13.5 -57.5q0 -41 13.5 -62t33.5 -21q21 0 36 21.5t15 62.5z" />
    <glyph glyph-name="seven.denominator" unicode="&#xf65c;" 
d="M276 372l11 -15q-3 -6 -13.5 -25.5t-13.5 -25.5q-56 -108 -80 -168q-24 -61 -24 -105q0 -9 6 -32q-30 -13 -56 -13q-36 0 -36 49q0 33 19 73q34 73 117 204h-171q-3 14 -3 29q0 17 3 29h241z" />
    <glyph glyph-name="eight.denominator" unicode="&#xf65d;" 
d="M269 299v-1q0 -55 -66 -89q41 -21 61.5 -42t20.5 -54q0 -52 -45.5 -88.5t-106.5 -36.5q-53 0 -84 25t-31 68q0 65 78 105q-60 34 -60 82q0 45 40 76.5t93 31.5q47 0 73.5 -20t26.5 -57zM115 284v-1q0 -18 11 -30t39 -26q29 23 29 58q0 23 -11 35t-28 12q-18 0 -29 -13
t-11 -35zM203 90v1q0 26 -18 43t-52 33q-36 -29 -36 -72q0 -31 14 -47.5t37 -16.5q24 0 39.5 15.5t15.5 43.5z" />
    <glyph glyph-name="nine.denominator" unicode="&#xf65e;" 
d="M110 -20l-31 38q85 63 105 132q-36 -14 -67 -14q-44 0 -70 23.5t-26 64.5q0 61 45.5 106.5t107.5 45.5q49 0 78.5 -32.5t29.5 -87.5q0 -82 -47 -154t-125 -122zM200 258v1q0 36 -13 54t-34 18q-22 0 -36.5 -22t-14.5 -59q0 -34 14 -51.5t35 -17.5q22 0 35.5 19.5
t13.5 57.5z" />
    <glyph glyph-name="zero.numerator" unicode="&#xf661;" 
d="M287 452v-1q0 -91 -41 -147.5t-105 -56.5q-59 0 -92.5 46t-33.5 132q0 98 40.5 153.5t106.5 55.5q60 0 92.5 -47.5t32.5 -134.5zM203 439v1q0 148 -53 148q-51 0 -51 -147q0 -148 52 -148t52 146z" />
    <glyph glyph-name="one.numerator" unicode="&#xf662;" 
d="M35 569v41q98 9 150 28l18 -12q-6 -38 -6 -100v-194q0 -24 2 -36q1 -1 11 -3l39 -5v-37q-31 2 -96 2q-69 0 -101 -2v36l49 5q9 1 10 2q2 2 2 38v247z" />
    <glyph glyph-name="two.numerator" unicode="&#xf663;" 
d="M49 553l-22 32q64 50 135 50q45 0 71.5 -24.5t26.5 -69.5q0 -90 -137 -225l156 -18q4 -22 0 -36l-11 -11q-90 4 -141 4q-34 0 -106 -4l-13 25q89 80 128 139.5t39 114.5q0 26 -13.5 39.5t-36.5 13.5q-33 0 -76 -30z" />
    <glyph glyph-name="three.numerator" unicode="&#xf664;" 
d="M65 553l-24 33q62 48 124 48q35 0 61 -15t26 -50q0 -52 -71 -92q39 -1 63.5 -18.5t24.5 -53.5q0 -63 -56.5 -110.5t-119.5 -47.5q-30 0 -53.5 8.5t-23.5 20.5q0 20 28 51q35 -25 70 -25q31 0 53.5 18.5t22.5 52.5q0 61 -69 61q-19 0 -38 -4l-10 14l12 27q82 25 82 78
q0 34 -35 34q-27 0 -67 -30z" />
    <glyph glyph-name="four.numerator" unicode="&#xf665;" 
d="M165 342h-156v42q26 62 72 129t94 118h64q-3 -54 -3 -96v-140h47q5 -29 0 -46l-10 -7h-37v-11v-17t0.5 -12t0.5 -5q1 -2 11 -4l39 -5v-37q-87 3 -89 3t-95 -3v36l50 5q10 1 11 4q1 5 1 35v11zM165 395v151q-26 -29 -54 -74.5t-39 -76.5h93z" />
    <glyph glyph-name="five.numerator" unicode="&#xf666;" 
d="M39 469l27 159q94 0 197 7q2 -7 2 -19q0 -9 -2 -16l-7 -9l-136 -16q-10 -18 -22 -70q23 7 52 7q52 0 84.5 -24t32.5 -71q0 -65 -51.5 -117.5t-117.5 -52.5q-29 0 -51 8t-22 21q0 24 25 49q30 -22 64 -22q29 0 51.5 20.5t22.5 63.5q0 39 -20.5 57.5t-54.5 18.5
q-27 0 -56 -10z" />
    <glyph glyph-name="six.numerator" unicode="&#xf667;" 
d="M193 646l31 -38q-75 -51 -101 -120q33 12 61 12q44 0 70.5 -23.5t26.5 -67.5q0 -66 -43.5 -112.5t-107.5 -46.5q-49 0 -79 33t-30 89q0 85 47.5 155.5t124.5 118.5zM200 378v1q0 77 -48 77q-23 0 -36.5 -20.5t-13.5 -58.5q0 -40 13.5 -61t33.5 -21q21 0 36 21.5t15 61.5z
" />
    <glyph glyph-name="seven.numerator" unicode="&#xf668;" 
d="M276 629l11 -16q-26 -49 -27 -50q-59 -115 -80 -168q-24 -61 -24 -105q0 -10 6 -33q-28 -12 -56 -12q-36 0 -36 49q0 34 19 72q34 73 117 204h-171q-3 14 -3 30q0 17 3 29h241z" />
    <glyph glyph-name="eight.numerator" unicode="&#xf669;" 
d="M269 557v-1q0 -54 -66 -88q41 -20 61.5 -42t20.5 -55q0 -52 -45 -88t-107 -36q-53 0 -84 25t-31 67q0 66 78 106q-60 34 -60 82q0 45 39.5 76t93.5 31q47 0 73.5 -20t26.5 -57zM115 542v-1q0 -18 11 -29.5t39 -25.5q29 24 29 57q0 23 -11 35.5t-28 12.5q-18 0 -29 -13.5
t-11 -35.5zM203 349v1q0 42 -70 76q-36 -29 -36 -73q0 -30 14 -46.5t37 -16.5q24 0 39.5 15.5t15.5 43.5z" />
    <glyph glyph-name="nine.numerator" unicode="&#xf66a;" 
d="M110 237l-31 39q85 61 105 131q-37 -13 -67 -13q-44 0 -70 24t-26 65q0 61 45.5 106t107.5 45q49 0 78.5 -32.5t29.5 -87.5q0 -82 -46.5 -154t-125.5 -123zM200 516v1q0 36 -13 53.5t-34 17.5q-22 0 -36.5 -21.5t-14.5 -58.5q0 -34 14 -51.5t35 -17.5q22 0 35.5 19.5
t13.5 57.5z" />
    <glyph glyph-name="one.fitted" unicode="&#xf6dc;" horiz-adv-x="342" 
d="M5 538v51q143 17 220 47l20 -15q-8 -63 -8 -166v-332q0 -53 3 -67q3 -8 21 -9l54 -7v-45q-78 3 -136 3q-98 0 -149 -3v45l68 7q20 1 23 6q4 5 4 70v431z" />
    <glyph glyph-name="R_p" unicode="&#xf6dd;" horiz-adv-x="983" 
d="M208 289v-165q0 -25 2 -63q1 -7 4 -9t18 -4l48 -7v-46q-76 4 -124 4q-47 0 -121 -4v46l48 7q15 2 18 4t4 9q1 19 1 63v456q-3 0 -69 -3v47q71 7 156 7q141 0 200 -24q74 -32 74 -117q0 -106 -100 -174q54 -112 105 -183q39 -53 89 -97v324l-63 14v32q72 12 147 52l22 -12
v-44l3 -2q79 53 152 53q132 0 132 -194q0 -128 -55 -201t-152 -73q-41 0 -79 16v-82q0 -40 2 -52q1 -11 12 -11q7 0 15 2q59 6 61 6v-52q-141 -11 -245 -57l-18 46q12 7 44 19q17 9 19 11q3 5 3 68v92h-8q-63 0 -115.5 46t-107.5 137q-28 49 -41 74q-12 26 -26.5 33.5
t-45.5 7.5h-9zM208 581v-245h10q71 0 107.5 33t36.5 96q0 65 -41 90.5t-113 25.5zM757 379h-1q-47 0 -71 -35q-17 -24 -17 -96v-170q30 -33 71 -33q105 0 105 187q0 147 -87 147z" />
    <glyph glyph-name="cent.inferior" unicode="&#xf6df;" 
d="M159 390l46 -4l-9 -76q47 -5 47 -26q0 -16 -17 -43q-30 14 -56 14q-25 0 -41.5 -17.5t-16.5 -49.5q0 -33 17 -53.5t49 -20.5q24 0 63 18l17 -29q-43 -35 -87 -41l-9 -88l-46 5l8 84q-38 8 -60 34.5t-22 69.5q0 52 32 90.5t76 51.5z" />
    <glyph glyph-name="cent.superior" unicode="&#xf6e0;" 
d="M159 651l46 -4l-9 -76q47 -5 47 -26q0 -16 -17 -44q-28 15 -56 15q-25 0 -41.5 -17.5t-16.5 -50.5q0 -32 17 -52.5t49 -20.5q26 0 63 17l17 -29q-43 -34 -87 -40l-9 -88l-46 4l8 84q-82 18 -82 105q0 52 32 90.5t76 50.5z" />
    <glyph glyph-name="comma.inferior" unicode="&#xf6e1;" horiz-adv-x="181" 
d="M52 -84h-16l-20 18q40 51 40 74q0 13 -25 33q34 44 51 44q14 0 31 -16.5t17 -37.5q0 -40 -78 -115z" />
    <glyph glyph-name="comma.superior" unicode="&#xf6e2;" horiz-adv-x="181" 
d="M52 174h-16l-20 19q40 51 40 74q0 14 -25 33q33 43 51 43q14 0 31 -16.5t17 -37.5q0 -40 -78 -115z" />
    <glyph glyph-name="dollar.inferior" unicode="&#xf6e3;" 
d="M176 393v-71q24 -1 49 -9q15 -6 15 -17q0 -20 -18 -43q-44 19 -72 19q-11 0 -17 -6.5t-6 -14.5q0 -9 12 -15.5t43 -17.5q36 -13 53.5 -25.5t17.5 -34.5q0 -31 -31 -64q-21 -24 -46 -35v-82h-47v76q-30 1 -61 17q-20 9 -20 22q0 16 25 41q45 -27 80 -27q30 0 30 23
q0 11 -12.5 19t-43.5 19q-38 14 -54 26.5t-16 34.5q0 23 23 51t49 38v76h47z" />
    <glyph glyph-name="dollar.superior" unicode="&#xf6e4;" 
d="M176 651v-71q27 -2 49 -10q15 -4 15 -17q0 -19 -18 -43q-44 19 -72 19q-11 0 -17 -6t-6 -14q0 -10 12 -16.5t43 -17.5q36 -13 53.5 -25t17.5 -34q0 -31 -31 -65q-24 -26 -46 -34v-82h-47v76q-30 1 -61 17q-20 9 -20 22q0 16 25 41q45 -28 80 -28q30 0 30 24
q0 11 -12 18.5t-44 19.5q-38 14 -54 26t-16 34q0 23 23 51t49 38v77h47z" />
    <glyph glyph-name="hyphen.inferior" unicode="&#xf6e5;" horiz-adv-x="188" 
d="M26 173v62l136 29v-62z" />
    <glyph glyph-name="hyphen.superior" unicode="&#xf6e6;" horiz-adv-x="188" 
d="M26 398v62l136 29v-61z" />
    <glyph glyph-name="period.inferior" unicode="&#xf6e7;" horiz-adv-x="177" 
d="M88 -15h-1q-10 0 -31.5 18t-21.5 27q0 11 21.5 33t32.5 22q12 0 33 -17.5t21 -26.5q0 -10 -21 -33t-33 -23z" />
    <glyph glyph-name="period.superior" unicode="&#xf6e8;" horiz-adv-x="177" 
d="M88 244h-1q-10 0 -31.5 17.5t-21.5 26.5q0 11 21.5 33t32.5 22q12 0 33 -17t21 -27t-21.5 -32.5t-32.5 -22.5z" />
    <glyph glyph-name="a.superior" unicode="&#xf6e9;" horiz-adv-x="297" 
d="M50 472l-18 31q76 50 139 50q42 0 58.5 -22.5t16.5 -65.5q0 -16 -1 -45.5t-1 -44.5q0 -49 7 -76l50 -8l1 -24l-59 -10l-61 -11q-9 16 -12 32h-3q-21 -15 -43 -23q-23 -9 -43 -9q-36 0 -55 25t-19 62q0 19 21 34q53 36 140 58v18q0 31 -8.5 42.5t-31.5 11.5q-29 0 -78 -25
zM168 356v23q-76 -7 -76 -50q0 -33 29 -33q47 0 47 60z" />
    <glyph glyph-name="b.superior" unicode="&#xf6ea;" horiz-adv-x="338" 
d="M120 723v-201q59 31 105 31q98 0 98 -128q0 -87 -40 -133t-115 -46q-40 0 -73 20l-37 -27l-24 10v274q0 111 -14 188q49 9 81 23zM178 498h-1q-35 0 -49 -25q-8 -13 -8 -55v-107q19 -20 45 -20q70 0 70 118q0 89 -57 89z" />
    <glyph glyph-name="d.superior" unicode="&#xf6eb;" horiz-adv-x="353" 
d="M301 721v-326q0 -70 6 -96l51 -7v-25l-127 -20q-9 13 -13 32h-3q-59 -33 -103 -33q-95 0 -95 129q0 77 40 127.5t101 50.5q23 0 58 -12v11q0 71 -16 159q55 11 81 23zM159 299h1q28 0 43 18q13 16 13 58v110q-25 12 -52 12q-61 0 -61 -101q0 -97 56 -97z" />
    <glyph glyph-name="e.superior" unicode="&#xf6ec;" horiz-adv-x="297" 
d="M272 329l16 -27q-78 -56 -141 -56q-59 0 -94.5 40t-35.5 106q0 72 40.5 116.5t107.5 44.5q52 0 83 -28.5t31 -76.5q0 -20 -5 -38h-177q0 -51 20.5 -77.5t69.5 -26.5q38 0 85 23zM101 449l92 8q0 51 -39 51q-42 0 -53 -59z" />
    <glyph glyph-name="i.superior" unicode="&#xf6ed;" horiz-adv-x="191" 
d="M129 708l15 -14l-24 -99l-47 -12l-32 103zM121 557l24 -12q-3 -28 -3 -82v-127q0 -27 1 -38q0 -6 13 -7l30 -5v-33q-60 2 -88 2q-27 0 -87 -2v33l30 5q14 1 14 7q1 11 1 38v75q0 43 -4 80l-40 8v25q63 11 109 33z" />
    <glyph glyph-name="l.superior" unicode="&#xf6ee;" horiz-adv-x="191" 
d="M137 722v-386q0 -27 1 -38q0 -6 14 -7l30 -5v-33q-60 2 -87 2t-87 -2v33l29 5q15 1 15 7q1 11 1 38v187q0 105 -15 188q47 9 81 23z" />
    <glyph glyph-name="m.superior" unicode="&#xf6ef;" horiz-adv-x="548" 
d="M119 556l21 -11v-27h3q60 35 102 35q45 0 69 -35q62 35 110 35q22 0 37.5 -8t23.5 -18t12 -28t4.5 -29.5t0.5 -30.5v-103q0 -27 1 -38q0 -6 13 -7l27 -5v-33q-62 2 -84 2t-82 -2v33l25 5q14 3 14 7q1 12 1 38v90q0 23 -1.5 35.5t-11.5 25t-30 12.5q-29 0 -41 -17
q-13 -15 -13 -61v-85q0 -26 1 -38q0 -6 12 -7l25 -5v-33q-60 2 -80 2t-80 -2v33l25 5q14 3 14 7q1 12 1 38v91q0 41 -9 56.5t-36 15.5q-29 0 -42 -20q-9 -17 -9 -55v-88q0 -26 1 -38q0 -6 11 -7l25 -5v-33q-60 2 -81 2q-27 0 -87 -2v33l30 5q14 1 14 7q1 11 1 38v152l-44 9
v24q53 8 107 35z" />
    <glyph glyph-name="o.superior" unicode="&#xf6f0;" horiz-adv-x="340" 
d="M324 410v-1q0 -77 -41 -120t-121 -43q-70 0 -107.5 36t-37.5 103q0 79 42.5 123.5t118.5 44.5q70 0 108 -37t38 -106zM236 398v1q0 53 -18 82.5t-48 29.5q-31 0 -49 -27.5t-18 -82.5q0 -54 18.5 -83t50.5 -29q64 0 64 109z" />
    <glyph glyph-name="r.superior" unicode="&#xf6f1;" horiz-adv-x="249" 
d="M120 556l20 -10v-53h3q27 60 58 60q26 0 49 -10q15 -7 15 -19q0 -17 -21 -49q-25 11 -46 11q-19 0 -31.5 -9.5t-17 -27t-6 -30.5t-1.5 -33v-50q0 -27 1 -38q0 -6 12 -7l50 -4v-34q-35 2 -101 2q-59 0 -93 -2v34l30 4q14 3 14 7q1 12 1 38v151l-44 9v26q62 11 108 34z" />
    <glyph glyph-name="s.superior" unicode="&#xf6f2;" horiz-adv-x="235" 
d="M207 523v-1q0 -18 -20 -47q-49 21 -72 21q-26 0 -26 -23q0 -9 11 -17t46 -23q44 -19 59.5 -33t15.5 -35q0 -33 -29 -65q-47 -54 -92 -54q-33 0 -72 18q-19 10 -19 24q0 19 28 44q45 -26 78 -26q32 0 32 29q0 11 -11.5 19.5t-46.5 23.5q-40 17 -56 31.5t-16 37.5
q0 29 33 65q39 41 82 41q25 0 59 -12q16 -5 16 -18z" />
    <glyph glyph-name="t.superior" unicode="&#xf6f3;" horiz-adv-x="215" 
d="M215 552v-54l-88 4v-130q0 -46 8 -60t32 -14q25 0 52 6l8 -28q-70 -30 -112 -30q-35 0 -52 21q-19 23 -19 97v141l-31 2v32l31 2v66q35 10 69 33l21 -13q-7 -38 -7 -81z" />
    <glyph glyph-name="breve.sc" unicode="&#xf6f4;" horiz-adv-x="475" 
d="M282 645h71q1 -8 1 -20q0 -101 -126 -101q-105 0 -105 107q29 23 86 25q0 -53 11 -72t36 -19q31 0 31 39q0 21 -5 41z" />
    <glyph glyph-name="caron.sc" unicode="&#xf6f5;" horiz-adv-x="421" 
d="M209 509l-129 135l38 41l94 -78l98 78l31 -35z" />
    <glyph glyph-name="circumflex.sc" unicode="&#xf6f6;" horiz-adv-x="421" 
d="M211 683l130 -136l-39 -40l-93 78l-98 -78l-31 34z" />
    <glyph glyph-name="dotaccent.sc" unicode="&#xf6f7;" horiz-adv-x="475" 
d="M235 643h1q14 0 40 -20.5t26 -34.5q0 -15 -25 -43.5t-40 -28.5q-13 0 -39 21t-26 33q0 16 23.5 44.5t39.5 28.5z" />
    <glyph glyph-name="hungarumlaut.sc" unicode="&#xf6f8;" horiz-adv-x="476" 
d="M147 507l-31 24q49 80 77 161l74 -43q-53 -88 -120 -142zM291 507l-31 24q49 80 77 161l73 -43q-50 -85 -119 -142z" />
    <glyph glyph-name="lslash.sc" unicode="&#xf6f9;" horiz-adv-x="420" 
d="M365 139l48 -5l-13 -139q-76 0 -152.5 1.5t-103.5 1.5q-68 0 -114 -3v43l37 7q16 2 19.5 4t4.5 9q2 38 2 63v62l-63 -28v61l63 29v85q0 25 -2 63q-1 7 -4.5 9t-19.5 4l-37 7v43q63 -3 118 -3q75 0 135 3v-43l-56 -7q-11 -1 -15 -2t-6 -3.5t-3 -7.5q-2 -38 -2 -63v-46
l108 48v-62l-108 -48v-117q0 -40 8.5 -49t46.5 -9q71 0 82 10q9 8 27 82z" />
    <glyph glyph-name="oe.sc" unicode="&#xf6fa;" horiz-adv-x="667" 
d="M437 405v-144h50q29 0 34 5q6 5 8 31h50q-4 -33 -4 -60q0 -35 6 -79l-50 -4q-6 37 -10 43q-5 8 -30 8h-54v-101q0 -38 8 -47.5t43 -9.5q60 0 72 9t29 83l46 -5l-13 -139q-103 0 -137 1q-74 2 -147 2h-18q-34 -7 -36 -7q-20 -2 -33 -2q-99 0 -159.5 60.5t-60.5 160.5
q0 109 71.5 180.5t179.5 71.5q35 0 72 -9q129 0 246 3l-9 -132h-41q-12 67 -21 73q-8 8 -77 8h-15zM333 96v256q0 25 -3 31q-8 18 -60 18q-63 0 -97 -42.5t-34 -120.5q0 -85 38 -136t103 -51q25 0 44 8q6 3 7.5 9t1.5 28z" />
    <glyph glyph-name="ogonek.sc" unicode="&#xf6fb;" horiz-adv-x="475" 
d="M346 10h37q-47 -22 -47 -61q0 -20 14.5 -33.5t34.5 -13.5q21 0 41 15l17 -16q-35 -54 -86 -54q-41 0 -65.5 22t-24.5 57q0 62 79 84z" />
    <glyph glyph-name="ring.sc" unicode="&#xf6fc;" horiz-adv-x="475" 
d="M237 712h1q42 0 72.5 -30t30.5 -73t-30.5 -73t-73.5 -30t-73 30t-30 73t30 73t73 30zM237 663h-1q-22 0 -37.5 -16t-15.5 -38q0 -23 15.5 -38.5t38.5 -15.5t39 16t16 38t-16 38t-39 16z" />
    <glyph glyph-name="scaron.sc" unicode="&#xf6fd;" horiz-adv-x="378" 
d="M191 509l-130 135l39 41l93 -78l98 78l31 -35zM323 303h-48q-7 72 -17 86q-11 21 -52 21q-32 0 -49.5 -16t-17.5 -44q0 -30 20.5 -46.5t68.5 -36.5q32 -13 49 -21t36.5 -23.5t28 -36t8.5 -49.5q0 -68 -52 -110t-137 -42q-66 0 -132 35l8 143h54q-1 -12 -1 -24
q0 -52 16.5 -75t64.5 -23q35 0 55 18t20 49q0 33 -19.5 49.5t-64.5 34.5q-34 14 -48.5 21.5t-37 23t-31.5 37t-9 50.5q0 65 51.5 103.5t139.5 38.5q53 0 103 -14z" />
    <glyph glyph-name="tilde.sc" unicode="&#xf6fe;" horiz-adv-x="489" 
d="M352 635l31 -11q-17 -53 -37 -75t-46 -22q-18 0 -69 22q-42 18 -57 18t-23.5 -7.5t-16.5 -27.5l-31 12q32 95 85 95q22 0 73 -22q37 -16 54 -16q24 0 37 34z" />
    <glyph glyph-name="zcaron.sc" unicode="&#xf6ff;" horiz-adv-x="423" 
d="M217 509l-130 135l38 41l94 -78l98 78l31 -35zM80 305h-44l-8 151q82 -3 186 -3q82 0 167 3l13 -27l-248 -380h79q94 0 105 7q13 8 36 90l43 -5l-13 -146q-70 0 -151 1.5t-111 1.5q-60 0 -107 -3l-15 25l250 382h-60q-88 0 -101 -7q-14 -8 -21 -90z" />
    <glyph glyph-name="exclam.sc" unicode="&#xf721;" horiz-adv-x="259" 
d="M168 469l18 -17l-27 -275l-57 -19l-35 286zM131 110h1q13 0 39 -21.5t26 -34.5t-26.5 -41t-40.5 -28t-39.5 21.5t-25.5 34.5q0 14 26 41.5t40 27.5z" />
    <glyph glyph-name="dollar.oldstyle" unicode="&#xf724;" horiz-adv-x="379" 
d="M216 557v-114q46 -2 80 -15q18 -7 18 -22q0 -27 -26 -69q-63 29 -103 29q-21 0 -33 -9.5t-12 -26.5t16.5 -28.5t70.5 -34.5q60 -25 84 -45.5t24 -50.5q0 -49 -47 -105q-37 -44 -72 -59v-132h-55v125q-54 4 -97 28q-26 14 -26 30q0 19 40 63q67 -40 112 -40
q25 0 39.5 11.5t14.5 31.5t-16.5 32.5t-73.5 37.5q-59 26 -80.5 44.5t-21.5 50.5q0 43 44 95q32 39 65 52v121h55z" />
    <glyph glyph-name="ampersand.sc" unicode="&#xf726;" horiz-adv-x="519" 
d="M507 31l2 -34q-61 -12 -110 -12q-48 0 -92 38l-6 5q-60 -43 -131 -43q-65 0 -108.5 39t-43.5 97q0 45 23 77t78 64q-23 45 -23 84q0 52 40 86t98 34q45 0 70 -26t25 -73t-20 -86q-47 -2 -86 -19q50 -79 115 -144q61 58 61 130q0 40 -17 78q32 12 61 12q42 0 42 -57
q0 -94 -109 -197q58 -52 131 -53zM178 370v-1q0 -30 21 -67q27 11 54 17q2 7 2 23q0 69 -45 69q-32 0 -32 -41zM110 153v-1q0 -47 27 -75.5t72 -28.5q31 0 56 15q-69 69 -121 155q-34 -26 -34 -65z" />
    <glyph glyph-name="zero.oldstyle" unicode="&#xf730;" horiz-adv-x="474" 
d="M435 227v-1q0 -110 -57 -175.5t-152 -65.5q-90 0 -138.5 56.5t-48.5 161.5q0 115 58.5 182.5t157.5 67.5q86 0 133 -58.5t47 -167.5zM348 221v1q0 73 -27.5 112t-78.5 39q-56 0 -85.5 -39.5t-29.5 -114.5q0 -153 110 -153q53 0 82 40t29 115z" />
    <glyph glyph-name="one.oldstyle" unicode="&#xf731;" horiz-adv-x="334" 
d="M24 365v49q122 13 191 39l19 -16q-7 -53 -7 -183v-133q0 -25 2 -63q1 -7 4.5 -9t17.5 -4l37 -7v-43q-63 3 -121 3q-69 0 -130 -3v43l57 7q22 3 24 10q2 14 2 66v251z" />
    <glyph glyph-name="two.oldstyle" unicode="&#xf732;" horiz-adv-x="403" 
d="M74 332l-30 38q93 83 180 83q52 0 81.5 -28.5t29.5 -81.5q0 -58 -44 -116.5t-135 -141.5l203 -29q2 -9 2 -26q0 -14 -2 -22l-12 -13q-119 7 -172 7q-37 0 -163 -7v34q64 61 103 101t74.5 95t35.5 96q0 56 -52 56q-43 0 -99 -45z" />
    <glyph glyph-name="three.oldstyle" unicode="&#xf733;" horiz-adv-x="404" 
d="M66 333l-30 37q91 83 177 83q50 0 80.5 -28t30.5 -78q0 -95 -122 -161q67 -3 106 -27t39 -84q0 -76 -65 -155q-44 -53 -91.5 -83.5t-87.5 -30.5q-39 0 -71 12.5t-32 28.5q0 24 26 67q53 -22 90 -22q56 0 91 38.5t35 100.5q0 50 -28.5 76.5t-83.5 26.5q-16 0 -44 -4l-8 12
l16 34q120 57 120 141q0 61 -53 61q-43 0 -95 -45z" />
    <glyph glyph-name="four.oldstyle" unicode="&#xf734;" horiz-adv-x="458" 
d="M267 444h83q-4 -75 -4 -167v-213h89q7 -28 0 -55l-14 -14h-75v-18q0 -70 4 -126l-86 -47l-18 10q4 110 4 165v16h-225v63q94 211 242 386zM250 65v251q-93 -114 -146 -251h146z" />
    <glyph glyph-name="five.oldstyle" unicode="&#xf735;" horiz-adv-x="390" 
d="M40 238l39 194q121 0 244 14q7 -28 7 -57l-12 -15l-184 -33l-7 -34q40 -21 60.5 -33t55.5 -37t53 -47t32.5 -55.5t14.5 -70.5q0 -91 -71 -173q-76 -85 -152 -85q-40 0 -69.5 12.5t-29.5 28.5q0 25 28 71q52 -22 91 -22q52 0 83.5 34t31.5 90q0 130 -215 218z" />
    <glyph glyph-name="six.oldstyle" unicode="&#xf736;" horiz-adv-x="442" 
d="M276 644l41 -39q-103 -101 -143 -229q52 24 100 24q128 0 128 -146q0 -114 -64 -191.5t-152 -77.5q-68 0 -107 54t-39 152q0 128 65.5 247.5t170.5 205.5zM297 200v1q0 52 -17.5 94t-57.5 42q-35 0 -56.5 -36t-21.5 -103t20 -105.5t54 -38.5t56.5 40t22.5 106z" />
    <glyph glyph-name="seven.oldstyle" unicode="&#xf737;" horiz-adv-x="380" 
d="M355 444l12 -18l-11 -24q-109 -245 -144 -345q-39 -112 -39 -178q0 -28 5 -48q-42 -18 -69 -18q-38 0 -38 72q0 57 39 147q40 93 159 325h-251q-3 16 -3 45q0 26 3 42h337z" />
    <glyph glyph-name="eight.oldstyle" unicode="&#xf738;" horiz-adv-x="444" 
d="M380 514v-1q0 -94 -93 -160q58 -35 87 -70t29 -92q0 -84 -60.5 -145t-148.5 -61q-73 0 -114.5 39.5t-41.5 111.5q0 107 110 189q-44 30 -63.5 59.5t-19.5 74.5q0 75 52.5 127t130.5 52q62 0 97 -32.5t35 -91.5zM165 491v-1q0 -36 16.5 -61.5t58.5 -50.5q44 43 44 107
q0 41 -15 64t-42 23q-28 0 -45 -22t-17 -59zM298 153v1q0 51 -25.5 81.5t-79.5 62.5q-54 -61 -54 -139q0 -52 20.5 -80.5t56.5 -28.5q38 0 60 28t22 75z" />
    <glyph glyph-name="nine.oldstyle" unicode="&#xf739;" horiz-adv-x="440" 
d="M169 -206l-44 39q59 69 94 126.5t55 127.5q-52 -29 -107 -29q-60 0 -94 38t-34 105q0 104 64.5 178t150.5 74q66 0 105 -54t39 -148q0 -131 -63 -248t-166 -209zM294 256v1q0 53 -19 90.5t-52 37.5q-35 0 -56 -38t-21 -101q0 -57 19.5 -91t53.5 -34q36 0 55.5 42t19.5 93
z" />
    <glyph glyph-name="question.sc" unicode="&#xf73f;" horiz-adv-x="317" 
d="M233 160l-24 -24q-67 44 -148 73v23q122 33 122 90q0 40 -106 75q17 70 42 70q19 0 55 -19q96 -49 96 -112q0 -58 -85 -103zM142 110h1q13 0 39 -21.5t26 -34.5t-26 -41t-41 -28q-13 0 -38.5 22t-25.5 34q0 14 26 41.5t39 27.5z" />
    <glyph glyph-name="grave.sc" unicode="&#xf760;" horiz-adv-x="385" 
d="M96 610l46 70q76 -48 126 -139l-41 -34q-58 67 -131 103z" />
    <glyph glyph-name="a.sc" unicode="&#xf761;" horiz-adv-x="486" 
d="M198 458h85l149 -381q8 -22 14 -28t18 -8l21 -3v-43q-49 3 -111 3q-61 0 -109 -3v43l50 7q15 3 15 9t-7 22l-34 90q-11 0 -34.5 -0.5t-34.5 -1.5q-61 -2 -74 -15q-8 -8 -27 -57q-10 -27 -10 -37q0 -9 23 -10l59 -7v-43q-53 3 -104 3q-53 0 -99 -3v43l43 7q5 12 37 85.5
t46 107.5q55 128 84 220zM269 216l-50 130l-50 -126z" />
    <glyph glyph-name="b.sc" unicode="&#xf762;" horiz-adv-x="475" 
d="M36 407v45q66 8 150 8q115 0 169 -19.5t54 -76.5q0 -38 -26 -65t-85 -49q70 -12 104.5 -38t34.5 -79q0 -65 -49 -101.5t-136 -36.5q-21 0 -60.5 1.5t-58.5 1.5q-51 0 -103 -3v43l37 7q16 2 19.5 4t4.5 9q2 38 2 63v290q-25 0 -57 -4zM199 411v-140q108 0 108 76
q0 37 -28 50.5t-80 13.5zM199 228v-118q0 -42 6.5 -53.5t37.5 -11.5q89 0 89 82q0 47 -35 74t-98 27z" />
    <glyph glyph-name="c.sc" unicode="&#xf763;" horiz-adv-x="480" 
d="M438 298l-43 -7q-18 68 -33 91q-15 20 -57 20q-80 0 -122.5 -46t-42.5 -127q0 -90 45 -139t128 -49q57 0 67 22q12 26 26 88l47 -4l-9 -140q-76 -22 -152 -22q-126 0 -194 58.5t-68 166.5q0 120 82 182q41 32 97.5 48.5t98 20t116.5 4.5z" />
    <glyph glyph-name="d.sc" unicode="&#xf764;" horiz-adv-x="556" 
d="M30 38l37 7q16 2 19.5 4t4.5 9q2 38 2 63v288q-39 0 -58 -2v45q72 9 169 9q39 0 63 -0.5t62 -4.5t61.5 -11t52 -21t44.5 -33.5t27 -50t11 -69.5q0 -124 -76.5 -200t-201.5 -76q-20 0 -59.5 1t-59.5 1q-62 0 -98 -2v43zM201 409v-304q0 -34 8 -44t42 -10q78 0 122.5 51
t44.5 138q0 85 -51.5 125t-165.5 44z" />
    <glyph glyph-name="e.sc" unicode="&#xf765;" horiz-adv-x="446" 
d="M199 405v-144l74 2q22 1 28 5t6 22v7h50q-2 -50 -2 -60q0 -42 4 -79l-49 -4l-5 26q-3 17 -8.5 21t-26.5 4h-71v-101q0 -40 9 -48.5t48 -8.5q71 0 83 9q12 10 28 83l46 -5l-13 -139q-79 0 -155.5 1.5t-100.5 1.5q-69 0 -114 -3v43l37 7q16 2 19.5 4t4.5 9q2 38 2 63v209
q0 25 -2 63q-1 7 -4.5 9t-19.5 4l-37 7v43q45 -3 131 -3q151 0 218 3l-8 -132h-43q-5 39 -13 63q-4 13 -18.5 15.5t-70.5 2.5h-27z" />
    <glyph glyph-name="f.sc" unicode="&#xf766;" horiz-adv-x="412" 
d="M201 405v-157l73 1q21 0 27.5 5t6.5 23v7h50q-3 -36 -3 -59q0 -42 5 -80l-50 -4l-5 27q-3 17 -8.5 21t-26.5 4h-69v-72q0 -25 2 -63q1 -11 24 -13l55 -7v-43q-62 3 -134 3q-58 0 -118 -3v43l37 7q15 2 19 4.5t5 8.5q2 38 2 63v209q0 25 -2 63q-1 7 -5 9t-19 4l-37 7v43
q69 -3 136 -3q144 0 214 3l-9 -132h-42q-8 44 -14 63q-3 11 -20 14.5t-75 3.5h-19z" />
    <glyph glyph-name="g.sc" unicode="&#xf767;" horiz-adv-x="516" 
d="M447 298l-43 -6q-20 74 -34 90q-15 19 -62 19q-82 0 -125 -44.5t-43 -129.5q0 -89 43 -137.5t122 -48.5q29 0 38 7.5t9 29.5v24q0 21 -5.5 28.5t-23.5 8.5l-33 2v43q57 -3 98 -3q60 0 104 3v-43l-13 -1q-17 -1 -21 -8t-4 -32v-91q-82 -23 -163 -23q-124 0 -192 58.5
t-68 165.5q0 122 83 183q53 38 125.5 54.5t193.5 17.5z" />
    <glyph glyph-name="h.sc" unicode="&#xf768;" horiz-adv-x="610" 
d="M201 270h207v60q0 25 -2 63q-1 7 -4.5 9t-18.5 4l-38 7v43q61 -3 119 -3q56 0 116 3v-43l-38 -7q-11 -2 -14 -2.5t-6 -3t-3 -7.5q-2 -38 -2 -63v-209q0 -25 2 -63q1 -6 5 -8.5t18 -4.5l38 -7v-43q-62 3 -116 3q-59 0 -119 -3v43l38 7q15 2 18.5 4t4.5 9q2 38 2 63v91
q-143 0 -185 -9q-13 -2 -17.5 -8.5t-4.5 -21.5v-52q0 -25 2 -63q1 -6 5 -8.5t19 -4.5l37 -7v-43q-62 3 -116 3q-58 0 -118 -3v43l37 7q15 2 19 4.5t5 8.5q2 38 2 63v209q0 25 -2 63q-1 7 -5 9t-19 4l-37 7v43q61 -3 118 -3q56 0 116 3v-43l-37 -7q-16 -2 -19.5 -4t-4.5 -9
q-2 -38 -2 -63v-60z" />
    <glyph glyph-name="i.sc" unicode="&#xf769;" horiz-adv-x="294" 
d="M264 38v-43q-62 3 -116 3q-58 0 -118 -3v43l37 7q16 2 19.5 4t4.5 9q2 38 2 63v209q0 25 -2 63q-1 7 -4.5 9t-19.5 4l-37 7v43q61 -3 118 -3q56 0 116 3v-43l-37 -7q-16 -2 -19.5 -4t-4.5 -9q-2 -38 -2 -63v-209q0 -25 2 -63q1 -7 4.5 -9t19.5 -4z" />
    <glyph glyph-name="j.sc" unicode="&#xf76a;" horiz-adv-x="279" 
d="M24 -139l-24 35q55 41 73 82q18 46 18 179v173q0 25 -2 63q-1 7 -4.5 9t-19.5 4l-43 7v43q61 -3 124 -3q56 0 116 3v-43l-38 -7q-16 -2 -19.5 -4t-4.5 -9q-2 -38 -2 -63v-185q0 -108 -20 -152q-33 -68 -154 -132z" />
    <glyph glyph-name="k.sc" unicode="&#xf76b;" horiz-adv-x="513" 
d="M201 330v-209q0 -25 2 -63q1 -7 4.5 -9t19.5 -4l37 -7v-43q-62 3 -116 3q-58 0 -118 -3v43l37 7q16 2 19.5 4t4.5 9q2 38 2 63v209q0 25 -2 63q-1 7 -4.5 9t-19.5 4l-37 7v43q61 -3 118 -3q56 0 116 3v-43l-37 -7q-16 -2 -19.5 -4t-4.5 -9q-2 -38 -2 -63zM203 247l93 99
q53 59 55 61l-33 6v43q51 -3 92 -3q45 0 92 3v-42q-40 -3 -66 -16.5t-54 -46.5l-74 -80q73 -118 152 -195q26 -25 59 -48v-36q-9 -1 -27 -1q-55 0 -91 18q-94 46 -198 238z" />
    <glyph glyph-name="l.sc" unicode="&#xf76c;" horiz-adv-x="420" 
d="M366 139l47 -5l-13 -139q-76 0 -152.5 1.5t-103.5 1.5q-68 0 -114 -3v43l37 7q16 2 19.5 4t4.5 9q2 38 2 63v209q0 25 -2 63q-1 7 -4.5 9t-19.5 4l-37 7v43q61 -3 118 -3q75 0 135 3v-43l-56 -7q-11 -1 -15 -2t-6 -3.5t-3 -7.5q-2 -38 -2 -63v-226q0 -40 8.5 -48.5
t46.5 -8.5q70 0 82 9q10 8 28 83z" />
    <glyph glyph-name="m.sc" unicode="&#xf76d;" horiz-adv-x="683" 
d="M343 122l87 236q22 56 32 102q19 -2 57 -4q19 -1 56 -1q49 0 68 1v-43l-37 -5q-12 -2 -16 -5t-4 -11q0 -5 0.5 -13.5t0.5 -11.5l21 -292q1 -21 4.5 -26.5t15.5 -7.5l19 -3v-43q-72 4 -107 4q-33 0 -109 -4v43l54 6q15 1 19.5 4.5t4.5 12.5q0 3 -0.5 10.5t-0.5 11.5
l-19 270l-86 -231q-27 -76 -40 -127h-75l-128 358l-15 -276q0 -3 -0.5 -9t-0.5 -8q0 -8 3.5 -10.5t17.5 -4.5l55 -7v-43q-50 3 -100 3t-99 -3v43l27 4q12 2 17 5q4 4 9 44q8 56 16 141q11 136 11 153q0 14 -3.5 17.5t-17.5 5.5l-34 5v43q18 -1 81 -1q52 0 93 5z" />
    <glyph glyph-name="n.sc" unicode="&#xf76e;" horiz-adv-x="568" 
d="M422 115v177q0 100 -9 109q-4 4 -21 6l-63 6v43q53 -3 104 -3q53 0 107 3v-43l-27 -4q-15 -2 -18.5 -9.5t-4.5 -33.5v-6q-5 -180 -5 -257q0 -18 1 -54t1 -54h-99l-236 364v-198q0 -100 6 -109q5 -7 24 -8l60 -6v-43q-72 4 -108 4q-34 0 -106 -4v43l30 5q12 2 16 4t5 11
q4 40 4 92q2 162 2 240q0 11 -4 14.5t-18 4.5l-35 4v43q37 -1 72 0q69 0 101 3z" />
    <glyph glyph-name="o.sc" unicode="&#xf76f;" horiz-adv-x="553" 
d="M523 233v-1q0 -109 -74 -178t-191 -69q-104 0 -166 61.5t-62 165.5q0 114 73.5 184t191.5 70q105 0 166.5 -62.5t61.5 -170.5zM414 210v1q0 87 -40 141t-106 54q-61 0 -95 -43.5t-34 -122.5q0 -88 38.5 -141.5t102.5 -53.5q63 0 98.5 45t35.5 120z" />
    <glyph glyph-name="p.sc" unicode="&#xf770;" horiz-adv-x="435" 
d="M198 181v-60q0 -25 2 -63q1 -7 4.5 -9.5t18.5 -3.5l60 -7v-43q-61 3 -134 3q-59 0 -119 -3v43l37 7q16 2 19.5 4t4.5 9q2 38 2 63v61q-20 0 -34 5l-2 12l36 46v164q-18 0 -56 -4v46q71 9 145 9q128 0 182.5 -21.5t54.5 -86.5q0 -71 -65 -117.5t-156 -53.5zM198 411v-172
q116 0 116 90q0 42 -28 62t-88 20z" />
    <glyph glyph-name="q.sc" unicode="&#xf771;" horiz-adv-x="557" 
d="M602 -79l14 -31q-71 -37 -126 -37q-45 0 -87 24t-112 85q-16 14 -31 19q-11 4 -36 6q-93 11 -143 69t-50 154q0 114 74 185t192 71q104 0 165 -62t61 -171q0 -80 -34.5 -132t-110.5 -89q114 -99 180 -99q21 0 44 8zM415 215v1q0 85 -40.5 138t-105.5 53q-61 0 -95.5 -44
t-34.5 -125q0 -91 41 -142.5t102 -51.5q58 0 95.5 44.5t37.5 126.5z" />
    <glyph glyph-name="r.sc" unicode="&#xf772;" horiz-adv-x="488" 
d="M198 204v-83q0 -25 2 -63q1 -7 4 -9t19 -4l38 -7v-43q-61 3 -114 3q-57 0 -117 -3v43l37 7q16 2 19.5 4t4.5 9q2 38 2 63v287q-31 0 -57 -3v46q67 9 144 9q35 0 55 -0.5t52 -3.5t51.5 -9.5t40 -17.5t30 -29.5t9.5 -43.5q0 -71 -79 -121q69 -132 159 -211l-12 -32
q-2 0 -6 -0.5t-7 -0.5q-65 0 -116.5 50.5t-99.5 134.5q-10 18 -21.5 23t-37.5 5zM198 247h8q44 0 75 21.5t31 65.5q0 41 -26.5 59t-87.5 18v-164z" />
    <glyph glyph-name="s.sc" unicode="&#xf773;" horiz-adv-x="378" 
d="M323 303h-48q-7 72 -17 86q-11 21 -52 21q-32 0 -49.5 -16t-17.5 -44q0 -30 20.5 -46.5t68.5 -35.5q27 -11 39.5 -17t32 -18t28 -23.5t15.5 -30t7 -42.5q0 -68 -52 -110t-137 -42q-66 0 -132 35l8 143h54q-1 -12 -1 -24q0 -52 16.5 -75t64.5 -23q35 0 55 18t20 49
q0 33 -19.5 49.5t-64.5 34.5q-33 14 -48.5 21.5t-37.5 23.5t-31 37t-9 50q0 65 51.5 103.5t139.5 38.5q53 0 103 -14z" />
    <glyph glyph-name="t.sc" unicode="&#xf774;" horiz-adv-x="443" 
d="M275 406v-285q0 -25 2 -63q1 -7 4.5 -9t18.5 -4l38 -7v-43q-62 3 -117 3q-57 0 -117 -3v43l37 7q16 2 19.5 4t4.5 9q2 38 2 63v285h-16q-62 0 -71 -9q-7 -7 -19 -89h-42l-9 148q93 -3 213 -3q141 0 210 3l-9 -148h-42q-10 81 -20 90q-12 8 -72 8h-15z" />
    <glyph glyph-name="u.sc" unicode="&#xf775;" horiz-adv-x="572" 
d="M382 -10v47q-90 -52 -165 -52q-79 0 -107 46t-28 130v169q0 25 -2 63q-1 7 -4.5 9t-19.5 4l-38 7v43q61 -3 117 -3q58 0 118 3v-43l-38 -7q-16 -2 -19 -4t-4 -9q-2 -38 -2 -63v-152q0 -66 15.5 -98.5t64.5 -32.5q64 0 87 48q13 24 13 85v150q0 25 -2 63q-1 7 -4.5 9
t-18.5 4l-38 7v43q62 -3 116 -3q59 0 119 3v-43l-39 -7q-16 -2 -19 -4t-4 -9q-2 -38 -2 -63v-209q0 -25 2 -63q1 -7 4.5 -9t18.5 -4l39 -7v-43q-34 2 -38 2q-61 0 -122 -7z" />
    <glyph glyph-name="v.sc" unicode="&#xf776;" horiz-adv-x="496" 
d="M264 104l81 210q26 68 26 82q0 9 -20 10l-61 7v43q87 -3 110 -3q55 0 106 3v-43l-48 -5q-10 -25 -78 -183q-55 -130 -85 -230h-99l-142 368q-11 28 -17.5 37.5t-17.5 10.5l-20 2v43q90 -3 112 -3q56 0 110 3v-43l-47 -7q-19 -3 -19 -9q0 -7 6 -21l24 -61q54 -142 76 -211
h3z" />
    <glyph glyph-name="w.sc" unicode="&#xf777;" horiz-adv-x="735" 
d="M368 313h-3q-15 -51 -41 -126l-17 -46q-35 -102 -47 -146h-92l-109 349q-12 40 -20 53t-23 14l-17 2v43q57 -3 108 -3q57 0 113 3v-43l-48 -6q-19 -3 -19 -9q0 -5 6 -26l14 -44q47 -156 59 -211h4l68 201q26 77 36 138h82l38 -125q51 -169 62 -215h4l70 212q17 50 17 67
q0 10 -18 12l-62 6v43q56 -3 106 -3q57 0 106 3v-43l-48 -6q-33 -95 -66 -181q-44 -117 -77 -231h-91l-46 150q-38 125 -49 168z" />
    <glyph glyph-name="x.sc" unicode="&#xf778;" horiz-adv-x="479" 
d="M261 292l59 80q12 17 12 27q0 6 -12 7l-37 7v43q96 -3 97 -3q47 0 92 3v-44l-48 -8q-10 -14 -33.5 -43t-29.5 -37q-54 -68 -64 -82l123 -173q17 -25 40 -28l25 -3v-43q-55 3 -113 3q-56 0 -110 -3v43l35 5q13 2 13 8q0 4 -10 17l-76 106l-75 -102q-13 -16 -13 -21
q0 -7 16 -8l44 -5v-43q-90 3 -103 3q-8 0 -104 -3v43l54 7q12 16 35.5 44.5t31.5 38.5q69 87 77 98l-114 157q-16 23 -33 26l-21 4v43q57 -3 114 -3q53 0 108 3v-43l-42 -8q-11 -1 -11 -6q0 -8 6 -15z" />
    <glyph glyph-name="y.sc" unicode="&#xf779;" horiz-adv-x="436" 
d="M241 255l43 69q36 57 36 73q0 8 -16 11l-35 5v43q47 -3 91 -3q46 0 89 3v-43l-42 -7q-28 -46 -65 -101q-35 -53 -73 -114v-70q0 -25 2 -63q1 -7 4.5 -9t19.5 -4l37 -7v-43q-62 3 -117 3q-57 0 -117 -3v43l38 7q16 2 19.5 4t4.5 9q2 38 2 63v70l-117 195q-8 14 -13.5 18
t-18.5 6l-18 3v43q51 -3 101 -3q46 0 106 3v-43l-26 -4q-18 -3 -18 -11q0 -9 8 -20z" />
    <glyph glyph-name="z.sc" unicode="&#xf77a;" horiz-adv-x="423" 
d="M80 305h-44l-8 151q82 -3 186 -3q82 0 167 3l13 -27l-248 -380h79q94 0 105 7q13 8 36 90l43 -5l-13 -146q-70 0 -151 1.5t-111 1.5q-60 0 -107 -3l-15 25l250 382h-60q-88 0 -101 -7q-14 -8 -21 -90z" />
    <glyph glyph-name="exclamdown.sc" unicode="&#xf7a1;" horiz-adv-x="259" 
d="M128 344h-1q-13 0 -39 21.5t-26 34.5q0 14 26.5 41.5t40.5 27.5q13 0 38.5 -21.5t25.5 -33.5q0 -14 -25.5 -42t-39.5 -28zM91 -15l-18 17l26 275l58 19l34 -285z" />
    <glyph glyph-name="cent.oldstyle" unicode="&#xf7a2;" horiz-adv-x="349" 
d="M199 511l54 -4l-13 -113q58 -6 58 -31q0 -28 -21 -67q-24 15 -64 15q-33 0 -54 -23t-21 -66q0 -46 22.5 -72.5t66.5 -26.5q32 0 71 17l19 -35q-58 -51 -114 -60l-12 -119l-55 4l12 115q-43 11 -70.5 49t-27.5 99q0 75 42.5 130.5t93.5 68.5z" />
    <glyph glyph-name="dieresis.sc" unicode="&#xf7a8;" horiz-adv-x="475" 
d="M148 636h1q12 0 36.5 -19.5t24.5 -31.5t-24 -40t-35 -28q-12 0 -37 20t-25 31q0 13 23.5 40.5t35.5 27.5zM324 636h1q11 0 36 -20.5t25 -30.5q0 -12 -24 -40t-35 -28q-12 0 -36.5 19.5t-24.5 31.5q0 13 23 40.5t35 27.5z" />
    <glyph glyph-name="macron.sc" unicode="&#xf7af;" horiz-adv-x="442" 
d="M123 614h228l7 -17l-36 -54h-230l-8 14z" />
    <glyph glyph-name="acute.sc" unicode="&#xf7b4;" horiz-adv-x="424" 
d="M245 682l57 -52q-68 -76 -171 -123l-30 49q72 41 144 126z" />
    <glyph glyph-name="cedilla.sc" unicode="&#xf7b8;" horiz-adv-x="381" 
d="M115 -202l16 51q19 -8 35 -8q13 0 21.5 6.5t8.5 17.5q0 33 -42 59q39 35 62 35q21 0 38.5 -23.5t17.5 -51.5q0 -37 -37 -63t-88 -26q-18 0 -32 3z" />
    <glyph glyph-name="questiondown.sc" unicode="&#xf7bf;" horiz-adv-x="317" 
d="M174 341h-1q-13 0 -39 21.5t-26 34.5q0 14 26 41.5t41 27.5q13 0 38.5 -22t25.5 -34q0 -14 -26 -41.5t-39 -27.5zM83 291l24 24q67 -43 147 -73v-23q-121 -33 -121 -90q0 -41 106 -74q-17 -71 -41 -71q-22 0 -56 20q-96 47 -96 111q0 59 86 103z" />
    <glyph glyph-name="agrave.sc" unicode="&#xf7e0;" horiz-adv-x="486" 
d="M135 610l46 70q76 -48 126 -139l-41 -34q-58 67 -131 103zM198 458h85l149 -381q8 -22 14 -28t18 -8l21 -3v-43q-49 3 -111 3q-61 0 -109 -3v43l50 7q15 3 15 9t-7 22l-34 90q-11 0 -34.5 -0.5t-34.5 -1.5q-61 -2 -74 -15q-8 -8 -27 -57q-10 -27 -10 -37q0 -9 23 -10
l59 -7v-43q-53 3 -104 3q-53 0 -99 -3v43l43 7q5 12 37 85.5t46 107.5q55 128 84 220zM269 216l-50 130l-50 -126z" />
    <glyph glyph-name="aacute.sc" unicode="&#xf7e1;" horiz-adv-x="486" 
d="M310 682l58 -52q-69 -76 -171 -123l-30 49q74 44 143 126zM198 458h85l149 -381q8 -22 14 -28t18 -8l21 -3v-43q-49 3 -111 3q-61 0 -109 -3v43l50 7q15 3 15 9t-7 22l-34 90q-11 0 -34.5 -0.5t-34.5 -1.5q-61 -2 -74 -15q-8 -8 -27 -57q-10 -27 -10 -37q0 -9 23 -10
l59 -7v-43q-53 3 -104 3q-53 0 -99 -3v43l43 7q5 12 37 85.5t46 107.5q55 128 84 220zM269 216l-50 130l-50 -126z" />
    <glyph glyph-name="acircumflex.sc" unicode="&#xf7e2;" horiz-adv-x="486" 
d="M245 683l130 -136l-39 -40l-93 78l-98 -78l-31 34zM198 458h85l149 -381q8 -22 14 -28t18 -8l21 -3v-43q-49 3 -111 3q-61 0 -109 -3v43l50 7q15 3 15 9t-7 22l-34 90q-11 0 -34.5 -0.5t-34.5 -1.5q-61 -2 -74 -15q-8 -8 -27 -57q-10 -27 -10 -37q0 -9 23 -10l59 -7v-43
q-53 3 -104 3q-53 0 -99 -3v43l43 7q5 12 37 85.5t46 107.5q55 128 84 220zM269 216l-50 130l-50 -126z" />
    <glyph glyph-name="atilde.sc" unicode="&#xf7e3;" horiz-adv-x="486" 
d="M354 626l31 -11q-30 -97 -83 -97q-18 0 -69 22q-42 18 -56 18q-16 0 -24.5 -7.5t-16.5 -27.5l-31 12q32 95 85 95q24 0 73 -22q37 -16 54 -16q24 0 37 34zM198 458h85l149 -381q8 -22 14 -28t18 -8l21 -3v-43q-49 3 -111 3q-61 0 -109 -3v43l50 7q15 3 15 9t-7 22l-34 90
q-11 0 -34.5 -0.5t-34.5 -1.5q-61 -2 -74 -15q-8 -8 -27 -57q-10 -27 -10 -37q0 -9 23 -10l59 -7v-43q-53 3 -104 3q-53 0 -99 -3v43l43 7q5 12 37 85.5t46 107.5q55 128 84 220zM269 216l-50 130l-50 -126z" />
    <glyph glyph-name="adieresis.sc" unicode="&#xf7e4;" horiz-adv-x="486" 
d="M198 458h85l149 -381q8 -22 14 -28t18 -8l21 -3v-43q-49 3 -111 3q-61 0 -109 -3v43l50 7q15 3 15 9t-7 22l-34 90q-11 0 -34.5 -0.5t-34.5 -1.5q-61 -2 -74 -15q-8 -8 -27 -57q-10 -27 -10 -37q0 -9 23 -10l59 -7v-43q-53 3 -104 3q-53 0 -99 -3v43l43 7q5 12 37 85.5
t46 107.5q55 128 84 220zM269 216l-50 130l-50 -126zM157 636h1q12 0 36.5 -19.5t24.5 -31.5t-24.5 -40t-35.5 -28t-36 20t-25 31q0 13 23.5 40.5t35.5 27.5zM333 636h1q11 0 36 -20.5t25 -30.5q0 -12 -24 -40t-36 -28q-11 0 -36 20t-25 31q0 13 23.5 40.5t35.5 27.5z" />
    <glyph glyph-name="aring.sc" unicode="&#xf7e5;" horiz-adv-x="486" 
d="M244 703h1q42 0 72 -30t30 -73t-30 -73t-73 -30t-73 30t-30 73t30 73t73 30zM244 654h-1q-22 0 -37.5 -16t-15.5 -38t16 -38t38 -16t38.5 16t16.5 38t-16 38t-39 16zM198 458h85l149 -381q8 -22 14 -28t18 -8l21 -3v-43q-49 3 -111 3q-61 0 -109 -3v43l50 7q15 3 15 9
t-7 22l-34 90q-11 0 -34.5 -0.5t-34.5 -1.5q-61 -2 -74 -15q-8 -8 -27 -57q-10 -27 -10 -37q0 -9 23 -10l59 -7v-43q-53 3 -104 3q-53 0 -99 -3v43l43 7q5 12 37 85.5t46 107.5q55 128 84 220zM269 216l-50 130l-50 -126z" />
    <glyph glyph-name="ae.sc" unicode="&#xf7e6;" horiz-adv-x="607" 
d="M377 405v-147h50q28 0 34 5q4 4 8 31h49q-3 -36 -3 -59q0 -34 6 -78l-50 -3q-4 34 -9 41q-6 9 -31 9h-54v-100q0 -38 7.5 -47.5t41.5 -9.5q63 0 74 10q10 9 28 82l46 -5l-13 -139q-84 0 -154 1.5t-87 1.5q-65 0 -107 -3v43l38 7q15 2 18.5 4t4.5 9q2 38 2 63v83
q-86 0 -106 -13t-36 -47l-38 -75q-6 -12 -6 -17q0 -7 18 -8l51 -6v-43q-51 3 -100 3q-37 0 -87 -3v43l41 5q37 75 92 176q54 96 98 189l-45 5v43q71 -3 172 -3q140 0 210 3l-8 -132h-43q-10 67 -20 73q-9 8 -77 8h-15zM276 258v148h-9l-75 -148h84z" />
    <glyph glyph-name="ccedilla.sc" unicode="&#xf7e7;" horiz-adv-x="480" 
d="M438 298l-43 -7q-18 68 -33 91q-15 20 -57 20q-80 0 -122.5 -46t-42.5 -127q0 -90 45 -139t128 -49q57 0 67 22q12 26 26 88l47 -4l-9 -140q-76 -22 -152 -22q-126 0 -194 58.5t-68 166.5q0 120 82 182q41 32 97.5 48.5t98 20t116.5 4.5zM170 -207l16 52q17 -8 34 -8
q31 0 31 24q0 33 -42 59q37 35 61 35q21 0 38.5 -23.5t17.5 -51.5q0 -37 -36.5 -63t-88.5 -26q-17 0 -31 2z" />
    <glyph glyph-name="egrave.sc" unicode="&#xf7e8;" horiz-adv-x="446" 
d="M114 610l46 70q76 -48 126 -139l-41 -34q-58 67 -131 103zM199 405v-144l74 2q22 1 28 5t6 22v7h50q-2 -50 -2 -60q0 -42 4 -79l-49 -4l-5 26q-3 17 -8.5 21t-26.5 4h-71v-101q0 -40 9 -48.5t48 -8.5q71 0 83 9q12 10 28 83l46 -5l-13 -139q-79 0 -155.5 1.5t-100.5 1.5
q-69 0 -114 -3v43l37 7q16 2 19.5 4t4.5 9q2 38 2 63v209q0 25 -2 63q-1 7 -4.5 9t-19.5 4l-37 7v43q45 -3 131 -3q151 0 218 3l-8 -132h-43q-5 39 -13 63q-4 13 -18.5 15.5t-70.5 2.5h-27z" />
    <glyph glyph-name="eacute.sc" unicode="&#xf7e9;" horiz-adv-x="446" 
d="M310 682l58 -52q-69 -76 -172 -123l-29 49q74 44 143 126zM199 405v-144l74 2q22 1 28 5t6 22v7h50q-2 -50 -2 -60q0 -42 4 -79l-49 -4l-5 26q-3 17 -8.5 21t-26.5 4h-71v-101q0 -40 9 -48.5t48 -8.5q71 0 83 9q12 10 28 83l46 -5l-13 -139q-79 0 -155.5 1.5t-100.5 1.5
q-69 0 -114 -3v43l37 7q16 2 19.5 4t4.5 9q2 38 2 63v209q0 25 -2 63q-1 7 -4.5 9t-19.5 4l-37 7v43q45 -3 131 -3q151 0 218 3l-8 -132h-43q-5 39 -13 63q-4 13 -18.5 15.5t-70.5 2.5h-27z" />
    <glyph glyph-name="ecircumflex.sc" unicode="&#xf7ea;" horiz-adv-x="446" 
d="M211 683l130 -136l-39 -40l-93 78l-98 -78l-31 34zM199 405v-144l74 2q22 1 28 5t6 22v7h50q-2 -50 -2 -60q0 -42 4 -79l-49 -4l-5 26q-3 17 -8.5 21t-26.5 4h-71v-101q0 -40 9 -48.5t48 -8.5q71 0 83 9q12 10 28 83l46 -5l-13 -139q-79 0 -155.5 1.5t-100.5 1.5
q-69 0 -114 -3v43l37 7q16 2 19.5 4t4.5 9q2 38 2 63v209q0 25 -2 63q-1 7 -4.5 9t-19.5 4l-37 7v43q45 -3 131 -3q151 0 218 3l-8 -132h-43q-5 39 -13 63q-4 13 -18.5 15.5t-70.5 2.5h-27z" />
    <glyph glyph-name="edieresis.sc" unicode="&#xf7eb;" horiz-adv-x="446" 
d="M126 636h1q12 0 36.5 -19.5t24.5 -31.5t-24.5 -40t-35.5 -28t-36 20t-25 31q0 13 23.5 40.5t35.5 27.5zM302 636h1q11 0 36 -20.5t25 -30.5q0 -12 -24 -40t-36 -28q-11 0 -36 20t-25 31q0 13 23.5 40.5t35.5 27.5zM199 405v-144l74 2q22 1 28 5t6 22v7h50q-2 -50 -2 -60
q0 -42 4 -79l-49 -4l-5 26q-3 17 -8.5 21t-26.5 4h-71v-101q0 -40 9 -48.5t48 -8.5q71 0 83 9q12 10 28 83l46 -5l-13 -139q-79 0 -155.5 1.5t-100.5 1.5q-69 0 -114 -3v43l37 7q16 2 19.5 4t4.5 9q2 38 2 63v209q0 25 -2 63q-1 7 -4.5 9t-19.5 4l-37 7v43q45 -3 131 -3
q151 0 218 3l-8 -132h-43q-5 39 -13 63q-4 13 -18.5 15.5t-70.5 2.5h-27z" />
    <glyph glyph-name="igrave.sc" unicode="&#xf7ec;" horiz-adv-x="294" 
d="M50 610l45 70q35 -21 69 -59t58 -80l-41 -34q-60 67 -131 103zM264 38v-43q-62 3 -116 3q-58 0 -118 -3v43l37 7q16 2 19.5 4t4.5 9q2 38 2 63v209q0 25 -2 63q-1 7 -4.5 9t-19.5 4l-37 7v43q61 -3 118 -3q56 0 116 3v-43l-37 -7q-16 -2 -19.5 -4t-4.5 -9q-2 -38 -2 -63
v-209q0 -25 2 -63q1 -7 4.5 -9t19.5 -4z" />
    <glyph glyph-name="iacute.sc" unicode="&#xf7ed;" horiz-adv-x="294" 
d="M209 682l58 -52q-69 -76 -171 -123l-30 49q74 44 143 126zM264 38v-43q-62 3 -116 3q-58 0 -118 -3v43l37 7q16 2 19.5 4t4.5 9q2 38 2 63v209q0 25 -2 63q-1 7 -4.5 9t-19.5 4l-37 7v43q61 -3 118 -3q56 0 116 3v-43l-37 -7q-16 -2 -19.5 -4t-4.5 -9q-2 -38 -2 -63v-209
q0 -25 2 -63q1 -7 4.5 -9t19.5 -4z" />
    <glyph glyph-name="icircumflex.sc" unicode="&#xf7ee;" horiz-adv-x="294" 
d="M149 683l130 -136l-38 -40l-94 78l-98 -78l-31 34zM268 38v-43q-62 3 -116 3q-58 0 -118 -3v43l37 7q16 2 19.5 4t4.5 9q2 38 2 63v209q0 25 -2 63q-1 7 -4 8.5t-16 3.5q-3 1 -4 1l-37 7v43q62 -3 118 -3t116 3v-43l-37 -7q-16 -2 -19.5 -4t-4.5 -9q-2 -38 -2 -63v-209
q0 -25 2 -63q1 -7 4.5 -9t19.5 -4z" />
    <glyph glyph-name="idieresis.sc" unicode="&#xf7ef;" horiz-adv-x="294" 
d="M66 636h1q12 0 36.5 -19.5t24.5 -31.5t-24.5 -40t-34.5 -28q-12 0 -37 20t-25 31q0 13 23.5 40.5t35.5 27.5zM225 636h1q11 0 36 -20.5t25 -30.5q0 -12 -23.5 -40t-35.5 -28t-36.5 19.5t-24.5 31.5q0 13 23 40.5t35 27.5zM264 38v-43q-62 3 -117 3q-57 0 -117 -3v43l37 7
q16 2 19.5 4t4.5 9q2 38 2 63v209q0 25 -2 63q-1 7 -4 8.5t-16 3.5q-3 1 -4 1l-37 7v43q61 -3 117 -3q57 0 117 3v-43l-38 -7q-16 -2 -19 -4t-4 -9q-2 -38 -2 -63v-209q0 -25 2 -63q1 -7 4 -9t19 -4z" />
    <glyph glyph-name="eth.sc" unicode="&#xf7f0;" horiz-adv-x="556" 
d="M93 268v141q-39 0 -58 -2v45q72 9 169 9q39 0 63 -0.5t62 -4.5t61.5 -11t52 -21t44.5 -33.5t27 -50t11 -69.5q0 -124 -76.5 -200t-201.5 -76q-20 0 -59.5 1t-59.5 1q-62 0 -98 -2v43l37 7q16 2 19.5 4t4.5 9q2 38 2 63v91h-63v56h63zM201 268h74v-56h-74v-107
q0 -34 8 -44t42 -10q78 0 122.5 51t44.5 138q0 85 -51.5 125t-165.5 44v-141z" />
    <glyph glyph-name="ntilde.sc" unicode="&#xf7f1;" horiz-adv-x="568" 
d="M399 635l31 -11q-30 -97 -82 -97q-16 0 -70 22q-40 18 -56 18q-15 0 -24 -7.5t-17 -27.5l-31 12q32 95 85 95q24 0 73 -22q37 -16 54 -16q24 0 37 34zM422 115v177q0 100 -9 109q-4 4 -21 6l-63 6v43q53 -3 104 -3q53 0 107 3v-43l-27 -4q-15 -2 -18.5 -9.5t-4.5 -33.5
v-6q-5 -180 -5 -257q0 -18 1 -54t1 -54h-99l-236 364v-198q0 -100 6 -109q5 -7 24 -8l60 -6v-43q-72 4 -108 4q-34 0 -106 -4v43l30 5q12 2 16 4t5 11q4 40 4 93q2 160 2 239q0 11 -4 14.5t-18 4.5l-35 4v43q37 -1 72 0q69 0 101 3z" />
    <glyph glyph-name="ograve.sc" unicode="&#xf7f2;" horiz-adv-x="553" 
d="M171 610l45 70q35 -21 69 -59t58 -80l-41 -34q-60 67 -131 103zM523 233v-1q0 -109 -74 -178t-191 -69q-104 0 -166 61.5t-62 165.5q0 114 73.5 184t191.5 70q105 0 166.5 -62.5t61.5 -170.5zM414 210v1q0 87 -40 141t-106 54q-61 0 -95 -43.5t-34 -122.5
q0 -88 38.5 -141.5t102.5 -53.5q63 0 98.5 45t35.5 120z" />
    <glyph glyph-name="oacute.sc" unicode="&#xf7f3;" horiz-adv-x="553" 
d="M345 682l57 -52q-68 -76 -171 -123l-30 49q72 41 144 126zM523 233v-1q0 -109 -74 -178t-191 -69q-104 0 -165.5 61.5t-61.5 165.5q0 114 73 184t191 70q105 0 166.5 -62.5t61.5 -170.5zM414 210v1q0 87 -40 141t-106 54q-60 0 -94.5 -44t-34.5 -122q0 -88 38.5 -141.5
t102.5 -53.5q63 0 98.5 45t35.5 120z" />
    <glyph glyph-name="ocircumflex.sc" unicode="&#xf7f4;" horiz-adv-x="553" 
d="M281 683l130 -136l-39 -40l-93 78l-98 -78l-31 34zM523 233v-1q0 -109 -74 -178t-191 -69q-104 0 -166 61.5t-62 165.5q0 114 73.5 184t191.5 70q105 0 166.5 -62.5t61.5 -170.5zM414 210v1q0 87 -40 141t-106 54q-61 0 -95 -43.5t-34 -122.5q0 -88 38.5 -141.5
t102.5 -53.5q63 0 98.5 45t35.5 120z" />
    <glyph glyph-name="otilde.sc" unicode="&#xf7f5;" horiz-adv-x="553" 
d="M393 635l31 -11q-30 -97 -82 -97q-18 0 -69 22q-42 18 -57 18t-24 -7.5t-17 -27.5l-30 12q31 95 84 95q24 0 73 -22q37 -16 54 -16q24 0 37 34zM523 233v-1q0 -109 -74 -178t-191 -69q-104 0 -165.5 61.5t-61.5 165.5q0 114 73 184t191 70q105 0 166.5 -62.5t61.5 -170.5
zM414 210v1q0 87 -40 141t-106 54q-60 0 -94.5 -44t-34.5 -122q0 -88 38.5 -141.5t102.5 -53.5q63 0 98.5 45t35.5 120z" />
    <glyph glyph-name="odieresis.sc" unicode="&#xf7f6;" horiz-adv-x="553" 
d="M523 233v-1q0 -109 -74 -178t-191 -69q-104 0 -166 61.5t-62 165.5q0 114 73.5 184t191.5 70q105 0 166.5 -62.5t61.5 -170.5zM414 210v1q0 87 -40 141t-106 54q-61 0 -95 -43.5t-34 -122.5q0 -88 38.5 -141.5t102.5 -53.5q63 0 98.5 45t35.5 120zM197 636h1
q12 0 36.5 -19.5t24.5 -31.5t-24.5 -40t-35.5 -28t-36 20t-25 31q0 13 23.5 40.5t35.5 27.5zM373 636h1q11 0 36 -20.5t25 -30.5q0 -12 -24 -40t-36 -28q-11 0 -36 20t-25 31q0 13 23.5 40.5t35.5 27.5z" />
    <glyph glyph-name="oslash.sc" unicode="&#xf7f8;" horiz-adv-x="551" 
d="M455 476l41 -35l-35 -41q59 -62 59 -167q0 -110 -73.5 -179t-190.5 -69q-66 0 -126 34l-39 -45l-42 34l38 45q-57 60 -57 159q0 114 73 184t191 70q68 0 124 -33zM156 128l202 239q-36 39 -91 39q-62 0 -99 -44t-37 -122q0 -64 25 -112zM392 324l-203 -240q37 -39 90 -39
q64 0 102 45.5t38 119.5q0 68 -27 114z" />
    <glyph glyph-name="ugrave.sc" unicode="&#xf7f9;" horiz-adv-x="572" 
d="M155 610l46 70q76 -48 126 -139l-41 -34q-58 67 -131 103zM382 -10v47q-90 -52 -165 -52q-79 0 -107 46t-28 130v169q0 25 -2 63q-1 7 -4.5 9t-19.5 4l-38 7v43q61 -3 117 -3q58 0 118 3v-43l-38 -7q-16 -2 -19 -4t-4 -9q-2 -38 -2 -63v-152q0 -66 15.5 -98.5t64.5 -32.5
q64 0 87 48q13 24 13 85v150q0 25 -2 63q-1 7 -4.5 9t-18.5 4l-38 7v43q62 -3 116 -3q59 0 119 3v-43l-39 -7q-16 -2 -19 -4t-4 -9q-2 -38 -2 -63v-209q0 -25 2 -63q1 -7 4.5 -9t18.5 -4l39 -7v-43q-34 2 -38 2q-61 0 -122 -7z" />
    <glyph glyph-name="uacute.sc" unicode="&#xf7fa;" horiz-adv-x="572" 
d="M369 682l58 -52q-69 -76 -171 -123l-30 49q74 44 143 126zM382 -10v47q-90 -52 -165 -52q-79 0 -107 46t-28 130v169q0 25 -2 63q-1 7 -4.5 9t-19.5 4l-38 7v43q61 -3 117 -3q58 0 118 3v-43l-38 -7q-16 -2 -19 -4t-4 -9q-2 -38 -2 -63v-152q0 -66 15.5 -98.5t64.5 -32.5
q64 0 87 48q13 24 13 85v150q0 25 -2 63q-1 7 -4.5 9t-18.5 4l-38 7v43q62 -3 116 -3q59 0 119 3v-43l-39 -7q-16 -2 -19 -4t-4 -9q-2 -38 -2 -63v-209q0 -25 2 -63q1 -7 4.5 -9t18.5 -4l39 -7v-43q-34 2 -38 2q-61 0 -122 -7z" />
    <glyph glyph-name="ucircumflex.sc" unicode="&#xf7fb;" horiz-adv-x="572" 
d="M281 683l130 -136l-39 -40l-93 78l-98 -78l-31 34zM382 -10v47q-90 -52 -165 -52q-79 0 -107 46t-28 130v169q0 25 -2 63q-1 7 -4.5 9t-19.5 4l-38 7v43q61 -3 117 -3q58 0 118 3v-43l-38 -7q-16 -2 -19 -4t-4 -9q-2 -38 -2 -63v-152q0 -66 15.5 -98.5t64.5 -32.5
q64 0 87 48q13 24 13 85v150q0 25 -2 63q-1 7 -4.5 9t-18.5 4l-38 7v43q62 -3 116 -3q59 0 119 3v-43l-39 -7q-16 -2 -19 -4t-4 -9q-2 -38 -2 -63v-209q0 -25 2 -63q1 -7 4.5 -9t18.5 -4l39 -7v-43q-34 2 -38 2q-61 0 -122 -7z" />
    <glyph glyph-name="udieresis.sc" unicode="&#xf7fc;" horiz-adv-x="572" 
d="M197 636h1q12 0 36.5 -19.5t24.5 -31.5t-24.5 -40t-35.5 -28t-36 20t-25 31q0 13 23.5 40.5t35.5 27.5zM373 636h1q11 0 36 -20.5t25 -30.5q0 -12 -24 -40t-36 -28q-11 0 -36 20t-25 31q0 13 23.5 40.5t35.5 27.5zM382 -10v47q-90 -52 -165 -52q-79 0 -107 46t-28 130
v169q0 25 -2 63q-1 7 -4.5 9t-19.5 4l-38 7v43q61 -3 117 -3q58 0 118 3v-43l-38 -7q-16 -2 -19 -4t-4 -9q-2 -38 -2 -63v-152q0 -66 15.5 -98.5t64.5 -32.5q64 0 87 48q13 24 13 85v150q0 25 -2 63q-1 7 -4.5 9t-18.5 4l-38 7v43q62 -3 116 -3q59 0 119 3v-43l-38 -7
q-16 -2 -19.5 -4t-4.5 -9q-1 -19 -1 -63v-209q0 -44 1 -63q1 -7 4.5 -9t19.5 -4l38 -7v-43q-32 2 -38 2q-61 0 -122 -7z" />
    <glyph glyph-name="yacute.sc" unicode="&#xf7fd;" horiz-adv-x="436" 
d="M311 682l58 -52q-69 -76 -171 -123l-30 49q74 44 143 126zM241 255l43 69q36 57 36 73q0 8 -16 11l-35 5v43q47 -3 91 -3q46 0 89 3v-43l-42 -7q-28 -46 -65 -101q-35 -53 -73 -114v-70q0 -25 2 -63q1 -7 4.5 -9t19.5 -4l37 -7v-43q-62 3 -117 3q-57 0 -117 -3v43l38 7
q16 2 19.5 4t4.5 9q2 38 2 63v70l-117 195q-8 14 -13.5 18t-18.5 6l-18 3v43q51 -3 101 -3q46 0 106 3v-43l-26 -4q-18 -3 -18 -11q0 -9 8 -20z" />
    <glyph glyph-name="thorn.sc" unicode="&#xf7fe;" horiz-adv-x="442" 
d="M93 161v209q0 15 -1 23q-1 6 -5 8.5t-19 4.5l-37 7v43q61 -3 116 -3q76 0 136 3v-43l-60 -7l-12 -1.5t-6.5 -2t-3.5 -3.5t-1 -6q-1 -8 -1 -21q51 0 86.5 -4t67 -15t47 -33.5t15.5 -55.5q0 -69 -65 -113t-151 -51v-11q0 -13 1 -31q1 -7 5 -9.5t19 -3.5l59 -7v-43
q-61 3 -133 3q-60 0 -120 -3v43l37 7q17 2 20.5 4t4.5 9q1 16 1 31v11q-24 3 -34 5l-2 12zM199 324v-169q54 0 82.5 22.5t28.5 64.5t-26 62t-85 20z" />
    <glyph glyph-name="ydieresis.sc" unicode="&#xf7ff;" horiz-adv-x="436" 
d="M136 636h1q12 0 36.5 -19.5t24.5 -31.5t-24.5 -40t-34.5 -28q-12 0 -37 20t-25 31q0 13 23.5 40.5t35.5 27.5zM312 636h1q11 0 36 -20.5t25 -30.5q0 -12 -24 -40t-36 -28q-11 0 -36 20t-25 31q0 13 23.5 40.5t35.5 27.5zM241 255l43 69q36 57 36 73q0 8 -16 11l-35 5v43
q47 -3 91 -3q46 0 89 3v-43l-42 -7q-28 -46 -65 -101q-35 -53 -73 -114v-70q0 -25 2 -63q1 -7 4.5 -9t19.5 -4l37 -7v-43q-62 3 -117 3q-57 0 -117 -3v43l38 7q16 2 19.5 4t4.5 9q2 38 2 63v70l-117 195q-8 14 -13.5 18t-18.5 6l-18 3v43q51 -3 101 -3q46 0 106 3v-43
l-26 -4q-18 -3 -18 -11q0 -9 8 -20z" />
    </font>
</defs>
</svg>
